<?xml version="1.0" encoding="utf-8"?>
<!-- Generator: Adobe Illustrator 27.7.0, SVG Export Plug-In . SVG Version: 6.00 Build 0)  -->
<svg version="1.1" id="Portfolio" xmlns="http://www.w3.org/2000/svg" xmlns:xlink="http://www.w3.org/1999/xlink" x="0px" y="0px"
	 viewBox="0 0 1080 1080" style="enable-background:new 0 0 1080 1080;" xml:space="preserve">
<style type="text/css">
	.st0{fill:#1447E1;}
	.st1{fill:none;stroke:#FFFFFF;stroke-miterlimit:10;}
	.st2{fill:#4169E1;}
</style>
<g>
	<path class="st0" d="M276.6,787.6c-7.6-3-14.1-7.1-19.3-12c5.4,5.2,12,9.4,20,12.5c22.1,8.5,42.8,4.2,59.9-12.3
		c9.7-9.5,19.4-19.1,28.9-28.8c-9.7,9.7-19.6,19.3-29.5,28.8C319.4,792.2,298.7,796.4,276.6,787.6L276.6,787.6z"/>
	<path class="st0" d="M313.4,638.6c-9.4,9.5-18.8,19.1-28.2,28.6c9.6-9.6,19.2-19.2,28.8-28.7c11.2-11.2,24.7-17.2,47-17
		c10.6,0.5,21.2,4.5,30.1,12.3c-9.1-8.1-20-12.2-30.8-12.6C337.9,621.2,324.6,627.4,313.4,638.6L313.4,638.6z"/>
	<path class="st0" d="M915.2,598.1C915.2,598.1,915.2,598,915.2,598.1c-8-14.2-20.6-25.2-32.1-36.8
		C823.6,501.7,764,442.2,704.4,382.6c-9.6-9.7-19.3-19.3-29.5-29.5c-4.7,0.3-9.8,0.2-15.3-0.2c-8.8-0.8-16.5-2.5-22.6-4.4
		c-1.4,2.1-2.4,4.1-3.8,5.5c-35,35-69.8,70.2-105.1,105c-21.8,21.5-48.3,30.4-78.6,24.6c-34.5-6.6-58-27.4-68.1-60.9
		c-10.1-33.7-2-63.9,23-89c37.5-37.7,75.2-75.3,112.8-112.9c0.7-0.7,1.4-1.4,2-2.1c8.3-8.6,16.6-17.1,24.9-25.7
		c-2.2,2-4.4,4-6.6,6.1c-0.1-0.1-0.4-0.2-0.6-0.5c-0.8-1-1.6-2.1-2.4-3.1C459.4,101.7,361.7,63,244.2,85.4
		c-109,20.7-183,87.7-220.9,191.8c-27,74.4-22.7,148,16.3,218.2c22.9,41.2,51.4,78.4,80.6,115.1c2.1,2.6,3.1,4.9,3,7.7
		c1.2-4.6,3-9.9,5.9-15.6c2-3.8,4.1-7.1,6.3-9.9c0,0,0,0,0.1-0.1c3.1-3.4,5.8-6.5,8.6-9.4l1.1-1.1c19.2-19.2,38.5-38.4,57.7-57.7
		c23.3-23.3,61-29.4,90.8-14.5c30.6,15.2,48.1,47.7,43.6,80.8c-0.4,3-0.7,6-1,9.4c29-5.5,54.3,0.7,74.9,21.5
		c20.5,20.6,26.7,45.9,21.4,74.4c58.1-12.6,108.9,38.2,96.7,96.5c1.9-0.2,3.7-0.4,5.4-0.7c16.5-2.4,32.6-0.8,47.5,6.9
		c29,15,44,39,44.8,71.6c0.1,4.9-0.3,11.3-1.9,18.5c-2.1,9.1-5.6,16.3-8.4,21.2c2.1-3.5,4.1-7.2,5.7-11.1c28.7,7.7,55,3.5,77.4-16.3
		c22.4-19.8,30-45.2,25.8-75c29,6.6,54.9,1.5,76.5-18.9c21.6-20.3,28.4-45.8,23.6-75.1c1.7,0.2,2.9,0.2,4.2,0.4
		c39.5,7.3,75.6-13,89.9-49.1c2.4-6.6,5.1-16.7,5-29.2C924.3,618.5,918.8,605.2,915.2,598.1L915.2,598.1z"/>
	<path class="st1" d="M915.2,598.1C915.2,598.1,915.2,598,915.2,598.1"/>
	
		<rect x="517.7" y="391.7" transform="matrix(0.7071 0.7071 -0.7071 0.7071 547.645 -401.914)" class="st0" width="482.6" height="136.8"/>
	<path class="st2" d="M626.8,870.5c-0.8-32.6-15.8-56.6-44.8-71.6c-14.9-7.7-30.9-9.4-47.5-6.9c-1.8,0.3-3.5,0.4-5.4,0.7
		c12.3-58.3-38.5-109-96.7-96.5c5.4-28.4-0.8-53.7-21.4-74.4c-20.6-20.7-45.9-26.9-74.9-21.5c0.4-3.4,0.6-6.4,1-9.4
		c4.5-33.1-13-65.5-43.6-80.8c-29.8-14.9-67.5-8.8-90.8,14.5c-19.2,19.3-38.5,38.4-57.7,57.7l-1.1,1.1c-2.8,2.9-5.5,5.9-8.6,9.4
		c0,0,0,0-0.1,0.1c-2.2,2.8-4.3,6.1-6.3,9.9c-2.9,5.6-4.8,11-5.9,15.6c0,1-0.2,2-0.5,3.1c-0.5,1.8-0.8,3.6-1.2,5.4c0,0,0,0.1,0,0.1
		c-7.6,42.9,21.3,84.5,65.2,91.4c10.5,1.6,21.5,0.2,32.6,0.2c-4.9,28.1,1.6,53.5,22.8,73.9c21.3,20.6,47.1,26.2,76.3,19.9
		c-4.5,29.2,2.6,54.5,24,74.6c21.6,20.2,47.5,25.1,76.2,18.7c-0.3,2.3-0.5,3.7-0.6,5.1c-3.5,34.1,12.2,64.9,40.9,80.3
		c29.5,15.7,64.1,12.2,89.6-9.4c6.6-5.6,12.7-11.8,18.6-18.2c16.2-17.8,36.4-32.2,49.2-53c0.1-0.1,0.1-0.2,0.2-0.3
		c2.9-4.9,6.3-12.1,8.4-21.2C626.5,881.7,626.8,875.4,626.8,870.5L626.8,870.5z"/>
	
		<rect x="462.5" y="293.4" transform="matrix(0.7071 0.7071 -0.7071 0.7071 451.6407 -248.4795)" class="st0" width="126.5" height="255.1"/>
	<path class="st2" d="M980.4,159.1c-65.9-62.2-145.3-87.7-235.1-77.7c-74.2,8.2-136.2,41.5-186.2,97.1c-4.6,5.1-9.7,9.8-14.8,14.4
		c-8.3,8.6-16.6,17.1-24.9,25.7c-0.7,0.7-1.3,1.4-2,2.1c-37.6,37.6-75.3,75.2-112.8,112.9c-25,25.1-33.2,55.3-23,89
		c10.1,33.5,33.6,54.3,68.1,60.9c30.3,5.8,56.8-3.1,78.6-24.6c35.3-34.8,70.1-69.9,105.1-105c1.4-1.4,2.3-3.4,3.8-5.5
		c6.1,1.9,13.7,3.6,22.6,4.4c5.5,0.5,10.6,0.5,15.3,0.2c10.2,10.2,19.9,19.9,29.5,29.5c59.6,59.6,119.1,119.1,178.7,178.7
		c11.6,11.6,24.1,22.5,32.1,36.7c0,0,0,0.1,0,0.1c3.6,7.1,9.1,20.4,9.2,37.8c0.1,12.5-2.6,22.6-5,29.2c1.2-3,2.2-6.1,3.1-9.4
		c0.7-2.5,2.2-5,3.9-7c17.1-20.3,35.1-40,51.5-60.9c22-28,43-56.9,60.5-88c18.6-33.1,31.9-68,34.2-106.1
		C1078.2,301.4,1047.6,222.5,980.4,159.1L980.4,159.1z"/>
</g>
</svg>
