<?xml version="1.0" encoding="UTF-8"?><svg id="Portfolio" xmlns="http://www.w3.org/2000/svg" viewBox="0 0 2346.809 1348.261"><defs><style>.cls-1{fill:#bbcff9;}</style></defs><path class="cls-1" d="m192.355-34.873c-26.176,22.994-43.794,53.483-55.561,85.983-12.09,33.39-20.217,70.14-22.032,105.644-2.068,40.474,5.605,81.233,18.922,119.352,11.568,33.115,27.02,64.531,52.885,88.876,22.839,21.497,53.25,36.866,85.31,32.569,32.643-4.375,61.199-27.505,73.737-57.673,13.245-31.867,7.46-66.159-13.273-93.335-21.327-27.954-52.396-49.961-83.727-65.367-64.394-31.663-138.754-33.721-202.951-.526-49.198,25.439-91.27,64.079-111.381,116.572-18.06,47.138-16.509,99.265-6.631,148.046,10.916,53.912,31.848,105.53,55.701,154.902,11.773,24.368,24.439,48.296,37.592,71.944,14.152,25.446,27.576,52.976,47.022,74.842,21.062,23.683,52.286,35.148,82.027,20.407,27.36-13.561,38.486-45.157,25.753-72.847-5.969-12.98-16.936-23.45-30.668-27.747-17.217-5.387-36.178-1.716-53.221,2.605-28.041,7.11-54.419,19.925-77.166,37.805-43.644,34.308-70.987,86.031-80.28,140.297-10.127,59.136-.483,122.297,29.026,174.75,27.145,48.25,69.544,83.902,115.753,113.078,62.831,39.671,133.66,58.861,207.279,65.324,38.643,3.392,77.368,3.129,116.108,2.158,38.696-.97,77.442-2.975,115.736-8.889,38.418-5.934,76.28-16.138,111.374-33.083,15.198-7.339,28.094-15.857,38.579-29.29,9.428-12.078,16.63-26.481,18.352-41.85,1.619-14.451-3.044-29.916-13.389-40.369-8.949-9.042-21.536-12.218-33.936-10.724-29.641,3.573-54.012,24.927-59.238,54.512-5.276,29.869,4.736,59.222,25.835,80.672,22.244,22.613,52.014,36.564,80.604,49.28,56.636,25.189,116.6,39.036,178.635,40.62,37.462.957,74.911-2.472,111.704-9.492,6.314-1.205,3.641-10.844-2.658-9.643-63.846,12.18-129.981,12.748-193.682-.679-28.69-6.047-56.42-15.106-83.236-26.913-26.702-11.757-54.456-23.967-76.751-43.197-21.892-18.882-34.713-44.797-31.369-74.113,1.699-14.9,8.213-29.668,20.589-38.682,9.927-7.23,22.932-12.678,35.32-12.772,12.891-.099,22.756,7.109,28.129,18.606,6.789,14.527,3.453,30.718-3.666,44.465-6.688,12.915-16.694,25.021-29.17,32.702-15.556,9.577-33.233,16.549-50.45,22.472-68.565,23.588-142.032,25.675-213.819,26.911-71.579,1.232-144.384-4.075-212.44-27.786-49.861-17.372-98.171-46.316-137.466-81.787-44.26-39.953-73.608-92.001-82.708-151.122-7.919-51.45-.412-106.073,23.842-152.36,24.633-47.009,66.291-82.87,117.211-98.46,15.278-4.678,32.065-8.983,48.127-7.398,15.314,1.511,27.659,10.54,34.135,24.401,13.231,28.318-5.066,57.79-34.323,64.236-33.439,7.368-57.828-20.228-73.819-45.639-13.511-21.469-25.677-43.939-37.779-66.224-24.309-44.762-46.822-90.744-63.849-138.815-16.294-45.999-28.183-94.768-26.48-143.878,1.601-46.148,17.163-90.6,48.198-125.241,40.086-44.743,100.31-75.68,160.672-77.155,65.718-1.606,133.835,29.091,177.829,77.794,22.591,25.009,32.293,56.902,20.346,89.285-11.078,30.029-40.485,53.442-72.848,55.057-30.303,1.513-57.732-15.754-77.831-37.081-23.721-25.17-37.372-57.157-47.56-89.786-11.336-36.306-17.239-74.594-14.03-112.634,2.807-33.276,10.725-67.523,22.529-98.737,11.159-29.506,27.753-56.86,51.596-77.805,4.844-4.255-2.251-11.305-7.071-7.071h0Z"/><path class="cls-1" d="m668.42-18.129c38.359,23.645,77.422,47.792,107.415,81.998,27.836,31.746,47.148,74.518,42.017,117.436-2.308,19.31-10.817,37.651-23.26,52.529-11.087,13.257-25.571,24.563-42.684,28.491-17.921,4.114-36.795-.268-48.975-14.515-10.219-11.954-14.657-28.55-15.888-43.936-.514-6.424-.536-12.929.141-19.343.046-.434.295-2.337.121-1.105.137-.97.293-1.938.467-2.902.454-2.514,1.03-5.006,1.707-7.469,4.548-16.549,13.722-31.641,24.998-44.463,27.081-30.794,64.778-47.541,103.884-57.325,38.726-9.689,78.644-13.568,118.015-19.715,51.3-8.01,102.728-15.199,154.26-21.55,51.305-6.323,102.714-12.058,154.238-16.271,51.924-4.245,103.964-7.005,156.033-8.645,12.713-.4,25.429-.732,38.145-1.007,6.426-.139,6.448-10.14,0-10-54.129,1.172-108.239,3.43-162.25,7.226-53.9,3.788-107.646,9.363-161.301,15.696-53.707,6.339-107.311,13.565-160.78,21.674-22.126,3.356-44.235,6.736-66.395,9.861-20.692,2.918-41.385,6.013-61.797,10.537-39.931,8.852-79.594,23.806-109.606,52.531-22.532,21.566-39.975,50.385-40.241,82.269-.14,16.72,3.053,34.071,10.938,48.93,9.343,17.604,25.875,29.12,45.876,30.829,39.257,3.355,72.464-29.173,86.752-62.968,17.342-41.019,6.06-88.522-16.28-125.283-24.335-40.045-62.468-68.875-101.288-93.865-9.66-6.218-19.436-12.253-29.215-18.281-5.494-3.386-10.522,5.26-5.047,8.635h0Z"/><path class="cls-1" d="m1785.52,1383.383c99.352,10.061,199.252,17.773,299.163,13.146,45.696-2.116,91.532-5.769,135.497-19.232,40.993-12.553,79.756-33.269,110.954-62.894,28.349-26.92,49.851-60.059,67.517-94.719,19.61-38.476,35.579-79.418,44.407-121.797,8.854-42.499,7.902-86.243-10.296-126.193-16.456-36.128-44.307-66.309-75.691-90.086-70.809-53.646-162.165-82.132-250.359-86.312-43.014-2.038-86.672,2.552-126.202,20.557-34.889,15.892-67.868,44.65-79.092,82.596-23.284,78.719,35.811,157.897,108.696,182.991,72.269,24.882,153.565-2.473,197.319-64.699,25.559-36.35,33.166-80.761,39.273-123.81,6.515-45.933,6.504-92.244,6.449-138.591-.059-50.11-2.264-100.191-5.271-150.202-2.883-47.947-7.61-96.284-21.97-142.396-6.674-21.43-16.518-41.643-26.812-61.536-10.714-20.705-22.282-41.292-35.53-60.497-24.409-35.385-54.135-67.424-88.878-92.922-71.598-52.546-168.098-61.822-250.216-29.814-76.706,29.899-124.697,109.641-121.858,190.999,1.408,40.343,14.52,81.027,37.846,113.854,10.661,15.004,22.373,28.568,36.992,40.228,15.033,11.991,31.612,21.766,49.276,29.347,81.28,34.884,173.33,23.89,253.96-6.988,10.328-3.955,20.859-9.967,31.567-12.641,9.702-2.423,19.233-9.281,28.141-13.917,20.382-10.61,40.22-23.387,57.786-38.234,33.882-28.637,62.41-64.083,76.278-106.788,13.453-41.427,12.588-86.218,1.95-128.168-10.522-41.489-29.595-81.223-58.536-112.942-61.457-67.356-147.459-104.555-235.136-123.993-93.849-20.807-191.277-25.913-286.984-31.513-98.653-5.773-197.458-10.178-295.681-21.503-47.917-5.525-96.295-9.732-143.696-18.97-6.287-1.225-8.979,8.411-2.658,9.643,45.133,8.797,91.066,12.72,136.654,18.187,47.054,5.643,94.285,9.678,141.559,12.937,93.215,6.428,186.661,9.64,279.75,17.833,89.904,7.913,180.043,18.622,264.351,52.618,39.723,16.018,77.399,38.611,109.739,66.719s56.636,63.322,71.456,103.158c14.604,39.254,21.528,82.147,14.746,123.788-7.076,43.448-29.625,83.49-61.031,114.094-15.877,15.472-33.311,28.353-51.635,40.752-9.405,6.364-19.524,11.436-29.586,16.667-4.56,2.371-9.051,4.879-13.617,7.235-4.236,2.185-8.779,3.235-13.161,5.158-40.701,17.866-83.839,31.585-128.143,36.553-40.884,4.584-82.518,1.824-121.86-10.572-17.824-5.616-34.971-13.265-50.831-23.174-8.249-5.153-16.115-10.889-23.476-17.248-7.022-6.067-15.267-12.921-20.355-20.745-4.092-6.292-8.306-12.441-12.873-18.468-6.336-8.362-11.029-17.803-15.273-27.408-8.181-18.517-13.773-38.379-16.204-58.484-4.804-39.723,2.691-80.281,21.497-115.607,4.378-8.223,9.736-15.605,15.066-23.146,5.905-8.355,13.069-18.464,21.406-24.497,7.343-5.314,13.949-11.739,21.529-16.915,8.086-5.521,16.748-10.132,25.569-14.356,4.193-2.008,8.127-3.672,12.588-4.876,5.452-1.471,10.496-4.465,15.898-6.231,10.228-3.344,20.83-5.355,31.418-7.17,21.03-3.604,42.845-4.335,64.126-3.016,43.473,2.695,84.848,17.045,120.612,41.954,34.497,24.027,64.015,55.348,88.319,89.436,13.071,18.334,24.411,38.092,34.975,57.959,10.282,19.336,20.416,39.128,27.408,59.919,14.513,43.149,20.029,89.309,22.851,134.501,2.981,47.738,5.317,95.533,5.846,143.368.261,23.585.609,47.254.396,70.833-.104,11.573-1.142,23.203-1.74,34.763-.508,9.832-2.697,19.557-2.697,29.38,0,10.881-2.356,21.838-3.88,32.606-1.485,10.498-3.068,20.91-5.328,31.276-4.516,20.71-10.889,42.584-21.252,61.172-17.756,31.848-46.029,57.703-79.721,71.79-71.124,29.739-153.997,4.06-197.816-58.793-22.581-32.389-32.734-76.393-17.936-114.184,14.616-37.327,49.472-62.86,86.006-76.19,39.061-14.252,81.072-15.92,122.158-12.764,44.722,3.436,88.907,14.173,130.93,29.711,72.682,26.873,150.115,77.301,177.131,153.667,14.615,41.313,10.304,85.507-1.061,127.045-10.821,39.552-26.599,77.609-46.422,113.488-18.145,32.842-40.48,63.404-69.389,87.6-33.06,27.671-73.681,45.474-115.359,55.52-43.09,10.387-87.713,12.679-131.865,14.044-47.547,1.469-95.142.304-142.621-2.462-45.773-2.666-91.443-6.816-137.055-11.435-6.397-.648-6.352,9.357,0,10h0Z"/></svg>