<?xml version="1.0" encoding="utf-8"?>
<!-- Generator: Adobe Illustrator 27.7.0, SVG Export Plug-In . SVG Version: 6.00 Build 0)  -->
<svg version="1.1" id="Checkmark" xmlns="http://www.w3.org/2000/svg" xmlns:xlink="http://www.w3.org/1999/xlink" x="0px" y="0px"
	 viewBox="0 0 1118 1118" style="enable-background:new 0 0 1118 1118;" xml:space="preserve">
<style type="text/css">
	.st0{fill:#1447E1;}
	.st1{fill:#BBCFF9;}
</style>
<circle class="st0" cx="559" cy="559" r="522.3"/>
<path class="st1" d="M512.5,780.8c-6.5,0.4-13-2.5-18.4-6.3c-12.2-8.6-22.8-19.3-34.1-29c-18.4-15.8-36.8-31.5-55.1-47.3
	c-36.7-31.6-73.4-63.2-110.1-94.8c-4.4-3.8-8.8-7.6-13.2-11.4c-6.5-5.6-8.2-10.8-1.2-18.4c11.5-12.7,21.7-26.5,32.4-40
	c9.4-11.7,12.2-12.1,23.7-2.2c39.1,33.5,78.3,66.9,117.4,100.4c7.2,6.2,14.5,12.2,21.7,18.3c6.7,5.7,12.7,12.3,20.4,16.7
	c2.7,1.5,5.7,2.8,8.8,2.7c4.7-0.1,8.9-3,12.1-6.5c14-15.5,26-33.3,38.7-49.8c13.8-17.8,27.6-35.6,41.5-53.4
	c29.8-38.3,59.5-76.6,89.3-114.9l85.7-110.3c8.2-10.5,10.4-10.8,20.6-1.5c14.3,12.9,28.1,26.5,43.1,38.5c8.4,6.7,7.5,11.5,1.5,18.9
	c-25.3,30.9-50.3,62-75.4,93C701.2,558.5,640.3,633.8,579.3,709c-8.4,10.3-17,20.5-25.3,30.8c-6.5,8.1-12.3,16.7-19,24.7
	c-5.5,6.7-11.6,14.5-20.7,16C513.7,780.7,513.1,780.8,512.5,780.8L512.5,780.8L512.5,780.8z"/>
</svg>
