<?xml version="1.0" encoding="utf-8"?>
<!-- Generator: Adobe Illustrator 27.7.0, SVG Export Plug-In . SVG Version: 6.00 Build 0)  -->
<svg version="1.1" id="Plane" xmlns="http://www.w3.org/2000/svg" xmlns:xlink="http://www.w3.org/1999/xlink" x="0px" y="0px"
	 viewBox="0 0 1080 1080" style="enable-background:new 0 0 1080 1080;" xml:space="preserve">
<style type="text/css">
	.st0{fill:#CDDDF7;}
	.st1{fill:#8DB3F7;}
	.st2{fill:#5C82E0;}
	.st3{fill:#BBCFF9;}
</style>
<g>
	<g>
		<g>
			<g>
				<polygon class="st0" points="471,631.7 593.3,467 606,568.4 666.3,444.2 815.9,386.7 297.4,228.4 				"/>
				<polygon class="st1" points="297.7,228.4 593.1,467.2 606,568 666.5,443.9 				"/>
				<polygon class="st2" points="558.5,513.6 606,568 593.1,467.2 				"/>
			</g>
		</g>
	</g>
	<g>
		<g>
			<path class="st3" d="M622.4,591.7c21,20.3,44.4,38.3,69.4,53.4c12.4,7.5,25.2,14.2,38.4,20.2c13.6,6.2,27.6,11.9,42.2,15.4
				c14.4,3.5,29.6,4.8,44.2,1.5c12.8-2.9,24.4-9.6,33.1-19.4c16.8-19,22.2-46.4,11.4-69.7c-10.4-22.6-34.9-38.9-60-37.9
				c-14,0.6-27.5,6.7-34.2,19.6c-6.1,11.8-6.6,26-4.3,38.9c4.3,24.5,20.5,45.3,40.2,59.7c22.8,16.7,50.6,23.5,78.6,23.9
				c32,0.4,63.5-7.1,94.1-15.4c30.9-8.4,61.9-17.8,93.9-20.3c7.8-0.6,15.6-0.8,23.5-0.5c6.4,0.2,6.4-9.8,0-10
				c-30.8-1.1-61.1,5.4-90.7,13.2c-29.4,7.8-58.7,16.9-88.9,20.9c-27.4,3.7-56.8,3.3-82.7-7.5c-20.9-8.8-39.6-24.2-50.5-44.3
				c-5.1-9.5-8.3-20.1-8.7-30.8c-0.4-11.2,1.7-24.5,11.5-31.5c9.4-6.8,22.3-7,33.1-4.1c10.7,2.9,20.2,9.1,27.5,17.3
				c7.1,7.9,12.1,18.3,13.1,28.9c1.1,10.9-1.2,21.8-6.3,31.5c-5.1,9.7-12.8,17.8-22.5,23c-11.7,6.3-25.3,7.5-38.3,6.1
				c-13.8-1.4-27.4-5.8-40.3-11c-12.7-5.1-25-11-37-17.4c-24.3-13.1-47.1-28.8-68-47c-5.1-4.4-10-8.9-14.8-13.6
				C624.8,580.1,617.7,587.2,622.4,591.7L622.4,591.7z"/>
		</g>
	</g>
</g>
<g>
	<g>
		<g>
			<g>
				<g>
					<polygon class="st0" points="930,363.1 976.2,297.7 981.2,337.9 1003.9,288.6 1060.7,265.6 863.5,203.5 					"/>
					<polygon class="st1" points="863.6,203.5 976.1,297.8 981.2,337.7 1004,288.5 					"/>
					<polygon class="st2" points="963.1,316.2 981.2,337.7 976.1,297.8 					"/>
				</g>
			</g>
		</g>
	</g>
	<g>
		<g>
			<g>
				<path class="st3" d="M998.8,360.4c10.1,10,21.7,18,33.6,25.7c10.4,6.7,20.9,13.2,31.2,20c5.2,3.4,10.3,6.9,15.3,10.5
					c1.3,0.9,2.5,1.9,3.8,2.8c0.6,0.4,1.2,0.9,1.7,1.3c0.3,0.2,0.5,0.4,0.8,0.6c0.2,0.1,0.4,0.3,0.5,0.4c0.5,0.4-0.7-0.6-0.2-0.2
					c2.4,1.9,4.8,3.8,7.2,5.8c4.6,3.9,9,8,13.2,12.3c2.1,2.2,4.1,4.4,6,6.7c0.9,1.1,1.9,2.3,2.8,3.4c0.7,0.9-0.4-0.5,0.1,0.2
					c0.2,0.3,0.4,0.5,0.6,0.8c0.5,0.6,0.9,1.2,1.4,1.9c3.6,4.9,6.7,10.1,9.4,15.6c0.7,1.4,1.3,2.7,1.9,4.1c0.1,0.3,0.3,0.6,0.4,0.9
					c0.3,0.6-0.4-0.9-0.1-0.3c0.1,0.2,0.1,0.3,0.2,0.5c0.3,0.7,0.6,1.5,0.9,2.2c1.1,3,2.2,6,3,9.1c0.4,1.6,0.8,3.1,1.2,4.7
					c0.6,2.5,3.6,4.3,6.2,3.5c2.7-0.9,4.1-3.4,3.5-6.2c-2.9-12.5-8.1-24.5-15.2-35.2c-6.8-10.4-15.2-19.6-24.4-27.8
					c-9.4-8.4-19.7-15.9-30.2-23c-10.4-7-21-13.6-31.5-20.3c-5.2-3.3-10.4-6.7-15.4-10.2c-2.7-1.8-5.4-3.7-8-5.7
					c0,0-0.6-0.5-0.2-0.2c0.4,0.3-0.2-0.1-0.2-0.2c-0.4-0.3-0.8-0.6-1.2-1c-0.8-0.6-1.6-1.3-2.4-1.9c-1.5-1.3-3.1-2.6-4.5-4
					c-1.5-1.3-2.9-2.7-4.4-4.1c-1.9-1.8-5.2-2-7.1,0C997,355.3,996.8,358.4,998.8,360.4L998.8,360.4z"/>
			</g>
		</g>
	</g>
</g>
<g>
	<g>
		<g>
			<g>
				<g>
					<polygon class="st0" points="517.6,1010.7 589.2,909.3 596.9,971.6 632.1,895.1 720,859.6 414.5,763.4 					"/>
					<polygon class="st1" points="414.7,763.4 589.1,909.5 596.9,971.3 632.3,895 					"/>
					<polygon class="st2" points="568.8,938 596.9,971.3 589.1,909.5 					"/>
				</g>
			</g>
		</g>
	</g>
	<g>
		<g>
			<g>
				<path class="st3" d="M626.2,1004.5c8.8,8.7,18.2,16.6,28.3,23.7c7.7,5.5,15.6,10.7,23.6,15.9c16.1,10.5,32.4,20.5,48.5,31.1
					c8,5.3,16,10.7,23.8,16.4c1.9,1.4,3.8,2.8,5.7,4.2c0.9,0.7,1.8,1.3,2.7,2c0.4,0.3,0.9,0.7,1.3,1c0.3,0.2,0.5,0.4,0.8,0.6
					c-0.6-0.5-0.5-0.4,0.1,0c3.7,2.9,7.4,5.9,11.1,8.9c7.1,6,14,12.4,20.4,19.1c3.2,3.4,6.3,6.8,9.3,10.4c1.5,1.8,3,3.6,4.4,5.5
					c0.2,0.2,0.6,0.7-0.2-0.2c0.2,0.2,0.4,0.5,0.6,0.8c0.3,0.4,0.7,0.9,1,1.3c0.7,1,1.4,1.9,2.1,2.9c5.4,7.6,10.3,15.6,14.4,24
					c1.1,2.2,2.1,4.4,3.1,6.6c0.2,0.5,0.5,1,0.7,1.6c-0.5-1.4,0.2,0.4,0.3,0.7c0.5,1.2,0.9,2.3,1.4,3.5c1.7,4.6,3.3,9.2,4.6,13.9
					c0.7,2.4,1.3,4.9,1.9,7.3c0.6,2.5,3.6,4.3,6.2,3.5c2.7-0.9,4.1-3.4,3.5-6.2c-4.5-19.2-12.5-37.6-23.3-54.1
					c-10.5-15.9-23.4-30.1-37.6-42.7c-14.5-12.9-30.2-24.3-46.3-35.2c-16-10.8-32.5-20.9-48.7-31.4c-8-5.1-16-10.4-23.9-15.7
					c-4.1-2.8-8.2-5.6-12.1-8.7c-0.2-0.1-1-0.7-0.2-0.2c-0.4-0.3-0.7-0.5-1.1-0.8c-0.6-0.5-1.2-0.9-1.7-1.4c-1.2-1-2.5-2-3.7-3
					c-2.3-1.9-4.6-3.9-6.8-6c-2.3-2.1-4.6-4.3-6.8-6.5c-1.9-1.8-5.2-2-7.1,0C624.3,999.4,624.2,1002.5,626.2,1004.5L626.2,1004.5z"
					/>
			</g>
		</g>
	</g>
</g>
</svg>
