<?xml version="1.0" encoding="utf-8"?>
<!-- Generator: Adobe Illustrator 27.7.0, SVG Export Plug-In . SVG Version: 6.00 Build 0)  -->
<svg version="1.1" id="Layer_1" xmlns="http://www.w3.org/2000/svg" xmlns:xlink="http://www.w3.org/1999/xlink" x="0px" y="0px"
	 viewBox="0 0 1080 1080" style="enable-background:new 0 0 1080 1080;" xml:space="preserve">
<style type="text/css">
	.st0{fill:#4169E1;}
	.st1{fill:#1447E1;}
</style>
<g id="Bulb">
	<path class="st0" d="M867,280.9c-9.2-28.3-21.7-55-37.9-79.9c-17.8-27.3-38.6-52-63.5-73.3C741,106.6,714.2,89.1,685,75.3
		c-35.4-16.8-72.8-26.7-111.6-30.7c-18-1.9-36.2-1.8-54.4-0.7c-25.4,1.4-50.2,5.9-74.6,12.8c-29.5,8.3-57.3,20.6-83.3,36.7
		c-27,16.7-51.7,36.2-73.1,59.9c-13.7,15.1-26.2,31-37.3,48.2c-14.3,22.1-26,45.5-34.6,70.3c-7.2,20.7-12.6,42-15.9,63.8
		c-4.1,27.2-4.9,54.5-2.6,81.8c2.7,31.9,10.2,62.9,21.6,92.9c11.2,29.3,26.3,56.5,44.8,81.7c14.9,20.2,32.1,38.3,47.6,58
		c10.8,13.7,21.1,27.7,30.4,42.4c10.8,17.1,20.3,34.9,29.6,52.8c15.5,30.2,25.8,61.9,28.9,96c2,22.4,14.6,37.7,36.2,45.2
		c0.6,0.2,1.8,0.1,1.6,1.8c-7.6,0-15.2-0.1-22.8,0c-0.9,0-1.7,0.1-2.6,0.2l230.1-0.9c-0.5-0.1-1-0.2-1.5-0.3
		c8.2-2.4,14.2-5.9,19.6-10.5c12.8-10.8,18.2-25.1,19.4-41.3c2.2-30.3,12.1-58.3,25.5-85.2c8.4-17.1,17.3-33.9,27.3-50.1
		c13-21.1,27.3-41.2,43.3-60.2c12.6-14.9,25.4-29.5,37.1-45c21.8-28.9,38.8-60.5,50.7-94.8c11-31.7,17.5-64.4,18.9-97.9
		C885.1,360.8,879.8,320.4,867,280.9L867,280.9z"/>
	<path class="st1" d="M687.7,915.5c-0.3,10.3-2,19.4-11.2,25.7c-4.4,3-9.5,3.6-14.7,4.3c0.2,0.6,0.2,1.1,0.4,1.3
		c9.7,9.4,12.9,26.9,7.4,39.3c-4,9-11.3,13.2-20.8,13.7c-3.3,0.2-5.7,1.2-8.2,3.4c-8.1,7.2-16.3,14.3-24.6,21.1
		c-9.3,7.6-20.2,11.4-32,11.5c-29.1,0.3-58.3,0.2-87.4,0c-14.5-0.1-26.9-6-37.6-15.7c-6.9-6.3-14.1-12.3-21.1-18.5
		c-1.7-1.5-3.6-1.8-5.7-1.9c-13.6-0.6-22-8.3-23.6-21.8c-0.7-6-0.4-12,0.6-17.9c1-5.9,4.9-10.1,9.6-14.3c-2.1-0.4-3.6-0.7-5.1-0.9
		c-11.7-2-19.4-9.4-20.8-21.2c-1.2-10.6-1.2-21.2,7.6-29.3c3.6-3.4,7.7-5.5,12.5-6.1l230.1-0.9h0c6.3,1.2,11.8,1,17.1,0.5
		C676.8,886.6,688,899.5,687.7,915.5L687.7,915.5z"/>
	<path class="st0" d="M883.3,402.1c-1.4,33.5-7.9,66.1-18.9,97.9c-11.9,34.3-28.9,65.9-50.7,94.8c-11.7,15.5-24.6,30.1-37.1,45
		c-16,18.9-30.3,39.1-43.3,60.2c-10,16.2-18.9,33.1-27.3,50.1c-13.3,26.9-23.3,54.9-25.5,85.2c-1.2,16.2-6.5,30.5-19.3,41.3
		c-5.4,4.6-11.4,8.1-19.6,10.5c0.5,0.1,1,0.2,1.5,0.3l-230.1,0.9c0.8-0.1,1.7-0.2,2.6-0.2c7.6-0.1,15.2,0,22.8,0
		c0.2-1.7-1-1.5-1.6-1.8c-21.6-7.4-34.1-22.8-36.1-45.2c-3.1-34.1-13.3-65.8-28.9-96c-9.2-17.9-18.8-35.7-29.6-52.8
		c-9.3-14.7-19.6-28.7-30.4-42.4c-15.4-19.7-32.7-37.8-47.6-58c-18.6-25.2-33.7-52.3-44.8-81.7c-11.4-30-18.9-61-21.7-92.9
		c-2.3-27.3-1.5-54.6,2.6-81.8c3.3-21.8,8.7-43,15.9-63.8c8.7-24.9,20.4-48.2,34.6-70.3c11-17.1,23.6-33,37.3-48.2
		c21.4-23.7,46.1-43.2,73.1-59.9c26-16.1,53.8-28.4,83.3-36.7c24.4-6.9,49.2-11.4,74.6-12.8c18.2-1,36.4-1.1,54.4,0.7
		c38.8,4,76.2,13.9,111.6,30.7c29.3,13.9,56.1,31.4,80.7,52.5c24.9,21.3,45.7,46.1,63.5,73.3c16.2,24.9,28.7,51.6,37.9,79.9
		C879.8,320.4,885.1,360.8,883.3,402.1L883.3,402.1z"/>
</g>
</svg>
