<?xml version="1.0" encoding="UTF-8"?><svg id="Layer_1" xmlns="http://www.w3.org/2000/svg" viewBox="0 0 313 150.802"><defs><style>.cls-1{fill:#fff;}</style></defs><path class="cls-1" d="m111.9,54.401c2,0,4,.7,5.2,2.5,1.7,1.7,2.5,3.2,2.5,5.2v15.2c0,2-.7,4-2.5,5.2-1.7,1.2-3.2,2.5-5.2,2.5h-23.7v-40.8h8.2v10.2h15.5Zm-15.7,8v14.7h15.2v-14.7s-15.2,0-15.2,0Z"/><path class="cls-1" d="m146,54.401h8.2v23.2c0,2-.7,4-2.5,5.2-1.7,1.2-3.2,2.5-5.2,2.5h-15.7c-2,0-4-.7-5.2-2.5-1.7-1.7-2.5-3.2-2.5-5.2v-23.2h8.2v22.7h15.2l-.5-22.7h0Z"/><path class="cls-1" d="m182.1,54.401c2,0,4,.7,5.2,2.5,1.7,1.7,2.5,3.2,2.5,5.2v15.2c0,2-.7,4-2.5,5.2-1.7,1.2-3.2,2.5-5.2,2.5h-23.4v-40.8h8.2v10.2h15.2Zm-15.4,8v14.7h14.7v-14.7h-14.7Z"/><path class="cls-1" d="m201.6,54.401h15.7c2,0,4,.7,5.2,2.5,1.7,1.7,2.5,3.2,2.5,5.2v15.2c0,2-.7,4-2.5,5.2-1.7,1.2-3.2,2.5-5.2,2.5h-15.7c-2,0-4-.7-5.2-2.5-1.7-1.7-2.5-3.2-2.5-5.2v-15.2c0-2,.7-4,2.5-5.2,1.2-2,3.2-2.5,5.2-2.5Zm.5,8v14.7h15.2v-14.7h-15.2Z"/><path class="cls-1" d="m87.6,106.501v-11.2h2.4v9.2h4.1v2h-6.5Z"/><path class="cls-1" d="m102.4,106.501h-6.4v-11.2h6.4v1.9h-4.1v2.5h3.8v1.9h-3.8v2.9h4.1v2h0Z"/><path class="cls-1" d="m111.1,106.501l-.8-2.7h-3.9l-.8,2.7h-2.4l3.6-11.2h2.9l3.6,11.2h-2.2Zm-1.3-4.7l-.7-2.4c0-.1-.1-.2-.1-.4-.1-.2-.1-.4-.2-.7s-.1-.5-.2-.8-.1-.5-.1-.6c0,.1,0,.2-.1.4,0,.2-.1.3-.1.5s-.1.3-.1.5-.1.3-.1.5-.1.3-.1.4-.1.2-.1.3l-.7,2.4,2.6-.1h0Z"/><path class="cls-1" d="m117.3,102.201v4.3h-2.4v-11.2h3.1c1.4,0,2.5.3,3.2.8.7.6,1,1.4,1,2.5,0,.4-.1.7-.2,1s-.2.6-.4.8c-.2.2-.4.5-.6.6-.2.2-.5.3-.7.5.6.9,1.1,1.7,1.5,2.4.2.3.4.6.6.9.2.3.3.5.5.8s.3.4.4.5l.1.2h-2.6l-2.4-4.3h-1.1v.2Zm0-1.9h.6c.7,0,1.1-.1,1.4-.4.3-.3.4-.6.4-1.2s-.2-.9-.5-1.1c-.3-.2-.8-.3-1.4-.3h-.6c.1-.1.1,3,.1,3Z"/><path class="cls-1" d="m134.2,106.501h-3l-4.4-8.5h-.1c0,.4.1.8.1,1.2,0,.3,0,.7.1,1v6.3h-2.1v-11.2h3l4.4,8.4h0c0-.4,0-.8-.1-1.2v-7.2h2.1v11.2h0Z"/><path class="cls-1" d="m141.2,106.501h-5.1v-1.3l1.4-.6v-7.2l-1.4-.6v-1.3h5.1v1.3l-1.4.6v7.2l1.4.6v1.3Z"/><path class="cls-1" d="m152.6,106.501h-3l-4.4-8.5h-.1c0,.4.1.8.1,1.2,0,.3,0,.7.1,1v6.3h-2.1v-11.2h3l4.4,8.4h0c0-.4,0-.8-.1-1.2v-7.2h2.1v11.2h0Z"/><path class="cls-1" d="m159.6,100.201h4.4v5.8c-.3.1-.6.2-.9.3-.3.1-.6.1-.9.2-.3.1-.7.1-1,.1h-1.1c-.8,0-1.6-.1-2.2-.4-.6-.3-1.2-.6-1.6-1.1-.4-.5-.8-1.1-1-1.8s-.3-1.5-.3-2.5c0-.9.1-1.7.4-2.4.3-.7.6-1.3,1.1-1.8s1.1-.9,1.8-1.1c.7-.3,1.6-.4,2.5-.4.6,0,1.2.1,1.7.2.6.1,1.1.3,1.6.5l-.8,1.9c-.3-.2-.7-.3-1.2-.4-.4-.1-.9-.2-1.4-.2s-1,.1-1.4.3-.8.4-1.1.8c-.3.3-.5.7-.7,1.2s-.2,1-.2,1.6.1,1.1.2,1.5c.1.5.3.8.5,1.2.2.3.5.6.9.8s.8.3,1.3.3h.9c.3,0,.4-.1.6-.1v-2.3h-2.1v-2.2h0Z"/><path class="cls-1" d="m179.4,100.801c0,.9-.1,1.8-.4,2.5-.3.7-.6,1.3-1.1,1.8s-1.1.8-1.8,1.1c-.7.2-1.5.4-2.4.4h-2.9v-11.2h3.3c.8,0,1.6.1,2.2.4.7.2,1.2.6,1.7,1,.5.5.8,1,1.1,1.7.2.6.3,1.4.3,2.3h0Zm-2.4,0c0-.6-.1-1.2-.2-1.6-.1-.4-.3-.8-.5-1.1s-.5-.5-.9-.7c-.3-.1-.7-.2-1.2-.2h-1.1v7.3h.9c1,0,1.7-.3,2.2-.9s.8-1.5.8-2.8Z"/><path class="cls-1" d="m188.1,106.501h-6.4v-11.2h6.4v1.9h-4.1v2.5h3.8v1.9h-3.8v2.9h4.1v2h0Z"/><path class="cls-1" d="m196.6,103.401c0,.5-.1.9-.3,1.3s-.4.7-.7,1-.7.5-1.2.7-1,.2-1.6.2c-.5,0-1.1-.1-1.6-.2-.5-.1-1-.3-1.4-.5v-2.2c.2.1.5.2.7.3.3.1.5.2.8.3s.5.2.8.2c.3.1.5.1.8.1s.5,0,.7-.1.3-.1.4-.2.2-.2.3-.4c.1-.1.1-.3.1-.5s0-.4-.1-.6c-.1-.2-.2-.3-.4-.4-.2-.1-.4-.3-.6-.4-.2-.1-.5-.3-.8-.4-.2-.1-.5-.3-.8-.4-.3-.2-.6-.4-.8-.6-.3-.3-.5-.6-.6-.9-.2-.4-.3-.8-.3-1.3s.1-.9.3-1.3c.2-.4.4-.7.7-1s.7-.5,1.1-.6c.4-.1.9-.2,1.5-.2.3,0,.5,0,.8.1.3,0,.5.1.8.2.3.1.5.1.8.2.3.1.5.2.8.3l-.8,1.8c-.2-.1-.4-.2-.6-.3-.2-.1-.4-.2-.6-.2s-.4-.1-.6-.1h-.5c-.4,0-.7.1-.9.3s-.3.5-.3.8c0,.2,0,.4.1.5s.2.3.3.4c.1.1.3.3.5.4.2.1.5.3.8.4.4.2.7.4,1.1.6.3.2.6.4.8.7s.4.5.5.9,0,.6,0,1.1h0Z"/><path class="cls-1" d="m202.9,106.501h-5.1v-1.3l1.4-.6v-7.2l-1.4-.6v-1.3h5.1v1.3l-1.4.6v7.2l1.4.6v1.3Z"/><path class="cls-1" d="m208.9,100.201h4.4v5.8c-.3.1-.6.2-.9.3-.3.1-.6.1-.9.2-.3.1-.7.1-1,.1h-1.1c-.8,0-1.6-.1-2.2-.4-.6-.3-1.2-.6-1.6-1.1-.4-.5-.8-1.1-1-1.8s-.3-1.5-.3-2.5c0-.9.1-1.7.4-2.4.3-.7.6-1.3,1.1-1.8s1.1-.9,1.8-1.1c.7-.3,1.6-.4,2.5-.4.6,0,1.2.1,1.7.2.6.1,1.1.3,1.6.5l-.8,1.9c-.3-.2-.7-.3-1.2-.4-.4-.1-.9-.2-1.4-.2s-1,.1-1.4.3-.8.4-1.1.8c-.3.3-.5.7-.7,1.2s-.2,1-.2,1.6.1,1.1.2,1.5c.1.5.3.8.5,1.2.2.3.5.6.9.8s.8.3,1.3.3h.9c.2,0,.4-.1.6-.1v-2.3h-2.1v-2.2h0Z"/><path class="cls-1" d="m225.4,106.501h-3l-4.4-8.5h-.1c0,.4.1.8.1,1.2,0,.3,0,.7.1,1v6.3h-2.1v-11.2h3l4.4,8.4h0c0-.4,0-.8-.1-1.2v-7.2h2.1v11.2h0Z"/></svg>