<?xml version="1.0" encoding="utf-8"?>
<!-- Generator: Adobe Illustrator 27.7.0, SVG Export Plug-In . SVG Version: 6.00 Build 0)  -->
<svg version="1.1" id="Layer_1" xmlns="http://www.w3.org/2000/svg" xmlns:xlink="http://www.w3.org/1999/xlink" x="0px" y="0px"
	 viewBox="0 0 628 243" style="enable-background:new 0 0 628 243;" xml:space="preserve">
<style type="text/css">
	.st0{fill:#A0A0A0;}
</style>
<g id="kaqCvh.tif">
	<g>
		<path class="st0" d="M114.1,80.9c-0.4,0.3-0.8,0-1.2,0.3c1.2,0.3,2.2,0.4,3.4,0.7c5.2,1.1,10.2,3.1,14.6,6
			c6.4,4.2,11.4,10.1,14.6,16.9c0.3,0.4,0.7,0.8,0.4,1.2c-0.3,0.3-0.8,0.3-1.2,0.3s-0.8,0.3-1.1,0.3c-0.4,0-0.7-0.3-0.8-0.7
			c-0.8-1.5-1.6-3.1-2.4-4.2c-3.1-4.6-7-8.6-11.8-11.7c-3.1-1.8-6.2-3.4-9.5-4.4c-2.7-0.8-5.2-1.1-7.9-1.2
			c-4.2-0.3-8.3,0.3-12.4,1.2c-3.6,1.1-7,2.4-10.2,4.6c-2.7,1.2-4.8,3.1-6.8,5c-2.2,2.4-4.2,4.8-5.8,7.6c-0.7,1.1-1.2,2-1.6,3.1
			c-0.3,0.4-0.4,0.7-1.1,0.7c-0.7-0.3-1.2-0.3-1.6-0.3s-0.4-0.3-0.3-0.7c1.6-3.8,3.8-7.4,6.6-10.6c2.2-2.4,4.6-4.6,7.2-6.6
			c3.8-2.7,7.9-4.6,12.4-5.8c1.6-0.4,3.2-0.8,5-1.2c0.3,0,0.4-0.3,0.4-0.4L114.1,80.9L114.1,80.9z"/>
		<path class="st0" d="M560.1,109c-0.7,0-1.1,0.3-1.6,0.3c-0.8,0-1.2-0.3-1.2-1.1c-0.3-1.5-0.3-2.8-0.3-4.2
			c-0.3,0.3-0.3,0.4-0.4,0.4c-0.3,0.7-0.7,1.5-0.8,2c-0.3,0.4-0.4,0.7-1.1,0.7c-1.1,0-1.2-0.3-1.6-1.1c-0.3-0.7-0.4-1.2-0.7-1.8
			c-0.3,0.3-0.3,0.4-0.3,0.7c0,1.2-0.3,2.2-0.3,3.4c0,0.7-0.3,0.8-0.8,0.8c-0.4,0-1.1-0.3-1.6-0.3c-0.4,0-0.3-0.3-0.3-0.4
			c0-1.2,0-2.2,0.3-3.4c0.3-1.8,0.3-3.6,0.3-5.4c0-1.2,0-1.5,1.5-1.2c1.8,0,1.5-0.4,2.2,1.6c0.4,1.1,0.8,2,1.1,2.8
			c0,0.3,0,0.4,0.4,0.4c0.4-0.8,0.8-1.8,1.1-2.7c0.3-0.7,0.4-1.2,0.7-1.8c0.3-0.4,0.4-0.4,0.7-0.4h1.6c0.4,0,0.7,0.3,0.7,0.7
			c0,1.8,0.3,3.4,0.3,5.2c0,0.3,0,0.4,0.3,0.7c0.3-0.7,0-1.2,0.3-1.6L560.1,109L560.1,109L560.1,109z"/>
		<path class="st0" d="M67.5,107.8c0.3-0.3,0.4-0.3,0.4-0.3c3.1,0.7,6.2,0.8,9.4,1.6c3.6,0.8,7.2,1.8,10.9,3.1
			c2.8,1.1,5.6,2.2,8.3,3.8c1.2,0.8,2.4,1.6,3.6,2.2c0.4,0.3,0.7,0.2,0.8-0.3c1.1-4,2-7.8,2.7-11.8c0.3-1.6,0.7-3.2,0.8-4.8
			c0,0,0-0.3,0.3-0.4c0.3,0.8,0.4,1.6,0.4,2.4c0.4,2.4,0.4,4.8,0.4,7.2c0,3.6-0.4,7-1.2,10.5c-0.3,0.7,0,1.2,0.4,1.6
			c2,2.4,3.2,5,4,8c0,0.3,0.3,0.4,0.3,0.7h0.3c0.3-1.1,0.4-2.2,0.8-3.2c0.8-2.4,2-4.4,3.6-6.2c0.3-0.4,0.4-0.7,0.3-1.2
			c-0.7-2.8-1.1-5.4-1.2-8.2c-0.3-3.2,0-6.6,0.4-9.8c0-0.7,0.3-1.2,0.4-1.8c0-0.2,0.1-0.3,0.3-0.3c0.3,0,0.3,0.3,0.3,0.4
			c0,1.2,0.3,2.2,0.4,3.4c0.7,4.4,1.6,8.6,2.8,13c0.2,0.7,0.5,0.8,1.1,0.4c3.4-2.4,7-4.2,11-5.6c4-1.5,7.9-2.7,12.2-3.4
			c2.6-0.7,5.2-0.8,7.9-1.2c0.4,0,0.8-0.3,1.5-0.4c-0.7,0.7-1.2,0.8-1.6,0.8c-5.6,1.6-11.3,3.6-16.6,6.2c-4,2-7.6,4.4-10.9,7.4
			c-0.7,0.7-1.5,1.2-2,2c-0.3,0.3-0.3,0.4,0,0.8c0.8,1.6,1.5,3.2,2.2,4.8c1.8,3.2,3.8,6.2,6.4,8.6c2.6,2.4,5.6,4.2,9,5.2
			c0.8,0.3,1.6,0.3,2.4,0.4c0.4,0,0.7,0,0.8-0.4c1.6-2.8,3.4-5.6,4.4-8.7c1.1-3.1,1.9-6,2-9.1c0.3-2.8,0.3-5.4-0.3-8.2
			c-0.3-2-0.8-4-1.2-6c-0.3-0.7-0.3-0.8,0.7-1.1c0.7-0.3,1.1-0.3,1.6-0.4c0.4-0.3,0.7,0,0.7,0.4c0.8,3.4,1.6,6.8,1.6,10.5
			c0.3,4.6-0.4,9-1.9,13.4c-1.6,5-4,9.5-7.4,13.6c-2.2,2.6-4.4,5-7.1,7c-5,3.6-10.6,6-16.8,7.1c-3.4,0.7-6.8,0.7-10.2,0.7
			c-3.6-0.3-7.2-1.1-10.6-2c-2.2-0.7-4.4-1.9-6.4-3.1c-3.2-1.9-6.2-3.8-8.6-6.4c-2.8-2.8-5-6-7-9.4c-1.8-3.1-3.1-6.2-3.8-9.5
			c-0.7-2.6-1.1-5.4-1.2-8.2c-0.3-4.2,0.4-8.3,1.5-12.6c0.3-0.4,0.4-0.7,0.8-0.4c0.4,0.3,1.1,0.4,1.5,0.4c0.7,0.3,0.8,0.3,0.7,1.1
			c-0.4,1.5-0.7,2.8-0.8,4c-0.7,3.2-0.7,6.6-0.3,9.8c0.4,4.6,1.8,8.7,4,13c0.8,1.9,2,3.4,3.1,5c0.3,0.4,0.7,0.3,0.8,0.3
			c2.7-0.3,4.8-1.2,7-2.6c2.8-1.9,5.2-4.2,7.2-6.8c1.8-2.6,3.4-5.4,4.8-8.3c0.3-0.4,0.3-0.8,0.4-1.2c0-0.3,0-0.4-0.3-0.4
			c-2.7-3.1-5.8-5.6-9.1-7.6c-3.4-2-6.8-3.6-10.6-5.2c-3.1-1.2-6.2-2.2-9.4-3.2C68.7,108.2,68.2,107.9,67.5,107.8L67.5,107.8
			L67.5,107.8z M108.7,137.2v0.4c-0.3,1.5-0.4,2.8-0.8,4.2c-0.8,3.2-2.4,6-3.8,8.7c-0.3,0.4-0.7,0.4-1.1,0.4c-1.1,0-1.8,0-2.7,0.3
			c-1.8,0.3-3.6,0.4-5.4,0.4c-0.3,0-0.4,0-0.4-0.3s0-0.3,0.3-0.4c1.1-0.8,1.8-2,2.7-3.1c3.4-4.4,5.6-9.4,5-15.2
			c-0.3-1.1-0.4-2-0.8-3.1c-0.3,0-0.3,0.3-0.3,0.3c-1.1,1.9-1.8,3.8-3.1,5.6c-2.2,3.6-5.2,6.8-8.3,9.5c-1.8,1.6-3.8,2.8-5.8,4
			c-0.4,0.3-0.4,0.4,0,0.7c2.7,2.4,5.6,4.2,8.7,5.6c4.8,2.2,10.1,3.4,15.2,3.4c2.2,0,4.6,0,6.8-0.4c3.4-0.7,6.6-1.6,9.5-3.1
			c3.4-1.6,6.4-3.6,9.1-6c0.3-0.3,0.3-0.5,0-0.8c-0.3-0.3-0.7-0.4-0.8-0.7c-5.8-3.4-10.5-7.9-14-13.6c-1.1-1.6-2-3.2-2.8-5
			c0-0.3,0-0.4-0.3-0.4s-0.3,0.3-0.3,0.4c-0.4,1.2-0.7,2.4-0.8,3.8c-0.3,3.2,0.7,6.4,2,9.1c1.5,2.8,3.2,5.4,5.6,7.6
			c0,0,0.4,0.3,0.3,0.4c0,0.3-0.3,0-0.4,0c-2.7-0.3-5.2-0.3-7.8-0.7c-0.4,0-0.8-0.3-1.1-0.7c-2-3.4-3.6-7-4.4-11
			C108.9,138.1,108.9,137.6,108.7,137.2L108.7,137.2L108.7,137.2z"/>
		<path class="st0" d="M464.4,117.6c0.8-1.1,1.5-2,2.4-2.8c2.2-1.5,4.4-2.2,7-1.8c0.8,0,1.6,0.3,2.4,0.4c2.6,0.8,4.6,2,5.8,4.6
			c0,0.2,0.1,0.3,0.3,0.3c0.3,0,0.3-0.3,0.3-0.4c2.4-4,6.2-5.6,10.9-4.8c2,0.3,3.8,1.1,5.2,2.2c0.8,0.8,1.5,1.8,1.9,3.1
			c0.7,1.8,1.1,3.6,1.1,5.4v20.3c0,0.4-0.3,0.7-0.7,0.7c-1.1,0-1.9,0.3-2.8,0.3c-1.5,0.3-2.8-0.3-4.2-0.3c-0.8-0.2-1.2-0.6-1.2-1.2
			v-16.9c0-1.1-0.3-2-0.4-3.1c-0.7-2.4-2.2-3.1-4.4-2.8c-2.6,0.4-4.2,2.2-4.6,5c-0.3,0.8-0.3,1.8-0.3,2.6v15.6
			c0,0.5-0.3,0.8-0.8,0.8c-0.8,0-1.9,0.3-2.6,0.3c-1.5,0.3-2.8-0.3-4.2-0.3c-0.7-0.2-1.1-0.6-1.1-1.2v-15.4c0-1.5,0-3.1-0.4-4.4
			c-0.7-2.7-2-3.4-4.6-3.1c-2.6,0.4-4,2-4.4,4.8c-0.3,1.1-0.3,2.2-0.3,3.2v15c0,0.7-0.3,1.1-0.8,1.1c-2.4,0.4-4.8,0.4-7.4,0
			c-0.3,0-0.4-0.3-0.4-0.4v-29.4c0-1.2,0-1.1,1.2-1.2c1.9-0.3,3.4-0.3,5.2,0c0.7,0,1.1,0.4,1.2,1.1c0.3,0.8,0.4,1.8,0.4,2.7
			C464.1,117.2,464.1,117.3,464.4,117.6L464.4,117.6L464.4,117.6z"/>
		<path class="st0" d="M305.3,101.2c1.5,0,2.8,0,4.4,0.3c0.4,0,0.8,0.3,0.8,0.8c1.2,3.6,2.2,7.2,3.4,10.9c1.2,4,2.6,7.9,3.8,12.1
			c2,6.4,4,12.6,6,18.9c0.2,0.5,0,0.8-0.7,0.8c-0.8,0-1.6,0-2.4,0.3c-1.5,0.3-2.6,0-4,0c-0.4,0-0.8-0.3-1.5-0.3s-0.8-0.3-1.1-0.8
			c-0.7-2.4-1.5-4.8-2-7.1c-0.3-0.4-0.4-0.7-0.8-0.7H299c-1.5-0.3-1.2,0-1.5,1.1c-0.7,2.4-1.5,4.6-2,7c0,0.3-0.3,0.4-0.7,0.7
			c-1.1,0-2,0.3-3,0.4s-2.2,0-3.2-0.3c-0.4,0-0.8,0-1.5-0.3c-0.7,0-0.8-0.3-0.7-0.8c0.4-1.1,0.7-2.2,1.1-3.2
			c1.1-2.8,1.9-5.8,2.8-8.6c1.5-4,2.6-8.2,3.8-12.2c1.5-4.2,2.6-8.6,4-12.8c0.7-1.6,1.1-3.2,1.6-4.8c0.3-0.4,0.4-0.7,0.8-0.7
			C302.3,100.9,303.7,100.9,305.3,101.2L305.3,101.2z M305.1,110.7c-0.4,0.4-0.4,0.8-0.4,1.2c-1.6,5.2-3,10.6-4.6,15.8
			c-0.3,0.7-0.3,0.8,0.4,0.8h8.7c0.4,0,0.7-0.3,0.4-0.7c-1.5-5.2-3-10.5-4.4-15.8C305.3,111.8,305.3,111.4,305.1,110.7L305.1,110.7
			L305.1,110.7z"/>
		<path class="st0" d="M414.3,122v20.7c0,0.7-0.3,0.8-0.8,1.1c-2.2,0.7-4.4,1.1-6.6,1.2c-4,0.4-8,0.4-12-0.8
			c-3.4-1.1-5.8-3.4-7.5-6.6c-1.1-1.9-1.6-4-1.9-6c-0.4-3.6,0.3-7.2,1.9-10.5c1.9-3.8,4.8-6.2,8.7-7.4c2.8-0.8,5.4-1.1,8.2-0.7
			c0.3,0,0.7,0,0.8,0.3c0.4,0.3,0.7,0,0.7-0.4v-11.4c0-0.7,0.3-0.8,0.7-0.8c2.4-0.3,4.8-0.3,7.4,0c0.4,0,0.7,0.3,0.7,0.7v19.6
			C414.3,121.2,414.3,121.6,414.3,122L414.3,122L414.3,122z M406,128.7v-7.9c0-0.7-0.3-0.8-0.8-1.1c-1.1-0.3-2.2-0.3-3.2-0.3
			c-2.6,0-5.6,2-6.4,4.4c-0.7,1.6-0.8,3.1-1.1,4.6c-0.3,2.2,0.3,4.4,1.5,6.4c0.8,1.2,1.9,2,3.2,2.4c2,0.7,4.2,0.7,6.2,0.3
			c0.7,0,0.8-0.4,0.8-0.8C405.7,134.1,406,131.5,406,128.7L406,128.7L406,128.7z"/>
		<path class="st0" d="M520.9,140c0.3-0.8,0.4-1.6,0.7-2.2c0.8-2.8,1.6-5.8,2.4-8.6c0.8-3.1,1.6-6,2.4-9c0.7-2,1.2-4,1.6-6.2
			c0.3-0.4,0.4-0.7,0.8-0.7c2.4-0.3,5-0.4,7.5,0c0.4,0,0.7,0.3,0.4,0.8c-1.2,4-2.4,8.2-3.8,12.2c-1.8,6-3.6,11.8-5.4,17.6
			c-1.1,3.1-1.8,6-2.8,9c-0.7,1.9-1.6,3.2-3,4.4c-1.2,1.1-2.7,1.5-4.2,1.9c-2.4,0.4-5,0.3-7.4-0.4c-0.8-0.3-1.1-0.3-0.8-1.2
			c0-1.6,0.4-3.1,0.8-4.6c0.3-0.8,0.3-0.7,1.1-0.7c1.2,0.3,2.6,0.4,3.8,0.3c1.6-0.3,2.4-1.2,3.2-2.6c0.8-1.6,1.2-3.6,1.6-5.2
			c0.3-0.4-0.3-0.4-0.4-0.4h-3.8c-0.7,0-1.1-0.3-1.2-0.8c-2.2-7.1-4.2-14.2-6.4-21.4c-0.8-2.7-1.6-5.2-2.2-7.8
			c-0.2-0.5,0-0.9,0.7-1.1c2.4-0.4,5-0.3,7.6,0c0.7,0,1.1,0.3,1.1,1.1c2,8.2,4,16.6,5.8,24.8C520.5,139.3,520.8,139.6,520.9,140
			C520.8,140,520.9,140,520.9,140L520.9,140L520.9,140z"/>
		<path class="st0" d="M174.4,122.4c0,2.8,0.3,5.4,1.1,7.9c1.1,2.8,2.6,5,5.6,6.2c2,0.8,4,1.2,6.2,1.1c1.5,0,2.8-0.3,4-0.4
			c1.1-0.3,1.9-0.4,2.6-0.8c0.4-0.3,0.7,0,0.8,0.3c0.8,2,1.5,4,1.9,6c0,0.4-0.3,0.7-0.4,0.7c-2,0.8-4,1.2-6,1.5
			c-2,0.3-4.2,0.4-6.4,0.3c-5-0.4-9.4-2-13-5.8c-3.1-3.1-4.4-6.6-5.2-10.9c-0.4-2.2-0.7-4.2-0.7-6.4c0.3-4.6,1.2-8.7,3.6-12.8
			c2.2-3.4,5-5.8,8.7-7.4c3.2-1.2,6.6-1.6,10.2-1.5c2.8,0.3,5.4,0.8,7.9,1.6c0.4,0.3,0.7,0.4,0.4,0.8c-0.3,1.8-0.8,3.4-1.5,5.2v0.3
			c-0.3,0.8-0.8,1.1-1.6,0.8c-2.4-0.8-5-1.1-7.4-0.8c-1.9,0.3-3.6,0.7-5,1.5c-2,1.1-3.2,2.8-4.2,4.8
			C174.7,117.2,174.3,119.7,174.4,122.4L174.4,122.4L174.4,122.4z"/>
		<path class="st0" d="M439.3,131.5h-9.1c-0.5,0-0.7,0.3-0.7,0.8c0.4,3.1,2.2,5,5.4,5.6c2.6,0.7,5.2,0.4,8-0.3
			c1.1-0.3,1.9-0.4,2.8-0.8c0.4-0.3,0.7,0,0.8,0.4c0.8,1.9,1.2,3.4,1.5,5.4c0,0.7-0.3,0.8-0.7,1.1c-2,0.8-4.2,1.2-6.2,1.5
			c-3,0.3-6,0.3-9-0.4c-4-1.1-7-3.1-9-6.8c-1.2-2.4-1.9-4.8-1.9-7.4c-0.3-3.2,0.4-6.4,1.6-9.4c1.6-3.6,4.2-6,8-7.2
			c1.6-0.4,3.2-0.8,4.6-0.8c4.4,0,8.3,1.2,11.3,4.8c1.5,1.8,2.2,3.8,2.6,6c0.4,2.4,0.7,4.8,0.3,7.4c0,0.4-0.3,0.7-0.8,0.7
			C445.6,131.5,442.4,131.5,439.3,131.5L439.3,131.5L439.3,131.5z M435.5,125.5h4.8c0.8,0,1.1-0.4,1.1-1.2c-0.3-1.5-0.8-2.8-1.9-3.8
			c-1.2-1.1-2.6-1.5-4.2-1.2c-2.2,0.3-4,1.2-4.8,3.2c-0.4,0.8-0.7,1.5-0.7,2.2c-0.3,0.7,0,0.7,0.7,0.8
			C431.9,125.5,433.8,125.5,435.5,125.5L435.5,125.5z"/>
		<path class="st0" d="M273.5,131.5h-9.4c-0.3,0-0.4,0.1-0.4,0.4c0.3,2,0.8,3.6,2.6,4.8c1.9,1.1,3.6,1.6,5.6,1.6
			c2.8,0,5.4-0.4,8-1.2c0.4-0.3,0.7,0,0.7,0.3c0.8,1.9,1.5,3.6,1.5,5.6c0,0.4-0.3,0.7-0.4,0.7c-2.6,0.8-5.4,1.5-8.2,1.6
			c-2.4,0.3-4.6,0-7-0.7c-6-1.5-9.5-5.2-10.9-11.4c-0.3-1.2-0.4-2.4-0.4-3.6c0-4.6,1.1-9,4.2-12.6c2.2-2.4,5-3.6,8-4
			c2.4-0.4,4.8-0.3,7.1,0.4c3.2,1.1,5.8,3.1,7.4,6c1.6,3.1,2.2,6,1.9,9.1c0,0.7-0.3,1.5-0.3,2c0,0.8-0.3,0.8-0.8,0.8
			C279.8,131.5,276.5,131.5,273.5,131.5L273.5,131.5L273.5,131.5z M269.6,125.5h5.4c0.4,0,0.7,0,0.7-0.4c-0.3-1.5-0.7-2.8-1.6-4
			c-1.2-1.5-2.6-1.8-4.4-1.6c-1.9,0-3.4,0.8-4.4,2.2c-0.8,1.1-1.1,2.2-1.5,3.4c-0.3,0.4,0,0.7,0.7,0.7
			C266.1,125.5,267.7,125.5,269.6,125.5L269.6,125.5L269.6,125.5z"/>
		<path class="st0" d="M379.9,134.1v8.2c0,0.7-0.3,0.8-0.8,1.1c-2.8,0.8-5.8,1.5-8.7,1.6c-1.6,0-3.2,0.4-4.8,0
			c-2.2-0.3-4.4-0.4-6.4-1.6c-3-1.9-4.8-4.4-4.8-7.8c0-1.9,0-3.6,1.1-5.2c1.5-2.8,3.8-4.2,6.6-5c3-0.8,6.2-1.1,9.1-0.8
			c0.4,0,0.7-0.3,0.7-0.7c0-2.7-1.9-4.4-4.4-4.6c-2.8-0.3-5.6,0.3-8.3,1.1c-0.7,0.3-0.8,0.3-1.1-0.4c-0.8-1.6-1.5-3.2-1.5-5.2
			c0-0.4,0.3-0.7,0.7-0.8c1.9-0.4,3.6-1.1,5.4-1.2c4-0.4,8-0.4,11.8,1.2c2.6,1.2,4.4,3.2,5.2,6c0.7,2,0.8,4,0.8,6.2
			C379.9,129,379.9,131.5,379.9,134.1L379.9,134.1L379.9,134.1z M371.5,134.1L371.5,134.1v-3.4c0-0.4-0.3-0.7-0.7-0.7
			c-1.6-0.3-3.2-0.3-4.8,0c-2.4,0.4-4.2,2-3.8,4.8c0.3,1.6,1.6,3.1,3.4,3.2c1.9,0.3,3.6,0.3,5.4,0c0.4,0,0.7-0.3,0.7-0.7
			C371.5,136.4,371.5,135.1,371.5,134.1L371.5,134.1L371.5,134.1z"/>
		<path class="st0" d="M226.1,133.9v8.3c0,0.7-0.3,0.8-0.7,1.1c-3.4,1.1-6.8,1.5-10.2,1.6c-2.6,0.3-5.4,0-7.9-0.8
			c-3.6-1.2-6.4-4-6.8-8.2c-0.3-1.5,0-2.8,0.4-4.2c0.4-1.6,1.5-2.8,2.4-3.8c2-1.8,4.2-2.8,6.8-3.1c2.4-0.4,4.6-0.4,7-0.3
			c0.7,0,0.8,0,0.7-0.8c0-1.5-0.7-2.7-1.9-3.4c-0.4-0.4-1.1-0.7-1.6-0.8c-2.6-0.7-5-0.3-7.6,0.3c-0.7,0.3-1.5,0.3-2,0.7
			c-0.4,0.3-0.7,0-0.8-0.4c-0.8-1.6-1.5-3.2-1.5-5.2c0-0.4,0.3-0.8,0.7-1.1c3.6-1.1,7.1-1.6,10.9-1.5c3.2,0.3,6,1.1,8.6,3.1
			c1.5,1.2,2.2,2.8,2.8,4.4c0.7,1.8,0.8,3.8,0.8,5.6C226.1,128.6,226.1,131.4,226.1,133.9L226.1,133.9L226.1,133.9z M217.7,134.1
			L217.7,134.1V131c0-0.7-0.3-0.7-0.7-0.8c-1.9-0.4-3.4-0.3-5.2,0.3c-1.2,0.3-2,0.8-2.8,1.6c-1.9,2.2-0.7,5.4,2.2,6.2
			c1.9,0.4,3.8,0.4,5.8,0c0.4,0,0.7-0.3,0.7-0.8C217.7,136.4,217.7,135.1,217.7,134.1L217.7,134.1L217.7,134.1z"/>
		<path class="st0" d="M341.9,145.1c-3.6,0-6.6-0.4-9.1-2c-2.2-1.2-3.6-3.2-4.8-5.4s-1.9-4.4-1.9-7c-0.3-2.6,0-5.2,0.8-7.6
			c1.5-4.8,4.4-7.9,9.1-9.5c1.5-0.4,2.8-0.7,4.4-0.7c3.2-0.3,6.2,0.3,9.1,1.5c0.4,0.3,0.4,0.4,0.4,0.7c-0.3,1.8-0.7,3.8-1.2,5.4
			c-0.3,0.4-0.4,0.7-0.8,0.4c-2.4-1.1-5-1.2-7.4-0.8c-2.8,0.7-4.6,2.7-5.2,5.4c-0.7,2.4-0.7,5,0,7.4c0.7,3.2,3.2,5.2,6.4,5.4
			c1.1,0,2.2,0.3,3.2,0c1.1-0.3,2.2-0.4,3.2-0.8c0.4-0.2,0.8,0,1.1,0.4c0.8,1.6,1.2,3.4,1.5,5.2c0,0.4-0.3,0.8-0.7,0.8
			C346.9,144.5,344.3,145.3,341.9,145.1L341.9,145.1L341.9,145.1z"/>
		<path class="st0" d="M233.6,129v-14.6c0-0.7,0.4-1.1,1.1-1.1c1.9-0.3,3.4-0.3,5.2,0c0.7,0.3,1.1,0.4,1.2,1.2
			c0.3,0.8,0.4,1.8,0.4,2.7c0,0.3,0,0.4,0.3,0.4s0.4-0.3,0.4-0.4c1.2-1.6,2.6-2.8,4.2-3.6c1.9-0.8,3.6-0.8,5.4-0.7
			c0.4,0,0.7,0.3,0.7,0.7c0.3,2,0.3,4.2-0.3,6.2c0,0.4-0.3,0.7-0.8,0.7c-1.5,0-2.8,0-4.2,0.3c-2.2,0.4-3.4,1.8-4.2,3.8
			c-0.7,1.5-0.8,3.1-0.8,4.6v14.4c0,0.5-0.3,0.8-0.8,0.8c-2.4,0.3-4.8,0.3-7.1,0c-0.7,0-0.8-0.3-0.8-0.8
			C233.6,138.8,233.6,133.7,233.6,129L233.6,129L233.6,129z"/>
		<path class="st0" d="M124.6,111.5c-3.1,0-5.6-2.7-5.6-5.8c0-2.8,2.8-5.4,5.6-5.4c3.1,0,5.6,2.7,5.6,5.6
			C129.9,109,127.4,111.5,124.6,111.5L124.6,111.5z"/>
		<path class="st0" d="M92.9,111.5c-2.8,0-5.4-2.7-5.4-5.6s2.7-5.4,5.6-5.4s5.6,2.7,5.6,5.4C98.5,109,96,111.5,92.9,111.5z"/>
		<path class="st0" d="M546.1,104.9v3.4c0,0.4-0.3,0.7-0.7,0.8c-0.7,0.3-1.2,0-1.8-0.3c-0.3,0-0.3-0.3-0.3-0.4v-6.8
			c0-0.7,0-0.8-0.8-0.8h-1.5c-0.4,0-0.4-0.3-0.4-0.4V99c0-0.5,0.3-0.8,0.8-0.8h6.4c0.4,0,0.7,0.3,0.8,0.7v1.5c0,0.4-0.3,0.7-0.7,0.7
			h-1.5c-0.4,0-0.7,0-0.7,0.7C546.1,102.8,546.1,103.7,546.1,104.9C546.1,104.9,546.1,104.9,546.1,104.9z"/>
	</g>
</g>
</svg>
