<?xml version="1.0" encoding="utf-8"?>
<!-- Generator: Adobe Illustrator 27.7.0, SVG Export Plug-In . SVG Version: 6.00 Build 0)  -->
<svg version="1.1" id="Layer_1" xmlns="http://www.w3.org/2000/svg" xmlns:xlink="http://www.w3.org/1999/xlink" x="0px" y="0px"
	 viewBox="0 0 493.5 243" style="enable-background:new 0 0 493.5 243;" xml:space="preserve">
<style type="text/css">
	.st0{fill:#A0A0A0;}
</style>
<g id="_50jLTs.tif">
	<g>
		<path class="st0" d="M426.5,126.5c-0.4,0.6-1,0.6-1.6,0.2c-0.4-0.2-0.8-0.2-1.2-0.2c-1.4-0.4-2.4,0-3.4,1c-1,1-1.8,2-2.6,3
			c-0.2,0.4-0.4,0.8-0.4,1.4v13.5c0,1.4-0.2,1.6-1.6,1.6h-2c-0.4,0-0.8-0.4-0.8-0.8v-22.2c0-1.2,0.2-1.4,1.4-1.4
			c0.6,0,1.2,0,1.8,0.2c0.4,0.2,0.8,0.4,0.8,1v2.2c0,0.2,0,0.4,0.2,0.4s0.2-0.2,0.4-0.2c0.8-1,1.6-2,2.8-2.8
			c1.8-1.2,3.6-1.2,5.6-0.4c0.4,0.2,0.6,0.6,1,0.8C426.5,123.5,426.5,126.7,426.5,126.5L426.5,126.5z"/>
		<path class="st0" d="M117.6,137.2c0.2-0.4,0.8-0.4,1-0.6c2.6-0.8,4.6-2.2,6.4-4c4.4-4.2,7-9.3,8.2-15.3c0.2-1.4,0.4-2.6,0.4-4
			c0-0.2,0-0.6-0.2-0.8h0.2c2.2,3.6,3.6,7.3,4.2,11.3c0.8,5.2,0.2,10.1-1.2,15.1c-1.6,5.2-4.2,9.5-7.8,13.5
			c-3.8,4.2-8.4,7.1-13.6,9.1c-3.6,1.4-7.2,2.2-11,2.4c-5.8,0.4-11.2-0.6-16.3-3c-4.8-2-8.8-5-12.4-8.9c-4.2-4.6-7-9.9-8.4-16.1
			c-0.4-2.8-0.6-5.6-0.6-8.3c0.2-4.8,1.2-9.3,3.2-13.7c1.4-3,3.2-6,5.4-8.3c3.2-3.8,7.2-6.8,11.6-8.9c1.4-0.8,3-1.4,4.6-1.8
			c0.6-0.2,0.6-0.4,0.4-0.8c-2.2-3.6-3.2-7.6-3-11.7c0-1,0.2-2,0.4-3c0-0.2,0-0.6,0.4-0.6c0.2,0,0.4,0.2,0.4,0.4
			c2,2.8,4.2,5.4,7,7.3c2.4,1.8,5,3,8,3.6c0.6,0,1,0.4,1.4,0.6c2.2,2.2,4.4,4.4,7.2,6c2,1.2,4,2.2,6.4,2.6c1.2,0.2,2.6,0.2,3.8-0.2
			c0.4-0.2,0.6,0,0.4,0.4c-1,3.2-2.6,6.2-5.6,8.1c0,0-0.2,0.2-0.4,0.2c-0.2,0.2-0.4,0.2-0.6,0.2c-0.2-0.2,0-0.4,0-0.6
			c0.2-1,0.4-1.8,0.2-2.8c0-0.2,0-0.4-0.2-0.4s-0.2,0.2-0.4,0.2c-1,1-2.2,1.6-3.4,2c-0.1,0-0.3,0.1-0.4,0.2c-0.2,0-0.4,0.2-0.6,0
			s0-0.4,0.2-0.6c0.6-0.6,0.8-1.2,1-2c0-0.2,0.2-0.4,0-0.6s-0.4,0.2-0.4,0.2c-1,1-2.2,1.4-3.6,1.8c-0.2,0-0.4,0.2-0.4,0
			s0.2-0.2,0.2-0.4c0.8-0.6,1-1.4,0.8-2.4c0-0.2,0-0.4-0.4-0.4c-2.2,0.2-4.2,0.6-6.2,1.6c-0.2,0-0.4,0.2-0.4,0.4s0.4,0.2,0.4,0.2
			c2.2,0.6,4.4,1.6,6.4,3c1.4,1,2.8,0.8,4.2,0.2c0.2,0,0.2-0.2,0.4-0.2h0.2c0,0.6-0.4,1.2-0.8,1.6c-0.6,0.6-0.4,0.8,0.4,1.2
			c1.2,0.4,2.4,0,3.6-0.4c0.4-0.2,1-0.4,1.4-0.6c0.2,0,0.4-0.2,0.4,0c0.2,0.2,0,0.4-0.2,0.4c-2,1.4-4,2.8-6.4,3.4
			c-0.4,0-0.8,0.2-1,0.2c-0.3,0-0.4-0.1-0.4-0.4c0.4-1.2,0-1.8-1-2.4c-2.6-2-5.6-2.8-8.8-3c-4.4-0.2-7.8,1.6-11.2,4
			c-3.2,2.4-5.8,5.2-7.8,8.7c-1.8,3.4-3,6.9-3.2,10.5c-0.4,4.6,0.4,8.9,2.2,13.1c3,6.4,7.6,10.7,13.8,13.5c3,1.4,6,2,9.2,2.2
			c3.4,0.2,6.6-0.2,9.8-1.2c3.4-1,6.4-2.6,9-5c4.4-3.6,7.4-8.1,8.8-13.5c0.2-0.4,0.2-1,0.4-1.4c0-0.4,0-0.8-0.6-0.8
			c-0.8,0-1.6-0.2-2.4-0.2h-9.4C119.6,137,118.8,136.8,117.6,137.2L117.6,137.2L117.6,137.2z"/>
		<path class="st0" d="M343,141c1.4,0,3,0,4.6,0.4c2,0.4,3.8,1.2,5,2.8c1.8,2.4,1.6,6-0.4,8.3c-1.4,1.8-3.6,2.8-5.8,3.4
			c-3.8,1-7.6,0.8-11.4-0.2c-1.2-0.4-2.2-0.8-3-1.6c-2.4-2.2-2.4-5.6-0.4-7.9c0.4-0.4,0.8-1,1.2-1.4c0.2-0.2,0.2-0.4,0-0.6
			c-2-1.6-2.2-4.4-0.8-6.6c0.2-0.6,0.6-1,1-1.4s0.4-0.6,0-1c-2.2-2.6-1.8-7.9,0.8-10.7c1.4-1.4,3.2-2.2,5.2-2.6
			c2.2-0.4,4.6,0,6.8,0.2h6.4c0.8,0,1.4,0.4,1.6,1.2c0.2,1,0.2,2.2,0,3.2c-0.2,0.8-0.6,1-1.4,1h-1c-0.4,0-0.5,0.2-0.4,0.6
			c0.8,2,0.4,4-0.4,5.8c-0.8,2.2-2.6,3.6-4.8,4.2c-2.4,0.8-4.8,1-7.2,0.2c-0.2,0-0.6-0.4-0.8,0c-0.2,0.4-0.4,0.8-0.2,1.4
			c0.2,0.6,0.8,0.8,1.4,1C340.4,141,341.6,141,343,141L343,141L343,141z M341.8,151.5c1.4,0,2.8-0.2,3.8-1c0.8-0.6,1.2-1.4,1-2.4
			s-1-1.2-1.8-1.4h-0.2c-1.8-0.2-3.4,0-5.2-0.2c-0.2,0-0.4,0-0.6,0.2c-0.4,0.4-0.8,0.8-1.2,1.4c-0.8,1.2-0.4,2.4,1,3
			C339.6,151.3,340.8,151.3,341.8,151.5L341.8,151.5L341.8,151.5z M341.6,126.9c-2,0-3.4,1.6-3.4,3.6c0,1.8,1.6,3.2,3.4,3.2
			c2,0,3.6-1.4,3.6-3.6S343.8,126.9,341.6,126.9L341.6,126.9L341.6,126.9z"/>
		<path class="st0" d="M240,137.4v8.1c0,1-0.2,1.4-1.4,1.6c-1.2,0.2-2.4,0.2-3.4,0c-0.8-0.2-1.2-0.4-1.2-1.4c0-0.4-0.2-0.5-0.6-0.2
			c-1.6,1.2-3.2,2-5,2.2c-2,0.2-4,0-5.8-0.8c-2.6-1.2-4-3.4-4.2-6.2c-0.2-2.4,0.4-4.4,2.2-6c1.2-1,2.6-1.8,4.2-2.2
			c2-0.6,3.8-0.6,5.8-0.8h1.8c0.4,0,0.6-0.2,0.6-0.6c0-0.8-0.2-1.6-0.4-2.2c-0.4-1-1.2-1.6-2.2-1.8c-2.4-0.4-4.6,0-6.8,1
			c-0.6,0.2-1.2,0.6-1.6,0.8c-1,0.4-1.6,0.2-2-1c-0.4-1-0.4-1.8-0.2-2.8c0.2-0.8,0.4-1.2,1.2-1.6c1.8-1.2,3.8-1.8,6-2
			c2.2-0.4,4.4-0.2,6.6,0c3.8,0.6,6.4,3.2,6.6,7.2C240,132.1,239.8,135.1,240,137.4L240,137.4z M232.8,138.4v-1
			c0-0.4-0.2-0.6-0.6-0.8c-1.2,0-2.4,0-3.6,0.2c-0.6,0.2-1.4,0.4-2,0.8c-1,0.6-1.4,1.8-1.2,3c0.4,1.2,1.2,2,2.4,2s2.4-0.4,3.4-1
			C232.4,140.8,233.2,139.8,232.8,138.4L232.8,138.4L232.8,138.4z"/>
		<path class="st0" d="M304.5,134.7v-10.7c0-1.2,0.2-1.4,1.4-1.8c1.2-0.2,2.4-0.2,3.4,0s1.4,0.6,1.4,1.8c0,0.4-0.2,0.8,0.2,1
			s0.6-0.2,0.8-0.4c2-1.8,4.2-2.8,7-2.8c3,0,5.6,1.2,7.2,4c0.8,1.4,1.2,3,1.2,4.6c0.2,5.2,0.2,10.3,0.2,15.5c0,1-0.4,1.6-1.4,1.6
			c-1.4,0.2-2.8,0.2-4.4,0c-1.2-0.2-1.4-0.6-1.4-1.8v-12.9c0-1-0.2-2-0.6-2.8c-0.8-1.6-2.4-2.2-3.8-1.6c-1.4,0.6-2.4,1.6-3.4,2.8
			c-0.2,0.2-0.2,0.6-0.2,1v14.1c0,1-0.4,1.2-1.2,1.4c-1.6,0.4-3.2,0.4-4.6,0c-1-0.2-1.4-0.6-1.4-1.8
			C304.7,142,304.7,138.2,304.5,134.7L304.5,134.7L304.5,134.7z"/>
		<path class="st0" d="M206.5,136.6h-6.4c-0.5,0-0.8,0.3-0.8,0.8c0.4,3.4,2.6,4.6,5.6,4.8c2.4,0,4.6-0.4,6.8-1.2
			c1.6-0.6,2.4-0.2,2.4,1.6v1.6c0,1.2-0.6,2-1.6,2.4c-1.4,0.4-2.6,0.8-4,1c-3.2,0.4-6.4,0.6-9.6-0.6c-3.2-1-5.2-3.4-6.2-6.4
			c-1.2-3.8-1.2-7.7,0.2-11.5c1.4-4.2,4.4-6.6,8.6-7.3c2.6-0.4,5-0.4,7.4,0.6c3.2,1.2,5,3.8,5.8,6.9c0.4,1.6,0.4,3.2,0.4,5
			c0,1.6-0.8,2.4-2.4,2.4L206.5,136.6L206.5,136.6z M203.7,131.9h3.8c0.4,0,0.8,0,0.6-0.6c0-1.6-0.6-3-2-4c-1.4-0.8-2.8-0.8-4.2-0.2
			c-1.6,0.8-2.4,2.4-2.6,4c-0.2,0.6,0,0.6,0.6,0.6C201.1,131.9,202.3,131.9,203.7,131.9L203.7,131.9L203.7,131.9z"/>
		<path class="st0" d="M263.7,134.9v-10.7c0-1.2,0.4-1.6,1.6-1.8c1.2-0.2,2.2-0.2,3.4,0c0.8,0.2,1.2,0.6,1.2,1.6v0.8
			c0,0.2,0,0.4,0.2,0.4s0.2-0.2,0.4-0.2c2-1.8,4.2-3.2,7.2-3.2c4.6,0,7.6,2.6,8.4,7.1c0.2,1,0.2,2.2,0.2,3.2v13.7
			c0,1-0.2,1.4-1.4,1.6c-1.4,0.2-3,0.2-4.4,0c-1-0.2-1.4-0.6-1.4-1.6v-12.5c0-1-0.2-1.8-0.4-2.8c-0.8-2.4-3-3-5-1.6
			c-0.8,0.6-1.6,1.4-2.2,2.2c-0.4,0.4-0.4,0.8-0.4,1.2v13.5c0,1-0.4,1.4-1.4,1.6c-1.4,0.2-3,0.2-4.4,0c-1-0.2-1.4-0.6-1.4-1.6
			C263.7,142,263.7,138.4,263.7,134.9L263.7,134.9L263.7,134.9z"/>
		<path class="st0" d="M171.8,130.1v-14.3c0-1.4,0.4-1.8,1.8-2s2.8-0.2,4,0s1.6,0.6,1.6,1.8v24.8c0,0.6,0.2,0.8,0.8,0.8h9
			c1,0,1.6,0.4,1.6,1.4c0.2,1.2,0.2,2.4,0,3.6c-0.2,1-0.6,1.2-1.6,1.2c-4.4,0.2-8.8,0-13.1,0h-2c-1,0-1.8-0.6-2-1.6
			c-0.2-0.6-0.2-1-0.2-1.6C171.8,139.4,171.8,134.7,171.8,130.1L171.8,130.1L171.8,130.1z"/>
		<path class="st0" d="M158.5,135.9h-7.2c-0.5,0-0.8,0.3-0.8,0.8c0,1.8,0.4,3.4,1.4,4.8c1.4,1.8,3.4,2.4,5.6,2.6
			c2.4,0.2,4.8-0.4,7-1.4c0.2,0,0.2-0.2,0.4-0.2c0.8-0.4,1.4,0,1.4,0.8v1c0,0.8-0.4,1.4-1.2,1.8c-1.6,0.6-3,1-4.8,1.2
			c-2,0.4-3.8,0.4-5.8,0c-4.6-0.8-7.4-3.6-8.4-7.9c-0.6-3.2-0.6-6.4,0.2-9.3c1.2-4.4,4.6-7.2,9.4-7.6c2.2-0.2,4.4,0,6.4,1
			c2.8,1.6,4.2,4,4.8,7c0.2,1.2,0.4,2.4,0.2,3.6c0,1.2-0.6,2-2,2C163.2,135.8,160.9,135.8,158.5,135.9L158.5,135.9L158.5,135.9z
			 M156.5,132.5h5.6c0.4,0,0.8,0,0.8-0.6c0-2-0.6-3.8-2-5c-2-1.8-6.4-2.2-8.8,1c-1,1.2-1.2,2.6-1.6,4c0,0.4,0.2,0.6,0.6,0.6
			C153.1,132.5,154.9,132.7,156.5,132.5L156.5,132.5L156.5,132.5z"/>
		<path class="st0" d="M396.6,137.8v8.1c0,0.8-0.2,1-1,1.2h-2.2c-0.4,0-0.6-0.4-0.6-0.8v-1.2c0-0.2,0-0.4-0.2-0.6
			c-0.2,0-0.4,0.2-0.4,0.2c-1.6,1.4-3.4,2.4-5.6,2.6c-2.8,0.2-5.2-0.2-7.4-2.2c-2.8-2.6-2.8-8.3,1.6-10.7c1.8-1,4-1.4,6-1.6
			c1.6-0.2,3,0,4.6-0.2c0.6,0,0.8-0.2,0.8-0.8c0-1,0-2-0.2-3c-0.4-1.8-1.6-2.8-3.4-3c-2.8-0.6-5.4,0.2-7.8,1.6
			c-0.2,0-0.2,0.2-0.4,0.2c-1.2,0.6-1.6,0.2-1.8-1c-0.2-1.2,0.2-2,1.2-2.6c1.8-1,4-1.6,6-1.8c1.6-0.2,3.2,0,4.8,0.2
			c3.4,0.6,5.4,2.6,5.8,6.2c0.2,0.6,0.2,1.4,0.2,2C396.4,133.1,396.4,135.5,396.6,137.8L396.6,137.8L396.6,137.8z M392.2,138.4v-1.8
			c0-0.4-0.2-0.8-0.6-0.8h-3c-1.6,0-3.2,0.2-4.6,1c-1.4,0.8-2,2-2,3.4c0,1.6,1,2.8,2.6,3.2c1.8,0.6,3.6,0.4,5.4-0.8
			C391.4,141.8,392.6,140.6,392.2,138.4L392.2,138.4L392.2,138.4z"/>
		<path class="st0" d="M245.4,134.9v-10.9c0-1,0.4-1.4,1.4-1.6c1.2-0.2,2.4-0.2,3.6,0s1.4,0.6,1.4,1.6c0,0.4-0.2,0.8,0.2,1
			c0.4,0,0.6-0.4,0.8-0.6c1.2-1.2,2.4-2.2,4.2-2.6c1-0.2,2,0,3,0.4c0.4,0.2,0.8,0.6,0.8,1c0.2,1.6,0.2,3,0,4.6c-0.2,1-0.8,1.4-1.6,1
			c-1.8-0.6-3.2-0.4-4.4,1c-0.4,0.4-0.8,1-1.4,1.6s-0.6,1-0.6,1.8V146c0,1-0.2,1.2-1.2,1.4c-1.6,0.2-3.2,0.2-4.6,0
			c-1-0.2-1.4-0.6-1.4-1.6C245.4,142,245.4,138.4,245.4,134.9L245.4,134.9L245.4,134.9z"/>
		<path class="st0" d="M359,130.1v-14.9c0-0.8,0-1,0.8-1.2s1.8-0.2,2.6,0c1,0.2,1.2,0.4,1.2,1.2v26.6c0,0.8,0.4,1.2,1.2,1.2h10.2
			c0.8,0,1.2,0.4,1.4,1.2c0,0.6,0.2,1.4,0,2c-0.2,0.4-0.4,0.8-1,0.8h-14.5c-1.2,0-1.8-0.6-1.8-2v-8.9C359,134.3,359,132.3,359,130.1
			L359,130.1L359,130.1z"/>
		<path class="st0" d="M299,134.9v10.9c0,1-0.2,1.4-1.2,1.6c-1.4,0.2-3,0.2-4.4,0c-1.2-0.2-1.4-0.6-1.4-1.8v-21.7
			c0-1,0.4-1.4,1.2-1.6c1.6-0.4,3.4-0.4,5,0c0.8,0.2,1,0.6,1,1.4C299,127.5,299,131.1,299,134.9L299,134.9L299,134.9z"/>
		<path class="st0" d="M407,134.9v10.9c0,1-0.2,1.2-1,1.2s-1.8,0.2-2.6,0c-0.6-0.2-0.8-0.4-0.8-1v-22.2c0-0.6,0.2-1,0.8-1
			c1-0.2,2-0.2,3,0c0.6,0.2,0.8,0.6,0.8,1v10.5C407,134.5,407,134.7,407,134.9L407,134.9L407,134.9z"/>
		<path class="st0" d="M295.6,119.4c-0.8,0-1.6,0-2.2-0.2c-0.8-0.2-1.6-1-1.8-1.8c-0.2-1-0.2-2.2,0-3.4c0.2-1,0.8-1.6,1.8-1.8
			c1.2-0.4,2.6-0.4,3.8,0c1.2,0.2,2,1,2.2,2.2c0.2,0.8,0.2,1.4,0,2.2c-0.2,1.8-1.2,2.6-3,2.8L295.6,119.4L295.6,119.4z"/>
		<path class="st0" d="M404.8,118.4c-2.2,0-3-0.6-2.6-3.2c0.2-1.4,0.6-1.8,1.8-2c3.2-0.4,3.8,1,3.4,3.4c-0.2,0.8-0.6,1.4-1.6,1.6
			C405.6,118.4,405.2,118.4,404.8,118.4L404.8,118.4L404.8,118.4z"/>
	</g>
</g>
</svg>
