<?xml version="1.0" encoding="utf-8"?>
<!-- Generator: Adobe Illustrator 27.7.0, SVG Export Plug-In . SVG Version: 6.00 Build 0)  -->
<svg version="1.1" id="Layer_1" xmlns="http://www.w3.org/2000/svg" xmlns:xlink="http://www.w3.org/1999/xlink" x="0px" y="0px"
	 viewBox="0 0 567 243" style="enable-background:new 0 0 567 243;" xml:space="preserve">
<style type="text/css">
	.st0{fill:#A0A0A0;}
</style>
<g id="okhxr8.tif">
	<g>
		<path class="st0" d="M501.2,92.9c-0.2-0.3-0.1-0.6-0.2-0.9c0-0.2-0.1-0.4-0.4-0.4c-0.2,0-0.3,0.2-0.3,0.4c0,0.5-0.2,0.8-0.6,1
			c-0.2,0.1-0.3,0.2-0.5,0.4c-1.4,1.4-4.5,1.4-6.2,0c-1.3-1.1-1.6-2.5-1.7-4.1c0-0.9,0.4-1.8,0.8-2.5c0.6-1.1,1.8-1.6,3-1.5
			c0.7,0.1,1.4,0.1,2,0c0.9-0.2,1.6,0.2,2.2,0.8c0.4,0.4,0.7,0.5,1.2,0.4c0.2,0,0.4,0,0.6,0L501.2,92.9L501.2,92.9L501.2,92.9z
			 M497.5,89.9c0,0.3,0,0.6,0,0.9c-0.1,0.4-0.3,0.7-0.7,0.8c-0.2,0.1-0.5,0.2-0.7,0.3c-0.7,0.3-1.2,0-1.2-0.7c0-1.1-0.1-2.1,0.1-3.2
			c0.1-0.6-0.3-1.2-0.7-1.3c-0.4-0.1-0.9,0.2-1.1,0.7c0,0,0,0.1,0,0.1c-0.6,1.2-0.7,2.4-0.3,3.6c0.3,1,1.2,1.8,2.2,1.8
			c0.2,0,0.4,0,0.6,0.1c1.7,0.6,2.9-0.3,4-1.3c0.2-0.2,0.2-0.4,0.2-0.6c0.2-0.9,0.4-1.8-0.1-2.7c0,0,0-0.1,0-0.2
			c0-0.7-0.9-1.5-1.6-1.5c-0.2,0-0.4,0-0.6-0.1c-0.2-0.1-0.3,0.1-0.4,0.2c0,0.2,0,0.5,0.1,0.7C497.5,88.3,497.4,89.1,497.5,89.9
			L497.5,89.9L497.5,89.9z"/>
		<path class="st0" d="M205.6,116.4c0.1,3,0,5.8-0.1,8.6c-0.1,2.4-0.3,4.8-0.9,7.2c-0.8,3.1-2.5,5.8-5,7.8
			c-3.6,2.9-7.6,3.5-11.9,1.8c-2.1-0.8-3.9-2.1-5.4-3.7c-0.1-0.2-0.3-0.5-0.5-0.4c-0.3,0.1-0.1,0.4-0.1,0.7
			c0.2,5.8,0.3,11.5,0.2,17.3c0,1.6,0,3.2,0,4.9c0,0.8-0.4,1.1-1.2,1.1c-1.9,0-3.7-0.1-5.6-0.1c-1.7,0-1.9-0.3-1.9-1.9
			c0-3.2,0-6.4,0-9.6V94.8c0-0.9,0.2-1.1,1.1-1.1c1.2,0,2.4-0.1,3.6-0.1c0.8,0,1.5,0.1,2.2,0.1c0.2,0,0.4,0,0.5,0
			c0.7-0.1,0.9,0,1,0.7c0.2,0.8,0.1,1.7,0.1,2.5c0,0.2,0,0.3,0,0.5c0.1,0.4,0.3,0.5,0.6,0.3c0.4-0.2,0.7-0.5,0.9-0.8
			c1.5-1.7,3.4-2.8,5.7-3.3c3.3-0.7,6.4-0.3,9.3,1.6c3.9,2.4,5.8,6.1,6.7,10.4C205.6,109.2,205.7,112.9,205.6,116.4L205.6,116.4
			L205.6,116.4z M181.6,118.5v1.4c0,2.8,0.2,5.5,0.9,8.2c0.3,1,0.6,2,1.4,2.7c1.2,1.2,2.8,1.8,4.5,1.9c1.4,0.1,2.7-0.2,4.1-0.5
			c1.1-0.2,1.8-0.8,2.4-1.7c0.6-0.8,0.9-1.6,1.2-2.6c0.5-2.1,0.8-4.2,0.9-6.4c0.2-4.2-0.2-8.5-1.1-12.6c-0.3-1.2-0.6-2.4-1.4-3.3
			c-1.8-1.9-3.9-2.4-6.4-2.3c-1.8,0.1-3.4,0.8-4.3,2.4c-0.5,0.8-0.8,1.7-1,2.6C182.1,111.7,181.4,115.1,181.6,118.5L181.6,118.5
			L181.6,118.5z"/>
		<path class="st0" d="M340,121.9h-11.4c-1.2,0-1.6,0.3-1.4,1.5c0.5,2.4,0.9,4.8,2.4,6.8c0.9,1.2,2,2.1,3.4,2.6c2,0.8,4,0.8,6.1,0.3
			c2.5-0.6,4.3-2.1,6-3.8c0.3-0.3,0.5-0.3,0.9-0.1c0.7,0.4,1.1,0.9,1.6,1.5c0.9,1.1,1.8,2.2,2.8,3.1c1.2,1.2,1.2,1.2,0.2,2.5
			c-2,2.5-4.6,4.1-7.5,5.2c-1.9,0.7-3.9,1.2-5.9,1.2c-2.6,0.1-4.9-0.7-7.2-1.6c-3.4-1.3-5.9-3.6-7.9-6.4c-1.4-2.1-2.1-4.5-2.5-7
			c-0.6-3.8-1-7.7-0.8-11.6c0.1-3.1,0.3-6.1,1.1-9.1c0.7-2.7,1.6-5.3,3.4-7.5c2.2-2.6,4.8-4.7,8-5.7c3.4-1,6.9-1.1,10.2,0.5
			c2.9,1.4,5.2,3.4,7.1,6c1.8,2.6,2.6,5.5,3.2,8.5c0.3,1.8,0.5,3.5,0.5,5.3c0,1.5,0,3.1,0.1,4.6c0,0.6,0,1.2,0,1.8
			c0,1.2-0.2,1.3-1.4,1.3L340,121.9L340,121.9z M335.7,113.5h7.2c0.8,0,0.8,0,0.8-0.8c0-1.3-0.5-2.6-1-3.8c-1-2.3-2.5-4.1-4.9-5.3
			c-2.3-1.2-5.5-0.3-7,1.1c-2.2,2.1-3.3,4.7-3.8,7.6c-0.1,0.9,0.1,1.1,1,1.2c0.2,0,0.5,0,0.7,0L335.7,113.5L335.7,113.5z"/>
		<path class="st0" d="M264.6,121.9h-11.4c-1.3,0-1.4,0.2-1.2,1.4c0.2,1.2,0.4,2.5,0.8,3.7c0.7,2.7,2.5,4.6,5.1,5.7
			c3.4,1.4,6.5,0.8,9.4-1.2c0.9-0.6,1.7-1.4,2.5-2.3c0.3-0.4,0.6-0.4,1-0.1c0.9,0.6,1.6,1.3,2.2,2c0.8,0.9,1.7,1.6,2.3,2.6
			c0.1,0.1,0.2,0.3,0.3,0.4c0.5,0.9,0.5,1.1-0.1,1.9c-1.9,2.5-4.3,4.3-7.3,5.4c-1.2,0.5-2.5,0.9-3.8,1.2c-3.3,0.6-6.5,0.1-9.5-1.3
			c-2.1-0.9-4-2.1-5.7-3.6c-1.6-1.5-2.8-3.2-3.6-5.3c-0.9-2.5-1.4-5.1-1.7-7.8c-0.3-2.2-0.3-4.5-0.4-6.7c-0.1-1.9,0.1-3.8,0.3-5.7
			c0.2-1.6,0.3-3.1,0.7-4.7c0.6-2.7,1.6-5.3,3.3-7.5c2.7-3.2,5.8-5.8,10.2-6.5c4.7-0.8,8.8,0.5,12.3,3.6c3.5,3,5.3,6.8,6.1,11.2
			c0.5,2.5,0.6,5.1,0.6,7.6c0,1.4,0.1,2.9,0.1,4.3c0,0.2,0,0.3,0,0.5c-0.1,1.1-0.2,1.2-1.3,1.2L264.6,121.9L264.6,121.9L264.6,121.9
			z M260.1,113.4L260.1,113.4c2.6,0,5.1,0,7.7,0c0.6,0,0.7-0.1,0.6-0.7c0-0.2,0-0.3-0.1-0.5c-0.2-1.3-0.6-2.6-1.1-3.9
			c-0.8-2.2-2.3-3.8-4.3-4.9c-3-1.6-6.7-0.4-8.3,1.7c-1.7,2.3-2.6,4.9-2.9,7.7c-0.1,0.4,0.1,0.6,0.6,0.6
			C254.9,113.4,257.5,113.5,260.1,113.4L260.1,113.4L260.1,113.4z"/>
		<path class="st0" d="M154.7,109.3c-0.1,1.9-0.3,3.8-1.4,5.5c-0.8,1.3-1.5,2.7-2.4,3.9c-1,1.3-2.3,2.3-3.6,3.3
			c-0.6,0.4-1.2,0.9-1.8,1.3c-0.3,0.2-0.4,0.5-0.3,0.8c0.2,0.6,0.4,1.2,0.8,1.8c1.4,2,2.5,4.2,3.6,6.3c0.8,1.6,1.5,3.1,1.9,4.8
			c0.7,2.8,1.2,5.6,0.5,8.5c-0.5,2.4-1.8,4.3-3.9,5.6c-2.8,1.8-5.8,2.2-9.1,2.1c-1.8-0.1-3.7-0.2-5.4-0.7c-4-1-8-1.9-11.7-3.6
			c-0.7-0.3-0.9-0.2-1.2,0.5c-1.3,3-3.2,5.6-5.3,8c-1,1.2-2.1,2.4-3.4,3.4c-1.4,1.1-2.8,2.1-4.5,2.4c-2.5,0.5-5,0.6-7.2-1
			c-1.4-1-2.5-2.4-3.3-3.9c-1.4-2.5-2.4-5.2-2.8-8c-0.3-1.8-0.8-3.5-1.1-5.3c-0.1-0.7,0.1-1.4,0.1-2.1c0-0.7-0.1-0.7-0.7-0.8
			c-1.8-0.1-3.7-0.2-5.5-0.3c-3.2-0.2-6.4-0.2-9.5-0.8c-3-0.6-5.9-1.4-8.3-3.4c-1.6-1.3-2.6-3-3.1-4.9c-0.3-1.3-0.3-2.6,0.1-3.9
			c0.5-1.9,1.3-3.6,2.4-5.2c0.7-1,1.5-1.8,2.4-2.7c0.5-0.5,0.9-0.9,1.4-1.4c1.1-1.2,2.5-2.2,3.8-3.3c0.5-0.4,0.6-1.3,0.2-1.8
			c-1.6-2.2-3.3-4.3-4.6-6.8c-1.2-2.4-2.6-4.7-3.3-7.3c-0.4-1.5-1-3-1.2-4.6c-0.2-1.5-0.3-2.9,0-4.3c0.7-2.6,1.8-4.8,4.4-6.3
			c2.6-1.5,5.2-1.8,8.1-1.7c1.1,0.1,2.2,0.1,3.3,0.1c2.6,0.2,5.2,0.6,7.7,1.4c0.4,0.1,0.8,0.2,1.2,0.3c1.2,0.2,2.4,0.7,3.5,1.2
			c1.7,0.7,3.4,1.2,5,2c0.6,0.3,1.3,0.6,1.9,1c0.7,0.4,1.4,0.8,2.2,1.1c0.7,0.3,1.1,0.2,1.5-0.5c1.6-2.4,3.4-4.6,5.5-6.5
			c1.9-1.6,3.9-3.1,6.5-3.4c3.3-0.4,6.2,0.6,8.3,3.2c0.9,1.2,1.7,2.4,2.2,3.8c1.2,3.1,2.1,6.3,2.5,9.6c0.1,0.7,0.2,0.8,0.9,0.9
			c0.1,0,0.2,0.1,0.4,0c2.5-0.2,4.9,0.4,7.3,0.8c1.4,0.2,2.8,0.3,4.2,0.6c2.4,0.5,4.6,1.3,6.7,2.5c1.2,0.7,2.2,1.7,3,2.8
			c0.9,1.1,1.2,2.4,1.3,3.8C154.8,108.7,154.7,109,154.7,109.3L154.7,109.3L154.7,109.3z M94.8,129.1c-0.2,1.2,0.4,1.9,1.3,2.6
			c1.2,0.8,2.3,1.7,3.4,2.6c1.6,1.3,3.4,2.3,5.2,3.5c0.6,0.4,1.4,0.6,2.1,0.5c1.6-0.2,3.2-0.3,4.7-0.8c2.7-0.9,5.5-1.5,8.2-2.5
			c1.9-0.7,3.8-1.4,5.6-2.3c0.7-0.3,1-0.7,1.2-1.4c0.4-1.6,0.8-3.2,1.2-4.9c0.4-1.7,0.6-3.5,1-5.2c0.2-1.2,0.2-2.3,0.5-3.5
			c0.5-1.9,0.8-3.8,0.7-5.7c-0.1-1.2-0.4-2.2-1.3-2.9c-0.5-0.4-0.9-0.9-1.4-1.3c-1.7-1.4-3.3-2.9-5.1-4.2c-0.7-0.5-1.6-0.8-2.2-1.5
			c-0.7-0.8-1.6-0.8-2.5-0.6c-3.6,0.5-7.2,1.4-10.7,2.4c-1.4,0.4-2.8,0.9-4.2,1.3c-1.5,0.4-2.5,1.3-2.9,2.7
			c-0.4,1.4-0.9,2.8-1.3,4.3c-0.7,2.3-1.3,4.7-1.8,7c-0.6,2.7-0.9,5.5-1.4,8.3C94.9,127.9,94.9,128.5,94.8,129.1L94.8,129.1
			L94.8,129.1z M79.7,85.1c-0.8,0-1.5,0-2.3,0c-0.8,0-1.5,0.3-2.3,0.5c-1,0.3-2,0.4-2.8,1.2c-0.5,0.4-1,0.9-1.5,1.3
			c-2,1.8-2.6,4.1-2.3,6.7c0.4,3.2,1.3,6.3,2.9,9.1c0.6,1,1.1,1.9,1.6,2.9c1.5,2.5,3.2,4.8,4.9,7.2c0.2,0.3,0.4,0.3,0.7,0.2
			c0.5-0.3,1-0.6,1.5-0.9c1.5-0.8,2.8-1.8,4.3-2.5c0.5-0.2,1-0.5,1.5-0.7c1.6-0.8,3.1-1.7,4.7-2.3c2.2-0.9,4.3-1.9,6.5-2.6
			c0.9-0.3,1.5-0.9,2-1.8c0.7-1.4,1.3-2.9,2-4.3c0.9-1.7,1.9-3.4,2.6-5.2c0.4-1.2,0.2-1.7-0.9-2.3c-1.1-0.6-2.2-1.1-3.4-1.6
			c-2.9-1.2-5.7-2.4-8.7-3.3C87.2,85.7,83.5,85,79.7,85.1L79.7,85.1L79.7,85.1z M139.7,151.5c1.4,0,2.7-0.2,4-0.4
			c2.4-0.4,4.2-1.8,5.8-3.6c0.5-0.6,1-1.3,1.1-2.1c0.1-0.7,0.2-1.3,0.3-2c0.2-2.1,0.1-4.1-0.6-6c-0.9-2.6-2.1-5-3.4-7.4
			c-0.5-0.9-1.1-1.8-1.6-2.7c-0.3-0.6-0.8-1.1-1.3-1.6c-0.3-0.3-0.6-0.4-0.9-0.2c-0.9,0.8-2.1,1.3-3.1,1.9c-1.6,0.9-3.1,1.9-4.7,2.8
			c-2,1.1-4,2-6.1,2.8c-1,0.4-1.8,1-2.1,2c-0.5,1.4-1.1,2.8-1.5,4.3c-0.8,2.3-1.6,4.6-2.9,6.7c-0.4,0.7-0.3,1.1,0.4,1.5
			c0.3,0.1,0.6,0.3,0.9,0.4c2.7,0.9,5.3,2,8,2.6c0.8,0.2,1.6,0.5,2.4,0.6C136.1,151.3,137.9,151.4,139.7,151.5L139.7,151.5
			L139.7,151.5z M88.7,140.7c0.9,0,1.8,0,2.7-0.1c0.8-0.1,1-0.3,1.1-1.1c0-0.6,0.1-1.2,0.1-1.8c0-1.4,0-2.9,0.3-4.2
			c0.2-1.1,0.2-2.2-0.8-3c-1.2-1-2.3-2-3.5-3c-2.2-1.9-4.2-3.9-6.2-5.9c-1.4-1.4-2.6-2.9-4-4.4c-0.3-0.4-0.6-0.3-0.9,0
			c-0.8,0.7-1.7,1.3-2.6,2c-0.9,0.7-1.9,1.4-2.6,2.3c-1.8,2.1-3.7,4.2-4.5,6.9c-0.7,2.1-0.6,4.2,0.8,6.2c0.7,0.9,1.6,1.6,2.5,2.2
			c1.6,1.2,3.4,2,5.3,2.5c1.7,0.5,3.4,0.7,5.2,0.9C84,140.4,86.3,140.6,88.7,140.7L88.7,140.7L88.7,140.7z M105.1,162
			c0.3,0,0.6,0,0.9-0.1c2.6-0.4,4.6-1.7,6.3-3.4c1.9-1.9,3.6-3.9,5-6.1c0.7-1.1,1.3-2.4,1.8-3.6c0.2-0.5,0.1-0.9-0.4-1.3
			c-0.8-0.5-1.6-0.9-2.4-1.2c-3.1-1.4-6.1-3.1-9-4.8c-1.1-0.6-2.2-0.9-3.4-0.7c-2.6,0.5-5.3,0.8-7.9,1.1c-1.7,0.2-1.6,0-1.4,1.8
			c0.3,2.8,0.8,5.7,1.5,8.4c0.7,2.7,1.8,5.1,3.6,7.3C101.1,161.1,102.9,161.9,105.1,162L105.1,162L105.1,162z M153.5,109.2
			c-0.1-1.6-0.4-3.1-1.6-4.2c-1.9-1.9-4.3-3.1-6.9-3.8c-4.1-1.1-8.2-1.6-12.5-1.3c-0.3,0-0.6,0.1-0.9,0.1c-0.3,0-0.4,0.2-0.4,0.4
			c0,0.2,0,0.4,0.1,0.7c0.2,1,0.3,1.9,0.3,2.9c0,1.3,0,2.7,0.1,4c0.1,0.7,0,1.5,0.6,2.1c0.7,0.8,1.4,1.7,2.2,2.4c1,1,2,1.9,3,2.8
			c1,0.9,1.7,2,2.6,2.9c1,1.1,2.1,2.3,2.8,3.6c0.4,0.7,0.6,0.8,1.3,0.3c1.8-1.1,3.4-2.4,4.7-4.1c0.7-0.8,1.3-1.7,2-2.6
			C152.6,113.6,153.3,111.4,153.5,109.2L153.5,109.2L153.5,109.2z M107.5,91.4c-0.1,0.6,0.3,1,0.7,1.3c1.8,1.2,3.8,2,5.5,3.2
			c1.3,0.9,2.7,1.7,4.1,2.6c0.6,0.4,1.2,0.6,1.9,0.6c1.1-0.1,2.2-0.2,3.2-0.2c1.9,0,3.9-0.2,5.8-0.5c0.7-0.1,0.9-0.3,0.8-1
			c-0.1-0.8-0.4-1.7-0.5-2.5c-0.5-3.5-1.6-6.8-3.7-9.7c-0.9-1.3-2-2.4-3.6-3c-0.9-0.3-1.8-0.7-2.7-0.5c-2.1,0.4-3.9,1.1-5.6,2.5
			c-2.1,1.8-4.1,3.8-5.7,6.1C107.6,90.7,107.5,91.1,107.5,91.4L107.5,91.4L107.5,91.4z M97.5,107c-0.1,0-0.3,0.1-0.5,0.1
			c-2,0.7-3.9,1.5-5.9,2.3c-3.2,1.3-6.1,3.1-9.1,4.8c-0.7,0.4-1.4,1-2.3,1.1c-0.4,0.1-0.4,0.3-0.3,0.6c0.2,0.4,0.5,0.6,0.8,0.9
			c1.3,1.2,2.4,2.7,3.7,4c2.2,2.1,4.4,4.2,6.6,6.3c0.7,0.7,1.4,1.3,1.9,2.1c0.1,0.1,0.4,0.4,0.4,0.2c0.1-0.5,0.5-0.7,0.6-1.1
			c0.1-0.6,0.2-1.3,0.3-1.9c0.2-1.7,0.4-3.3,0.6-5c0.2-1.9,0.9-3.8,1.3-5.7c0.4-2,0.7-4,1.4-5.9c0.3-0.8,0.5-1.6,0.8-2.4
			C97.9,107.2,98,107,97.5,107L97.5,107L97.5,107z M131.1,110.8c0.1,0.3,0.1,0.6,0.1,0.9c0.1,1,0.3,1.9,0,2.9
			c-0.3,0.9-0.5,1.9-0.6,2.9c-0.2,1.6-0.3,3.2-0.6,4.8c-0.4,2.7-1.2,5.2-1.7,7.9c-0.1,0.5-0.3,0.9-0.5,1.3c0,0.1-0.1,0.2,0,0.3
			c0.1,0.1,0.2,0,0.3,0c0.2-0.1,0.5-0.2,0.7-0.4c0.7-0.6,1.5-0.9,2.3-1.3c1.9-0.8,3.7-1.8,5.6-2.8c1.6-0.8,3.1-1.8,4.6-2.9
			c0.4-0.3,0.6-1.1,0.3-1.6c-0.8-1.2-1.7-2.3-2.7-3.4c-1.2-1.3-2.3-2.7-3.7-3.9c-0.8-0.7-1.7-1.5-2.3-2.5
			C132.6,112.2,131.9,111.5,131.1,110.8L131.1,110.8L131.1,110.8z M124,135.3c-0.4,0.1-0.7,0.1-1.1,0.3c-2.9,0.9-5.7,1.9-8.7,2.7
			c-1.7,0.4-3.4,1.2-5.2,1.3c-0.4,0-0.5,0.3-0.3,0.7c0.3,0.5,0.8,0.9,1.4,1.1c2.1,1.1,4.2,2.2,6.3,3.3c1.2,0.6,2.3,1.3,3.6,1.6
			c0.9,0.2,0.9,0.1,1-0.6c0-0.2,0.2-0.4,0.2-0.6c0.4-0.9,0.9-1.8,1.3-2.8c0.8-2.1,1.6-4.2,2.3-6.3c0.1-0.3,0-0.6-0.4-0.6
			C124.4,135.4,124.2,135.3,124,135.3L124,135.3L124,135.3z M101.5,102.9c0,0.6,0.2,0.7,0.9,0.5c1.5-0.6,3-1,4.6-1.3
			c1.8-0.4,3.5-1.1,5.4-1.3c0.9-0.1,1.8-0.3,2.7-0.7c0.2-0.1,0.6-0.1,0.6-0.5c0-0.4,0-0.8-0.5-0.9c-0.4-0.2-0.8-0.4-1.2-0.6
			c-1.1-0.7-2.2-1.5-3.4-2.2c-1-0.6-2-1.2-3-1.8c-1.4-0.9-1.7-0.8-2.5,0.7c0,0.1-0.1,0.1-0.1,0.2c-1.1,1.9-1.8,4.1-2.8,6.1
			C101.8,101.6,101.5,102.2,101.5,102.9L101.5,102.9z M122.1,100.5c-0.3-0.1-0.5,0.1-0.7,0.2c-0.4,0.2-0.3,0.3,0,0.5
			c0.2,0.2,0.5,0.3,0.7,0.4c1,0.7,1.8,1.6,2.7,2.3c0.7,0.5,1.4,1,2,1.6c0.8,0.7,1.5,1.5,2.4,2.1c0.2,0.1,0.4,0.3,0.6,0.2
			c0.3-0.2,0.2-0.4,0.1-0.6c-0.1-0.2-0.1-0.3,0.1-0.4c0.2-0.2,0.2-0.5,0.2-0.7c0-1.3-0.2-2.5-0.1-3.8c0-0.5,0.1-1,0-1.6
			c-0.1-0.4-0.2-0.6-0.6-0.7c-1.1-0.2-2.2-0.2-3.2,0.1C124.8,100.4,123.4,100.1,122.1,100.5L122.1,100.5L122.1,100.5z M95.1,132.6
			c-0.2,0.2-0.2,0.4-0.2,0.6c-0.1,1.4-0.2,2.9-0.3,4.3c0,0.8-0.1,1.5,0.1,2.3c0.1,0.4,0.2,0.6,0.7,0.5c1.9-0.3,3.9-0.6,5.8-1
			c0.4-0.1,0.7-0.2,0.8-0.6c0.1-0.4-0.1-0.6-0.4-0.9c-1.3-1-2.7-2.1-4.1-3.1C96.6,134.2,95.7,133.6,95.1,132.6L95.1,132.6
			L95.1,132.6z"/>
		<path class="st0" d="M360.7,117.8V94.4c0-0.9,0-0.9,0.9-0.9c2.2,0.2,4.5,0,6.7,0.3c0.5,0.1,0.7,0.2,0.8,0.7
			c0.2,0.8,0.1,1.7,0.1,2.5c0,0.2-0.1,0.5,0.2,0.7c0.3,0.1,0.5-0.1,0.7-0.3c0.8-0.5,1.4-1.3,2.2-1.9c1.6-1.2,3.5-1.9,5.5-2.2
			c3.8-0.6,6.9,0.8,9.7,3.1c3.3,2.7,4.9,6.1,5.3,10.3c0.3,3.1,0.4,6.2,0.4,9.3c0,8.5,0,16.9,0,25.4c0,0.6-0.3,0.8-0.9,0.9h-6.9
			c-0.6,0-0.8-0.3-0.8-0.9c0-9.4,0-18.8,0-28.2c0-2.4-0.7-4.8-2.2-6.7c-1.3-1.7-3-2.8-5.2-2.9c-1-0.1-1.9,0.2-2.8,0.6
			c-1.9,0.9-3.3,2.3-4.1,4.2c-0.7,1.5-1,3.1-1,4.8c0,9.4,0,18.8,0,28.2c0,0.6-0.3,0.9-0.9,0.9h-7c-0.5,0-0.8-0.3-0.8-0.8
			L360.7,117.8L360.7,117.8L360.7,117.8z"/>
		<path class="st0" d="M457.1,116.1c0.3,1.9,0.1,3.9,0,6c-0.1,2.7-0.2,5.5-1.1,8.1c-1.2,3.7-3.2,6.9-6.3,9.5c-2.4,2-5.3,2.7-8.3,3
			c-3.6,0.4-6.9-0.6-9.7-2.7c-3.4-2.5-5.7-5.8-6.8-9.9c-0.6-2.5-1.1-4.9-1.1-7.5c0-3.5-0.1-7,0-10.5c0.1-3.8,0.9-7.6,2.9-10.9
			c2-3.2,4.7-5.7,8.2-7.2c1.1-0.5,2.3-0.6,3.5-0.7c1.7-0.2,3.4-0.2,5.1,0.1c2.4,0.4,4.4,1.6,6.2,3c4.1,3.1,6.1,7.4,6.8,12.3
			c0.3,1.7,0.3,3.4,0.3,5.1C457,114.5,457.1,115.2,457.1,116.1L457.1,116.1L457.1,116.1z M432.3,119.5c0,2.7-0.1,4.5,0.4,6.3
			c0.5,1.8,1.1,3.7,2.6,5c1.5,1.4,3.3,2.3,5.5,2.1c1.3-0.1,2.5-0.4,3.7-1c0.5-0.2,0.9-0.6,1.3-1c1.5-1.8,2.5-3.9,2.9-6.2
			c0.4-2.1,0.3-4.2,0.4-6.2c0.1-2.1,0-4.2-0.3-6.4c-0.3-2.6-1.3-4.9-3.4-6.7c-1.3-1.2-2.8-1.8-4.6-1.9c-3.4-0.1-5.6,1.6-7.1,4.5
			c-1.1,2.2-1.6,4.5-1.5,6.9C432.2,116.7,432.3,118.5,432.3,119.5L432.3,119.5L432.3,119.5z"/>
		<path class="st0" d="M298.2,142.2c-0.8,0-1.6,0-2.4,0c-0.8,0-1.3-0.3-1.6-1c-0.5-0.9-0.7-1.8-1-2.7c-1.9-6.4-3.8-12.7-5.8-19
			c-1.2-3.6-2.2-7.3-3.4-10.9c-1.3-4-2.3-8.1-3.7-12c-0.2-0.7-0.4-1.4-0.6-2.1c-0.2-0.7,0-0.8,0.7-0.7c0.8,0.1,1.6,0.1,2.4,0.1
			c1.4,0,2.9,0,4.3,0c1.2,0,1.3,0.1,1.6,1.2c1.1,4,2.2,8.1,3.3,12.1c0.6,2.4,1.4,4.7,2.1,7.1c0.8,2.8,1.5,5.7,2.4,8.5
			c0.3,1,0.7,2,1,3.1c0,0.1,0,0.1,0,0.2c0.1,0.3,0.3,0.6,0.7,0.6c0.4,0,0.4-0.4,0.5-0.7c0.3-1.8,0.7-3.6,1.2-5.4
			c1.4-4.7,2.7-9.4,4-14.1c0.7-2.4,1.3-4.8,1.9-7.2c0.3-1.4,0.7-2.8,1.1-4.2c0.2-0.7,0.6-1.1,1.4-1.2c1.4-0.1,2.8,0,4.1,0
			c0.9,0,1.9,0,2.8,0c0.5,0,0.7,0.2,0.8,0.7c0,0.4,0,0.7-0.1,1.1c-1.9,5.2-3.4,10.6-5,15.9c-1.5,4.7-3.1,9.4-4.5,14.2
			c-1.1,3.8-2.3,7.6-3.4,11.4c-0.5,1.6-1.1,3.1-1.4,4.8c-0.1,0.3-0.3,0.5-0.6,0.5C300,142.2,299.1,142.2,298.2,142.2L298.2,142.2z"
			/>
		<path class="st0" d="M412.5,86.4v6.3c0,0.8,0.2,1,1,1c1.2,0.1,2.4,0,3.5-0.1c1.3-0.2,1.5,0,1.5,1.2c0,1.7,0,3.4,0,5.2
			c0,1.9,0.2,1.6-1.7,1.7c-1.1,0-2.3,0-3.4,0c-0.9,0-1,0.1-1,1c-0.2,5.2-0.1,10.4-0.1,15.6c0,2.9,0,5.7,0.1,8.6c0,1.1,0,2.2,0.1,3.3
			c0.1,1.8,0.7,2.4,2.8,2.7c0.7,0.1,1.5,0.1,2.2,0.1c1.1,0.1,1.2,0.3,1.1,1.3c0,0.2,0,0.4,0,0.5c0,2.2-0.1,4.5-0.1,6.7
			c0,0.7,0,0.8-0.8,0.8c-2,0-4,0.1-6-0.4c-3.3-0.8-5.5-2.8-6.8-5.9c-0.6-1.4-0.7-2.9-0.8-4.4c-0.2-2.1-0.1-4.1-0.1-6.2
			c0-1.1,0.2-2.2,0.1-3.3c-0.1-1.5,0-3,0-4.5c0-3.1,0-6.2,0-9.3c0-1.5-0.1-2.9-0.1-4.4c0-0.4,0.1-0.8,0-1.3c-0.1-0.7-0.3-0.8-1-0.8
			c-0.8,0-1.7,0-2.5,0c-0.5,0-0.8-0.2-0.9-0.7c0-0.1-0.1-0.3-0.1-0.4c0-2.2-0.1-4.3,0.1-6.5c0-0.4,0.2-0.6,0.7-0.6
			c0.9,0,1.8,0.2,2.8,0c0.7-0.1,0.8-0.1,0.8-0.8c0-1,0-1.9,0-2.9v-9.7c0-0.9,0.2-1.2,1.2-1.2c1.9-0.1,3.7-0.1,5.6-0.1
			c0.2,0,0.4,0,0.6,0c1,0.1,1.2,0.4,1.2,1.3L412.5,86.4L412.5,86.4L412.5,86.4L412.5,86.4z"/>
		<path class="st0" d="M214.2,117.9v-23c0-1,0.1-1.1,1.1-1.1c2-0.1,4.1-0.1,6.1-0.1c0.3,0,0.6-0.2,0.9,0c0.3,0.3,0.4,0.8,0.4,1.3
			c0,0.8,0,1.6-0.3,2.4c-0.1,0.2-0.1,0.4,0.1,0.6c0.2,0.2,0.4,0.1,0.6,0c0.3-0.1,0.4-0.3,0.6-0.6c2.6-2.8,5.9-4.2,9.8-4.2
			c2.4,0,4.5,0.8,6.5,2.2c0.4,0.3,0.9,0.7,1.3,1c0.4,0.3,0.4,0.6,0.3,1c-0.5,1.2-1.4,2.2-2.1,3.3c-1,1.4-2.1,2.9-2.9,4.4
			c-0.5,0.8-0.8,0.9-1.5,0.3c-0.8-0.6-1.6-1.2-2.6-1.6c-2.2-0.7-4.1-0.2-5.9,1.2c-2,1.5-2.9,3.7-3.3,6c-0.3,1.9-0.5,3.8-0.5,5.7
			c0,5.2,0.1,10.3,0,15.5c0,3.1,0.1,6.1,0,9.2c0,0.7,0,0.8-0.8,0.8h-6.7c-0.9,0-1.1-0.2-1.1-1.1L214.2,117.9L214.2,117.9
			L214.2,117.9z"/>
		<path class="st0" d="M474,120.3c0,2,0,4,0,6c0,1,0.1,2.1,0.1,3.1c0,2.9-0.1,5.7-0.1,8.5c0,1,0.1,1.9,0.1,2.9c0,0.2,0,0.4,0,0.6
			c-0.1,0.5-0.3,0.7-0.8,0.7c-2.3,0-4.5,0-6.8,0c-0.7,0-0.7,0-0.7-0.7c0-2.7,0-5.3,0-8c0-1.8-0.1-3.6-0.1-5.4
			c0.1-2.9,0.3-5.8,0.2-8.6c-0.3-8.1-0.1-16.2-0.2-24.2c0-0.2,0-0.5,0-0.7c0.1-0.5,0.4-0.8,0.9-0.8c2.3,0,4.6,0,6.9,0
			c0.4,0,0.6,0.2,0.7,0.5c0.2,0.6,0.2,1.1,0.2,1.7c0,0.5,0,1.1,0.1,1.6c0.1,0.4,0.3,0.5,0.7,0.2c0.1-0.1,0.3-0.3,0.4-0.4
			c1.9-2.4,4.5-3.6,7.5-3.9c2.2-0.2,4.2,0.1,6.2,1c1.2,0.6,2.3,1.4,3.3,2.2c0.2,0.2,0.2,0.4,0.2,0.7c-0.1,0.4-0.2,0.7-0.5,1.1
			c-1.2,1.7-2.3,3.4-3.5,5.1c-0.5,0.7-1,1.3-1.4,1.9c-0.2,0.2-0.4,0.3-0.7,0.2c-0.4-0.2-0.7-0.4-1.1-0.7c-2-1.4-4.2-1.6-6.4-0.6
			c-3.2,1.5-4.7,4.1-5,7.5C473.9,114.5,474,117.4,474,120.3L474,120.3L474,120.3z"/>
		<path class="st0" d="M188.1,160.3c-0.8,0-1.6,0-2.4,0.1c-0.6,0.1-1.2-0.5-1.1-1.3c0.2-1.9,0-3.7,0-5.6c0-1.5-0.1-3-0.1-4.5
			c0-0.7,0.2-1.4,0-2c-0.1-0.2,0.1-0.4,0.3-0.4c0.3-0.2,0.6-0.3,0.9-0.3c1.6-0.2,3.2-0.5,4.8-0.1c1.8,0.4,3.4,1,4.6,2.5
			c1.3,1.5,1.5,3.4,1.3,5.2c-0.1,1.1-0.2,2.1-0.8,3.1c-1.2,1.9-2.9,2.9-5.1,3.2C189.7,160.3,188.9,160.3,188.1,160.3L188.1,160.3
			L188.1,160.3z M188.3,158.6c0.6,0.1,1.3-0.1,2-0.3c1.7-0.3,3-1.1,3.4-2.9c0-0.1,0.1-0.2,0.1-0.3c0.3-1.1,0.7-2.2,0.4-3.4
			c-0.3-1.2-0.6-2.3-1.8-3c-1.7-0.9-3.5-0.9-5.3-0.6c-0.3,0.1-0.4,0.3-0.4,0.6c0.1,2.8,0.1,5.6,0,8.5c-0.1,1,0.1,1.3,1.1,1.3
			L188.3,158.6L188.3,158.6L188.3,158.6z"/>
		<path class="st0" d="M202.7,155.7c0-1.7,0.4-3.2,1.4-4.4c0.6-0.8,1.4-1.1,2.3-1.4c0.3-0.1,0.5,0,0.7,0.2c0.9,0.6,1.8,0.7,2.8,0.5
			c0.8-0.2,1.6-0.4,2.4-0.2c0.3,0.1,0.4,0.1,0.3,0.4s-0.2,0.6-0.2,1c0.1,2.4,0,4.8-0.1,7.2c0,1-0.2,2.1-0.6,3
			c-0.4,0.9-1.2,1.5-2.2,1.7c-1.2,0.3-2.4,0.3-3.6,0.2c-0.2,0-0.5,0-0.8,0c-0.8,0.1-1.6-0.5-1.8-1.3c-0.1-0.3,0.1-0.3,0.3-0.3
			c0.8,0,1.5,0.2,2.3,0.3c0.9,0.1,1.7,0.1,2.6-0.1c1.2-0.4,1.4-1.6,1.1-2.5c-0.1-0.5-0.5-0.6-1-0.4c-0.3,0.1-0.7,0.3-1,0.4
			c-0.8,0.3-1.5,0.4-2.4,0c-0.9-0.4-1.7-1-2.1-2C202.9,157.1,202.6,156.3,202.7,155.7L202.7,155.7L202.7,155.7z M209.9,156
			c0-1.3-1.1-3.3-2.1-4c-0.3-0.2-0.7-0.3-1-0.1c-1,0.6-1.9,1.4-2.1,2.7c-0.2,1.3,0.3,2.5,1.1,3.5c0.6,0.7,1.4,0.8,2.1,0.3
			c0.4-0.4,0.9-0.7,1.4-1.1C209.7,156.9,210,156.5,209.9,156L209.9,156L209.9,156z"/>
		<path class="st0" d="M331.9,152.9c0,1.7,0.2,3.4,0.1,5.1c-0.1,1.5-0.1,2.9-0.9,4.2c-0.4,0.6-0.8,1-1.5,1.2c-1.5,0.4-3,0.6-4.6,0.6
			c-0.7,0-1.4-0.6-1.6-1.2c-0.1-0.3,0-0.4,0.3-0.4c0.3,0,0.6-0.1,0.9,0c1,0.4,2.1,0.3,3.2,0.3c0.5,0,0.8-0.3,1.1-0.6
			c0.6-0.6,1.1-1.2,0.8-2.1c-0.1-0.5-0.4-0.7-1-0.5c-0.4,0.1-0.8,0.3-1.2,0.4c-1.9,0.5-3.2-0.3-4.5-1.5c-0.2-0.2-0.4-0.5-0.4-0.8
			c-0.1-0.9-0.2-1.9-0.2-2.8c0-1.6,0.7-2.9,2-4c0.6-0.5,1.5-0.7,2.2-0.8c0.5-0.1,0.9,0.2,1.2,0.6c0.7,0.6,1.3,0.7,2.1,0.2
			c0.4-0.2,0.7-0.4,1.1-0.5c0.5-0.1,0.8,0.1,0.8,0.6c0,0.4,0.1,0.7,0.1,1.1S331.9,152.5,331.9,152.9L331.9,152.9L331.9,152.9z
			 M324.3,154.8c-0.1,0.6,0.2,1.2,0.3,1.8c0.2,0.8,0.7,1.3,1.3,1.8c0.5,0.4,1.1,0.4,1.7,0c0.4-0.3,0.7-0.7,1-1
			c0.7-0.6,1-1.4,0.9-2.3c-0.2-1-0.7-1.9-1.3-2.8c-0.4-0.5-1.2-0.8-1.8-0.6C325,152.2,324.3,153.2,324.3,154.8L324.3,154.8
			L324.3,154.8z"/>
		<path class="st0" d="M280.9,155.8c0,1-0.1,2,0,3.1c0,0.4,0,0.8-0.1,1.1c-0.3,0.6-0.9,0.7-1.4,0.2c-0.3-0.3-0.4-0.7-0.4-1.1
			c-0.1-1.8,0-3.6-0.2-5.4c0-0.2,0-0.4-0.1-0.6c-0.2-1.2-0.4-1.3-1.6-1c-0.5,0.1-1,0.3-1.5,0.4c-0.5,0.1-0.8,0.4-0.9,1
			c-0.1,0.8-0.2,1.5-0.2,2.3c0,1.1-0.1,2.3-0.1,3.4c0,0.9-0.3,1.2-1.1,1.4c-0.6,0.1-1.2-0.3-1.4-1c-0.2-0.7-0.1-1.5-0.1-2.2
			c0-2.7,0-5.4,0-8.1c0-0.8,0-1.5,0.1-2.3c0-0.3,0.2-0.6,0.4-0.9c0.5-0.7,1.2-0.7,1.7-0.1c0.3,0.3,0.5,0.7,0.5,1.2
			c0,0.7,0,1.5,0.1,2.2c0,0.1,0,0.2,0,0.4c0.2,0.8,0.5,0.9,1.2,0.6c0.1-0.1,0.2-0.1,0.3-0.2c1.9-1.2,4.3,0.5,4.5,2.3
			C280.9,153.6,280.9,154.7,280.9,155.8L280.9,155.8L280.9,155.8z"/>
		<path class="st0" d="M299.6,160.4c-2-0.1-3.8-0.7-4.6-2.7c-0.8-2.1-0.6-4.3,1-6.1c1.7-2,4.7-2.3,6.8-0.7c0.6,0.5,1.1,1.1,1.4,1.8
			c0.6,2,0.7,3.9-0.4,5.8c-0.5,0.8-1,1.3-2,1.5C301.1,160.1,300.4,160.5,299.6,160.4L299.6,160.4L299.6,160.4z M296.7,155
			c0,0.4,0,0.8,0.1,1.2c0.3,1.3,1.8,2.5,3,2.4c1.1-0.1,1.7-0.9,2.3-1.7c0.3-0.4,0.5-0.8,0.5-1.3c0.1-1.4-0.6-2.6-1.3-3.7
			c-0.1-0.1-0.2-0.2-0.4-0.3c-1.4-0.8-3.8,0.4-4,1.9C296.8,154.1,296.6,154.5,296.7,155L296.7,155z"/>
		<path class="st0" d="M320.8,155.3c0.2,1.5-0.2,2.7-1.3,3.8c-0.6,0.6-1.3,1.1-2.2,1.1c-0.4,0-0.7,0-1.1,0.1
			c-1.5,0.2-2.7-0.3-3.8-1.1c-0.7-0.5-0.9-1.4-1.1-2.1c-0.1-0.4-0.2-0.8-0.2-1.2c-0.2-2.8,1.9-5.9,5.2-5.8c3,0.1,4.8,2.5,4.7,4.8
			C320.7,154.9,320.8,155.1,320.8,155.3L320.8,155.3L320.8,155.3z M318.8,155.1c0-0.3,0-0.5,0-0.8c-0.1-0.9-0.4-1.8-1.1-2.3
			c-1.5-1.2-3.7-0.6-4.4,1.1c-0.5,1.2-0.5,2.5-0.2,3.8c0.4,1.5,2.4,2.4,3.8,1.6C318.3,157.8,319,156.6,318.8,155.1L318.8,155.1z"/>
		<path class="st0" d="M255.8,155.6c-0.5,0-1.1,0-1.6,0c-0.3,0-0.5,0.1-0.5,0.5c0.1,0.7,0.3,1.3,1,1.8c1.2,0.8,2.6,0.9,3.9,0.6
			c0.7-0.1,1.3,0,1.9,0.3c0.3,0.1,0.2,0.3,0,0.4c-0.4,0.4-0.9,0.7-1.5,0.9c-1.6,0.4-3.1,0.2-4.7-0.3c-0.9-0.3-1.6-0.9-1.9-1.9
			c-0.5-1.6-0.8-3.1-0.2-4.7c0.6-1.5,1.8-3.1,4-3.2c0.4,0,0.9,0,1.3,0c1.1,0.1,2,0.6,2.6,1.6c0.5,0.8,0.9,1.7,1,2.6
			c0,0.5-0.1,0.8-0.7,0.9c-0.2,0-0.4,0.1-0.5,0.1C258.5,155.4,257.1,155.6,255.8,155.6L255.8,155.6L255.8,155.6z M256.5,154.1
			c0.6,0.1,1.2,0,1.9-0.1c0.3-0.1,0.6-0.2,0.7-0.6c0-0.6-0.3-1.2-0.8-1.6c-0.5-0.4-1.3-0.6-2-0.4c-0.5,0.2-1.1,0.3-1.6,0.6
			c-0.5,0.3-0.9,1.2-0.6,1.7c0.1,0.2,0.2,0.2,0.4,0.2C255.2,154,255.9,154.1,256.5,154.1L256.5,154.1L256.5,154.1z"/>
		<path class="st0" d="M226.3,150.9c0.9-0.2,1.7-0.4,2.5-0.7c1-0.3,2-0.2,3,0c1,0.3,1.5,1.1,1.7,2.1c0.2,0.9,0.2,1.9,0.3,2.8
			c0.1,0.9,0.1,1.8,0,2.6c-0.1,0.7,0.4,1.4,0.4,2.1c0,0.2,0.2,0.4,0,0.6c-0.2,0.1-0.4,0-0.6-0.1c-0.4-0.2-0.9-0.4-1.4-0.6
			c-0.6-0.3-1.2-0.3-1.8,0c-0.1,0.1-0.3,0.1-0.4,0.2c-0.4,0.2-0.8,0.6-1.4,0.4c-0.9-0.3-1.7-0.6-2.2-1.3c-0.2-0.3-0.2-0.5-0.2-0.8
			c-0.2-2.6,1.1-3.7,3.1-4c0.7-0.1,1.3-0.2,2-0.4c0.5-0.1,0.7-0.4,0.6-0.9c-0.2-1.1-1.4-1.6-2.2-1.2c-0.9,0.4-1.7,0.2-2.5,0.1
			c-0.1,0-0.3-0.1-0.3-0.3C226.7,151.1,226.4,151.1,226.3,150.9L226.3,150.9L226.3,150.9z M230.2,155.3c-0.4,0.1-0.9,0.1-1.3,0.2
			c-0.9,0.2-1.3,0.8-1.1,1.7c0.1,0.8,0.8,1.4,1.6,1.4c1.1,0,1.7-0.8,2.3-1.6c0.1-0.2,0.2-0.5,0.2-0.8c0.1-0.6-0.4-1-1-0.9
			C230.7,155.4,230.5,155.4,230.2,155.3L230.2,155.3L230.2,155.3z"/>
		<path class="st0" d="M283.9,155.5c-0.1-1.6,0.1-3.2-0.2-4.7c0-0.2,0-0.4,0.3-0.5c0.5,0,0.9-0.1,1.3,0.2c0.5,0.4,1.1,0.4,1.7,0.2
			c0.5-0.2,0.9-0.3,1.4-0.5c1.6-0.7,3.8,0.7,3.9,2.6c0,1.7,0.3,3.5,0.1,5.2c-0.1,0.6,0.2,1.2,0,1.8c-0.1,0.3-0.1,0.6-0.5,0.7
			c-0.4,0.1-0.5-0.2-0.7-0.4c-0.5-0.6-0.2-1.2-0.2-1.8c0-1.8-0.1-3.6-0.3-5.4c0-0.6-0.5-0.9-1.1-0.9c-0.7,0-1.4,0-2,0.2
			c-1,0.3-1.4,0.8-1.5,1.8c-0.2,1.6-0.1,3.3-0.1,4.9c0,0.4,0,0.8-0.1,1.2c-0.1,0.3-0.2,0.6-0.6,0.7c-0.4,0-0.7-0.1-1-0.4
			c-0.2-0.4-0.4-0.9-0.4-1.4L283.9,155.5L283.9,155.5L283.9,155.5z"/>
		<path class="st0" d="M333.4,164.1c0.7-0.9,1.5-1.6,2.2-2.3c0.3-0.3,0.6-0.6,0.8-1c0.4-0.6,0.6-1.2,0.2-1.9c-0.3-0.5-0.5-1-0.6-1.6
			c-0.4-2.1-1.4-3.9-2.1-5.9c-0.1-0.2-0.1-0.4-0.2-0.6c-0.1-0.4,0.1-0.6,0.5-0.6c0.7-0.1,0.9-0.1,1.2,0.6c0.6,1.6,1.6,3,1.9,4.7
			c0.1,0.4,0.1,0.8,0.2,1.2c0,0.2,0.1,0.5,0.4,0.5c0.3,0.1,0.5-0.2,0.5-0.4c0.4-1.1,0.8-2.2,1.2-3.3c0.4-1.2,0.8-2.4,1.7-3.3
			c0.2-0.2,0.4-0.5,0.7-0.3c0.3,0.2,0.5,0.5,0.4,0.9c-0.1,0.5-0.2,0.9-0.4,1.4c-0.5,0.8-0.8,1.6-1,2.5c-0.5,1.9-1.4,3.6-2.1,5.4
			c-0.4,1-1.1,1.9-1.8,2.8c-0.6,0.9-1.7,1.1-2.7,1.2C334.2,164.2,333.8,164.1,333.4,164.1L333.4,164.1L333.4,164.1z"/>
		<path class="st0" d="M246.3,155.5c0-0.5,0-1.1,0.1-1.6c0.1-0.6-0.1-1.2-0.7-1.5c-0.3-0.2-0.5-0.3-0.7-0.6c-0.2-0.3-0.3-0.7,0-0.9
			c0.7-0.8,1.1-1.8,1.7-2.7c0.2-0.3,0.4-0.8,1-0.7c0.5,0.1,0.8,0.4,1,0.9c0.1,0.4,0.6,0.8,0.1,1.3c-0.1,0.1,0,0.3,0.2,0.3
			c0.6,0,1,0.4,1.5,0.6c0.4,0.2,0.5,0.6,0.4,1c-0.1,0.4-0.2,0.8-0.8,0.8c-0.2,0-0.4,0.1-0.6,0.1c-1,0.2-1.1,0.2-1.1,1.2
			c0.1,1.3,0,2.6,0.4,3.8c0.1,0.4,0.4,0.7,0.8,1c0.6,0.4,1.1,0.9,1,1.8c0,0.4-0.2,0.6-0.7,0.6c-1-0.1-1.8-0.4-2.7-0.9
			c-0.3-0.2-0.5-0.5-0.5-0.8C246.5,157.8,246.3,156.6,246.3,155.5L246.3,155.5L246.3,155.5z"/>
		<path class="st0" d="M267.4,160.3c-0.9,0.1-1.6-0.1-2.4-0.3c-1-0.3-1.6-1.1-2.1-2c-1.9-3.3,0.2-7.6,4-8.1c0.8-0.1,1.6,0.2,2.5,0.3
			c0.2,0,0.4,0.1,0.5,0.1c0.6,0.1,0.8,0.2,0.7,0.8c-0.1,0.8-0.3,0.9-0.9,0.8c-0.6-0.1-1.2-0.2-1.9-0.2c-1.5-0.1-3.1,1.1-3.4,2.7
			c-0.3,2,0.5,3.4,2.3,4.3c0.6,0.3,1.2,0,1.7-0.1c0.4-0.1,0.9-0.2,1.3-0.1c0.3,0.1,0.6,0.1,0.6,0.5c0,0.4,0,0.8-0.5,1
			C268.9,160.2,268.2,160.4,267.4,160.3L267.4,160.3L267.4,160.3z"/>
		<path class="st0" d="M223.7,160.3c-0.6-0.1-1.3-0.1-2-0.3c-0.8-0.2-1.1-0.5-1.2-1.3c-0.1-1.4-0.2-2.8-0.2-4.2c0-0.6,0-1.2-0.1-1.8
			c-0.1-0.4-0.2-0.6-0.5-0.7c-0.4-0.2-0.7-0.4-1-0.8c-0.2-0.3-0.3-0.6,0.2-0.6c1-0.1,1.3-0.7,1.5-1.6c0-0.2,0.1-0.4,0.1-0.6
			c0.1-0.4,0.3-0.8,0.6-1c0.3-0.2,0.6-0.2,0.9,0c0.3,0.2,0.2,0.6,0.3,0.8c0.1,0.3,0.3,0.5,0,0.8c-0.1,0.1-0.1,0.2-0.1,0.3
			c-0.3,1-0.1,1.2,0.9,1c0.9-0.1,1.7-0.1,2.4,0.4c0.3,0.2,0.3,0.2,0,0.5c-0.5,0.4-1,0.5-1.6,0.6c-0.4,0.1-0.8,0.1-1.2,0.2
			c-0.5,0.1-0.7,0.4-0.6,0.9c0.2,1.3,0.1,2.6,0.3,3.9c0.2,1.2,1.5,2.4,2.8,2.3c0.3,0,0.3,0.1,0.2,0.3
			C225.1,160.1,224.9,160.3,223.7,160.3L223.7,160.3L223.7,160.3z"/>
		<path class="st0" d="M238.5,151c-0.1,1.8,0.1,3.9,0.1,6c0,0.9,0.1,1.7,0,2.6c-0.1,0.7-1,1.2-1.7,1c-0.2-0.1-0.3-0.2-0.4-0.5
			c-0.1-0.4-0.2-0.8-0.2-1.1c0-1.3-0.1-2.6,0-3.9c0.1-2.6,0.1-5.1,0.1-7.6c0-0.4,0-0.7,0.1-1.1c0.2-0.4,0.4-0.7,0.9-0.6
			c0.5,0,0.8,0.3,0.9,0.8c0,0.3,0.1,0.6,0.1,0.8C238.5,148.5,238.5,149.6,238.5,151L238.5,151L238.5,151z"/>
		<path class="st0" d="M201.1,154.5c0.1,1.4,0,3.1-0.2,4.9c-0.1,0.8-0.5,1.2-1.2,1.2c-0.7,0-1.3-0.6-1.4-1.2c0-2-0.4-3.9-0.3-5.9
			c0-0.7-0.4-1.4-0.2-2.2c0.1-0.4,0.1-0.6,0.6-0.7c0.3,0,0.6-0.2,0.9-0.2c1.1-0.3,1.8,0.3,1.8,1.4
			C201.1,152.5,201.1,153.3,201.1,154.5L201.1,154.5L201.1,154.5z"/>
		<path class="st0" d="M308.6,153.1v5.9c0,0.4,0,0.8-0.3,1.2c-0.4,0.5-0.9,0.5-1.2-0.1c-0.1-0.3-0.2-0.6-0.2-0.9
			c-0.2-2.6-0.1-5.2-0.1-7.8c0-1.4,0-2.7-0.1-4.1c0-0.4,0-0.7,0.1-1c0.1-0.3,0.2-0.6,0.6-0.6c0.4,0,0.7,0.2,0.9,0.6
			c0.2,0.3,0.2,0.6,0.2,0.9L308.6,153.1L308.6,153.1L308.6,153.1L308.6,153.1z"/>
		<path class="st0" d="M217.2,155.5c0,1.2-0.1,2.4,0.1,3.6c0.1,0.5,0,1-0.5,1.2c-0.6,0.2-1.3,0.1-1.9-0.2c-0.1-0.1-0.2-0.2-0.2-0.4
			c-0.1-2.9-0.2-5.8,0.1-8.7c0.1-0.7,0.3-0.8,1-0.8c0.8,0,1,0.2,1.1,0.8C217.3,152.5,217.2,154,217.2,155.5L217.2,155.5L217.2,155.5
			z"/>
		<path class="st0" d="M200.5,147.4c0,0.6-0.4,1.1-0.8,1.6c-0.1,0.2-0.3,0.1-0.4,0c-0.4-0.4-0.7-1-0.8-1.6c-0.1-0.4,0.8-1.3,1.2-1.3
			C200.1,146.1,200.5,146.7,200.5,147.4L200.5,147.4L200.5,147.4z"/>
		<path class="st0" d="M216.8,147.6v0.4c0,0.8-0.2,0.8-0.9,0.7c-0.5-0.1-0.8-0.3-0.9-0.7c-0.1-0.5,0.1-1,0.3-1.5
			c0.1-0.3,0.6-0.3,0.9-0.2c0.4,0,0.6,0.2,0.7,0.6C216.8,147.1,216.8,147.4,216.8,147.6L216.8,147.6L216.8,147.6z"/>
		<path class="st0" d="M112.5,114.4c3.7-0.1,6.2,2.3,6.1,5.9c-0.2,3.9-2.2,5.9-5.9,5.9c-3.8,0-6.1-2.4-6.2-6
			C106.3,117.5,109.3,114,112.5,114.4L112.5,114.4L112.5,114.4z"/>
	</g>
</g>
</svg>
