<?xml version="1.0" encoding="UTF-8"?>
<svg id="Layer_1" data-name="Layer 1" xmlns="http://www.w3.org/2000/svg" viewBox="0 0 567 243">
  <defs>
    <style>
      .cls-1 {
        fill: #fff;
      }
    </style>
  </defs>
  <g id="okhxr8.tif">
    <g>
      <path class="cls-1" d="m501.21,92.89c-.19-.28-.1-.62-.16-.93-.04-.21-.09-.44-.38-.42-.25.02-.33.21-.31.42.04.5-.2.78-.63.99-.19.09-.34.25-.5.39-1.44,1.39-4.55,1.37-6.17.02-1.34-1.11-1.63-2.53-1.68-4.09-.03-.92.36-1.75.79-2.54.59-1.08,1.75-1.64,2.99-1.53.67.06,1.36.11,2.02,0,.93-.15,1.65.22,2.22.79.37.37.71.46,1.16.44.21,0,.43,0,.64,0v6.43h0Zm-3.73-3.02c-.02.29,0,.59-.05.88-.07.41-.26.74-.7.85-.25.07-.47.16-.7.26-.72.3-1.22,0-1.25-.74-.05-1.07-.07-2.14.08-3.2.08-.55-.26-1.17-.71-1.3-.37-.11-.87.19-1.14.7-.02.03-.03.07-.04.09-.6,1.17-.66,2.38-.32,3.64.26.96,1.17,1.76,2.17,1.84.2.02.41,0,.58.07,1.66.57,2.85-.26,3.98-1.28.19-.17.17-.41.24-.62.25-.9.37-1.79-.1-2.66-.02-.04,0-.1-.01-.16-.04-.73-.85-1.52-1.6-1.54-.19,0-.38.03-.57-.05-.22-.09-.34.05-.37.25-.04.23-.05.48.08.67.45.71.37,1.52.45,2.31h0Z"/>
      <path class="cls-1" d="m205.59,116.43c.1,2.99.03,5.82-.12,8.64-.13,2.41-.3,4.84-.92,7.2-.83,3.12-2.47,5.78-4.99,7.81-3.59,2.89-7.61,3.53-11.94,1.8-2.09-.84-3.91-2.09-5.44-3.74-.15-.16-.31-.47-.52-.4-.28.09-.15.43-.14.66.24,5.76.28,11.52.18,17.29-.03,1.62-.03,3.23.02,4.85.02.8-.38,1.14-1.19,1.13-1.85-.03-3.7-.07-5.55-.09-1.67-.02-1.93-.27-1.93-1.89,0-3.18,0-6.36,0-9.55v-55.31c0-.89.2-1.13,1.08-1.1,1.22.03,2.43-.13,3.64-.1.75.02,1.49.06,2.24.09.18,0,.36,0,.54-.02.68-.09.86,0,1.01.69.18.83.09,1.68.05,2.52-.01.18-.03.35-.01.52.05.41.28.5.64.3.38-.21.67-.53.95-.85,1.53-1.73,3.42-2.84,5.7-3.33,3.32-.72,6.42-.27,9.33,1.55,3.91,2.45,5.83,6.07,6.67,10.41.71,3.66.85,7.36.72,10.92h0Zm-23.97,2.08v1.42c-.02,2.75.19,5.47.85,8.15.26,1.02.65,1.98,1.41,2.74,1.23,1.24,2.78,1.81,4.5,1.94,1.39.11,2.73-.16,4.07-.47,1.06-.24,1.84-.83,2.44-1.68.55-.78.95-1.65,1.18-2.58.53-2.1.83-4.24.93-6.4.2-4.25-.18-8.46-1.09-12.61-.26-1.19-.55-2.38-1.45-3.35-1.75-1.87-3.94-2.45-6.39-2.32-1.83.1-3.36.77-4.3,2.43-.46.82-.84,1.67-1.03,2.59-.68,3.34-1.36,6.68-1.13,10.13h0Z"/>
      <path class="cls-1" d="m340.01,121.92h-11.35c-1.24,0-1.58.27-1.35,1.47.46,2.36.87,4.76,2.4,6.76.89,1.17,2,2.05,3.38,2.58,1.99.76,3.97.83,6.08.32,2.48-.6,4.28-2.1,5.96-3.81.3-.3.5-.31.87-.14.71.35,1.14.95,1.59,1.53.87,1.12,1.83,2.16,2.84,3.15,1.19,1.18,1.21,1.21.18,2.52-1.96,2.49-4.56,4.11-7.49,5.24-1.89.73-3.85,1.16-5.89,1.25-2.57.13-4.92-.69-7.25-1.59-3.35-1.29-5.87-3.56-7.85-6.44-1.44-2.1-2.07-4.48-2.47-6.96-.64-3.84-.98-7.71-.82-11.6.13-3.05.29-6.12,1.07-9.09.71-2.68,1.63-5.32,3.43-7.49,2.16-2.59,4.75-4.74,8.05-5.72,3.43-1.02,6.92-1.06,10.23.53,2.87,1.38,5.22,3.38,7.08,5.96,1.84,2.56,2.64,5.46,3.21,8.47.33,1.76.51,3.54.54,5.34.03,1.53-.05,3.05.09,4.58.05.59.03,1.19.02,1.79-.02,1.18-.18,1.32-1.36,1.32h-11.19Zm-4.28-8.46h7.22c.82,0,.83-.01.8-.84-.05-1.34-.45-2.59-.96-3.82-.96-2.34-2.49-4.13-4.85-5.31-2.34-1.17-5.47-.34-6.97,1.11-2.17,2.09-3.32,4.71-3.77,7.63-.14.89.09,1.12.98,1.2.23.02.47.02.7.02h6.85Z"/>
      <path class="cls-1" d="m264.56,121.92h-11.4c-1.28,0-1.42.18-1.22,1.44.2,1.23.43,2.46.76,3.67.74,2.73,2.48,4.65,5.09,5.74,3.36,1.41,6.51.75,9.42-1.21.92-.62,1.72-1.43,2.46-2.26.32-.36.6-.38.97-.13.85.56,1.57,1.28,2.24,2.02.77.85,1.67,1.59,2.3,2.56.09.13.19.26.27.39.54.87.54,1.08-.08,1.89-1.89,2.5-4.32,4.3-7.3,5.39-1.25.46-2.5.95-3.83,1.17-3.32.56-6.47.05-9.54-1.32-2.09-.94-3.98-2.14-5.66-3.65-1.63-1.47-2.83-3.22-3.56-5.31-.89-2.52-1.39-5.11-1.69-7.76-.26-2.24-.3-4.48-.38-6.73-.07-1.91.14-3.82.33-5.73.16-1.57.34-3.14.68-4.69.61-2.71,1.55-5.32,3.33-7.47,2.66-3.21,5.83-5.77,10.19-6.48,4.71-.76,8.75.52,12.32,3.58,3.49,2.99,5.26,6.85,6.14,11.23.5,2.52.65,5.05.62,7.6-.01,1.44.06,2.88.09,4.32,0,.16,0,.32-.01.48-.07,1.12-.2,1.24-1.34,1.24h-11.25,0Zm-4.45-8.47h0c2.57,0,5.14,0,7.71,0,.61,0,.68-.07.64-.67-.01-.16-.04-.31-.07-.47-.22-1.34-.62-2.63-1.06-3.91-.76-2.21-2.28-3.76-4.34-4.86-2.95-1.58-6.7-.41-8.27,1.7-1.7,2.27-2.6,4.86-2.95,7.65-.05.45.14.57.57.57,2.58-.01,5.17,0,7.76,0h0Z"/>
      <path class="cls-1" d="m154.74,109.28c-.07,1.93-.33,3.79-1.36,5.51-.79,1.32-1.52,2.66-2.43,3.9-.98,1.34-2.29,2.3-3.59,3.29-.59.45-1.18.91-1.78,1.34-.31.22-.38.47-.28.82.17.64.4,1.24.78,1.78,1.4,2,2.51,4.16,3.61,6.33.78,1.55,1.54,3.09,1.95,4.77.68,2.8,1.18,5.62.54,8.5-.53,2.37-1.8,4.26-3.88,5.6-2.76,1.76-5.83,2.21-9.06,2.06-1.84-.08-3.68-.22-5.45-.68-3.96-1.02-7.97-1.94-11.73-3.62-.73-.32-.9-.24-1.21.49-1.26,3.01-3.25,5.56-5.33,8.04-1.03,1.24-2.14,2.4-3.43,3.39-1.38,1.06-2.81,2.06-4.52,2.43-2.5.53-5.02.56-7.24-1.01-1.43-1.01-2.49-2.36-3.32-3.88-1.39-2.52-2.36-5.18-2.85-8.02-.31-1.76-.8-3.49-1.09-5.27-.11-.71.07-1.4.06-2.1-.01-.66-.06-.74-.71-.78-1.83-.11-3.67-.17-5.5-.31-3.16-.25-6.36-.16-9.48-.76-2.98-.57-5.88-1.43-8.33-3.38-1.64-1.3-2.57-2.96-3.09-4.92-.34-1.31-.31-2.56.07-3.88.54-1.87,1.32-3.6,2.38-5.22.66-1,1.53-1.85,2.39-2.69.47-.46.94-.91,1.39-1.39,1.14-1.25,2.52-2.23,3.8-3.32.52-.44.58-1.26.16-1.82-1.63-2.17-3.33-4.3-4.55-6.75-1.19-2.39-2.58-4.69-3.28-7.31-.41-1.53-.99-3.01-1.23-4.58-.22-1.46-.34-2.95.01-4.35.65-2.6,1.85-4.81,4.37-6.27,2.56-1.48,5.25-1.78,8.09-1.65,1.11.05,2.21.05,3.31.13,2.63.19,5.21.59,7.7,1.43.39.13.79.23,1.19.3,1.25.21,2.38.72,3.53,1.2,1.65.7,3.39,1.21,4.99,2.04.63.32,1.29.62,1.88,1,.7.44,1.45.75,2.21,1.07.69.3,1.1.16,1.51-.47,1.55-2.4,3.37-4.59,5.52-6.48,1.86-1.64,3.88-3.08,6.47-3.37,3.33-.38,6.18.55,8.32,3.2.93,1.15,1.65,2.41,2.18,3.79,1.19,3.1,2.05,6.29,2.54,9.57.11.74.17.82.9.93.13.02.25.05.37.04,2.47-.21,4.85.45,7.26.79,1.4.19,2.8.34,4.18.61,2.38.47,4.65,1.26,6.71,2.51,1.18.72,2.17,1.72,3.02,2.81.86,1.1,1.23,2.41,1.32,3.78.02.28,0,.56,0,.84h0Zm-59.94,19.83c-.2,1.17.43,1.95,1.29,2.55,1.17.81,2.28,1.68,3.39,2.56,1.63,1.29,3.43,2.34,5.18,3.46.62.4,1.36.62,2.09.54,1.59-.17,3.22-.27,4.74-.77,2.73-.89,5.52-1.54,8.22-2.54,1.9-.71,3.81-1.37,5.62-2.3.65-.33.99-.7,1.17-1.42.41-1.62.76-3.25,1.19-4.87.45-1.71.65-3.49,1.01-5.22.24-1.16.2-2.35.51-3.49.51-1.88.81-3.77.68-5.72-.08-1.16-.36-2.17-1.3-2.94-.49-.4-.94-.87-1.43-1.27-1.69-1.41-3.3-2.9-5.1-4.18-.73-.53-1.64-.81-2.24-1.49-.68-.77-1.56-.77-2.46-.64-3.62.53-7.17,1.37-10.68,2.39-1.42.41-2.8.94-4.23,1.32-1.47.39-2.51,1.31-2.95,2.72-.44,1.42-.91,2.85-1.32,4.28-.66,2.32-1.27,4.65-1.8,6.99-.61,2.73-.94,5.5-1.38,8.26-.09.59-.13,1.19-.19,1.78h0Zm-15.1-44c-.77,0-1.53-.02-2.3,0-.79.02-1.54.31-2.29.53-.99.29-2.03.45-2.83,1.18-.5.45-1,.9-1.5,1.35-1.99,1.81-2.61,4.12-2.29,6.67.4,3.21,1.26,6.28,2.89,9.14.55.96,1.06,1.94,1.63,2.9,1.5,2.5,3.25,4.83,4.95,7.19.19.27.37.33.66.16.5-.3,1.02-.58,1.53-.87,1.46-.82,2.79-1.84,4.34-2.49.51-.21.99-.49,1.48-.74,1.57-.8,3.09-1.7,4.72-2.34,2.18-.87,4.28-1.94,6.54-2.63.91-.28,1.52-.88,1.96-1.75.71-1.4,1.28-2.86,1.99-4.26.88-1.73,1.91-3.38,2.55-5.22.41-1.17.22-1.71-.89-2.28-1.11-.56-2.24-1.06-3.39-1.55-2.86-1.2-5.7-2.4-8.67-3.32-3.61-1.12-7.27-1.74-11.05-1.69v.02Zm59.96,66.38c1.35.03,2.67-.21,3.99-.43,2.41-.41,4.23-1.78,5.76-3.57.52-.61.97-1.27,1.11-2.07.11-.67.25-1.34.32-2.03.22-2.05.14-4.05-.56-6.03-.9-2.57-2.06-5.01-3.37-7.39-.5-.91-1.12-1.75-1.62-2.67-.33-.6-.8-1.12-1.29-1.6-.26-.26-.59-.45-.9-.18-.94.82-2.1,1.26-3.14,1.89-1.57.95-3.09,1.95-4.71,2.81-2,1.06-4.03,2.02-6.15,2.82-.99.38-1.75.99-2.11,2.02-.5,1.43-1.05,2.84-1.54,4.27-.78,2.3-1.58,4.59-2.88,6.67-.44.71-.3,1.13.45,1.52.28.15.57.3.87.41,2.65.94,5.26,1.98,8.03,2.55.8.16,1.57.53,2.38.61,1.78.19,3.59.27,5.38.4h.01Zm-50.93-10.81c.91.04,1.82-.03,2.73-.11.77-.07,1.01-.31,1.05-1.06.03-.6.09-1.19.09-1.79-.01-1.42.03-2.85.32-4.25.23-1.15.15-2.2-.82-3.02-1.16-.99-2.32-1.98-3.47-2.97-2.16-1.87-4.16-3.9-6.18-5.91-1.4-1.39-2.64-2.91-3.96-4.36-.33-.36-.56-.33-.93-.03-.83.69-1.7,1.33-2.56,1.99-.93.72-1.88,1.4-2.64,2.29-1.82,2.12-3.68,4.24-4.54,6.95-.68,2.15-.61,4.25.77,6.19.68.94,1.64,1.55,2.54,2.23,1.58,1.18,3.37,1.97,5.27,2.5,1.69.48,3.41.71,5.15.88,2.4.24,4.79.41,7.2.45h0Zm16.32,21.34c.32-.03.62-.04.93-.08,2.55-.37,4.56-1.7,6.35-3.45,1.88-1.86,3.59-3.86,5.04-6.07.74-1.14,1.35-2.36,1.83-3.62.19-.5.12-.94-.38-1.29-.76-.54-1.62-.88-2.44-1.25-3.12-1.42-6.06-3.15-9.03-4.82-1.06-.6-2.18-.88-3.39-.66-2.63.48-5.28.78-7.93,1.11-1.67.21-1.64-.02-1.44,1.78.31,2.84.77,5.67,1.49,8.45.7,2.67,1.81,5.12,3.61,7.27,1.41,1.69,3.21,2.5,5.37,2.63h0Zm48.4-52.85c-.07-1.64-.43-3.11-1.56-4.2-1.93-1.88-4.31-3.09-6.9-3.77-4.08-1.07-8.24-1.62-12.49-1.31-.28.02-.56.07-.85.09-.27.02-.38.16-.36.42.02.22.04.45.09.68.24.96.33,1.94.33,2.92,0,1.34-.03,2.67.12,4,.08.71.04,1.47.55,2.05.72.83,1.45,1.65,2.22,2.42.97.97,1.98,1.93,3.01,2.85.99.88,1.72,1.97,2.6,2.93,1.03,1.13,2.1,2.26,2.83,3.62.39.73.55.79,1.26.33,1.8-1.12,3.38-2.45,4.74-4.09.7-.84,1.33-1.72,2.01-2.57,1.53-1.91,2.21-4.1,2.39-6.38h0Zm-45.96-17.74c-.07.61.27.99.74,1.3,1.8,1.15,3.75,2.03,5.51,3.24,1.33.91,2.74,1.7,4.11,2.57.59.37,1.19.64,1.9.6,1.08-.06,2.16-.16,3.25-.16,1.94,0,3.88-.24,5.8-.48.68-.09.91-.34.79-1.02-.15-.85-.36-1.69-.49-2.53-.53-3.49-1.62-6.75-3.7-9.67-.95-1.32-2.01-2.44-3.61-2.97-.88-.3-1.78-.65-2.71-.49-2.06.36-3.94,1.07-5.57,2.48-2.12,1.83-4.05,3.8-5.65,6.09-.22.32-.41.66-.38,1.07v-.02Zm-9.97,15.54c-.14.04-.31.08-.48.14-2.01.67-3.95,1.52-5.89,2.35-3.16,1.35-6.14,3.05-9.07,4.83-.74.45-1.43.99-2.33,1.12-.39.05-.43.28-.28.61.16.38.48.61.76.88,1.3,1.25,2.36,2.73,3.67,3.97,2.2,2.07,4.38,4.18,6.56,6.28.69.66,1.38,1.32,1.95,2.09.1.13.38.41.42.21.08-.47.54-.69.61-1.14.1-.64.25-1.28.33-1.92.21-1.67.39-3.35.61-5.01.25-1.92.94-3.75,1.29-5.65.37-1.99.74-3.97,1.43-5.88.28-.78.51-1.57.75-2.37.08-.25.12-.51-.32-.5h0Zm33.59,3.88c.05.34.11.61.13.87.07.96.32,1.9,0,2.87-.31.94-.47,1.91-.61,2.89-.22,1.6-.34,3.21-.59,4.81-.42,2.66-1.22,5.24-1.68,7.89-.08.46-.33.89-.5,1.33-.04.11-.1.25.02.34.11.09.24.04.35-.02.25-.13.53-.24.74-.42.7-.58,1.52-.92,2.33-1.27,1.92-.82,3.74-1.82,5.58-2.8,1.6-.84,3.12-1.84,4.57-2.93.44-.33.57-1.12.28-1.58-.77-1.23-1.72-2.32-2.69-3.41-1.2-1.35-2.34-2.74-3.72-3.93-.84-.72-1.66-1.5-2.26-2.46-.51-.83-1.16-1.54-1.97-2.21h0Zm-7.11,24.46c-.36.09-.74.15-1.11.27-2.87.95-5.74,1.91-8.68,2.66-1.74.44-3.4,1.18-5.22,1.32-.42.03-.52.31-.29.68.33.52.84.86,1.37,1.14,2.1,1.12,4.21,2.23,6.33,3.31,1.18.61,2.32,1.33,3.64,1.64.91.22.92.14,1.03-.55.04-.22.15-.43.24-.64.41-.94.95-1.82,1.33-2.76.84-2.09,1.57-4.22,2.34-6.33.13-.34.04-.59-.37-.65-.19-.03-.38-.07-.61-.11h0Zm-22.5-32.39c0,.6.24.74.93.48,1.51-.56,3.04-.98,4.61-1.34,1.8-.42,3.54-1.06,5.38-1.35.91-.14,1.83-.29,2.69-.67.24-.1.57-.09.55-.46-.02-.38-.02-.76-.5-.94-.41-.16-.8-.38-1.18-.62-1.13-.74-2.25-1.49-3.41-2.17-1.01-.59-2.04-1.15-3.04-1.77-1.43-.89-1.74-.81-2.52.67-.03.06-.06.13-.1.19-1.13,1.94-1.85,4.07-2.8,6.09-.28.6-.62,1.19-.61,1.89Zm20.55-2.45c-.29-.1-.49.08-.72.18-.37.16-.32.32-.02.5.24.15.49.29.73.44,1,.65,1.76,1.59,2.72,2.29.7.51,1.39,1.03,2.04,1.62.78.72,1.53,1.47,2.4,2.1.19.14.37.35.61.21.26-.15.16-.39.06-.61-.08-.16-.06-.31.05-.44.16-.21.16-.46.16-.71.03-1.26-.18-2.52-.11-3.79.03-.52.1-1.04.03-1.57-.05-.44-.24-.62-.64-.7-1.09-.21-2.2-.18-3.24.07-1.35.31-2.74.07-4.06.42h0Zm-26.98,32.09c-.21.23-.19.43-.2.62-.1,1.43-.23,2.87-.31,4.31-.04.77-.09,1.54.1,2.31.1.39.25.58.74.51,1.94-.28,3.87-.63,5.8-.97.4-.07.72-.18.85-.59.13-.4-.12-.65-.38-.85-1.35-1.03-2.67-2.12-4.1-3.05-.96-.63-1.88-1.24-2.5-2.28h0Z"/>
      <path class="cls-1" d="m360.68,117.83v-23.42c0-.9,0-.94.91-.88,2.24.15,4.49-.01,6.73.29.48.07.71.24.82.72.19.82.1,1.65.14,2.47.01.24-.1.54.18.67.26.12.46-.13.66-.26.84-.52,1.41-1.34,2.2-1.93,1.64-1.22,3.49-1.89,5.5-2.18,3.76-.56,6.89.78,9.72,3.08,3.29,2.66,4.94,6.12,5.32,10.27.28,3.1.43,6.2.42,9.31-.03,8.46-.01,16.91-.01,25.37,0,.56-.28.84-.85.85h-6.91c-.56,0-.84-.28-.84-.85,0-9.41.02-18.81-.01-28.22-.01-2.45-.71-4.75-2.25-6.69-1.31-1.65-3.03-2.78-5.24-2.92-.98-.06-1.92.2-2.79.62-1.91.9-3.31,2.28-4.14,4.22-.66,1.54-.99,3.1-.98,4.81.05,9.39.02,18.77.02,28.16,0,.58-.29.88-.87.88h-6.96q-.76,0-.76-.77v-23.57h0Z"/>
      <path class="cls-1" d="m457.06,116.13c.27,1.87.08,3.93.01,5.97-.09,2.74-.2,5.48-1.06,8.12-1.2,3.74-3.21,6.93-6.29,9.48-2.41,2-5.27,2.7-8.29,3.01-3.6.37-6.87-.59-9.71-2.7-3.37-2.51-5.72-5.79-6.81-9.89-.65-2.46-1.07-4.94-1.07-7.49,0-3.51-.09-7.03.04-10.54.14-3.83.88-7.56,2.93-10.89,1.98-3.2,4.66-5.66,8.19-7.16,1.11-.48,2.3-.59,3.5-.7,1.69-.15,3.37-.24,5.06.08,2.37.45,4.36,1.6,6.24,3.01,4.13,3.1,6.06,7.39,6.83,12.3.27,1.69.3,3.39.33,5.1.02.7.16,1.4.08,2.29h0Zm-24.79,3.34c-.05,2.67-.11,4.5.4,6.28.53,1.83,1.11,3.66,2.61,4.99,1.54,1.36,3.29,2.34,5.46,2.12,1.28-.13,2.52-.45,3.7-.99.51-.23.94-.59,1.28-1.01,1.47-1.84,2.46-3.91,2.89-6.21.38-2.06.27-4.17.41-6.25.15-2.12-.04-4.25-.32-6.36-.34-2.6-1.34-4.89-3.35-6.71-1.31-1.18-2.82-1.84-4.59-1.88-3.39-.07-5.62,1.64-7.11,4.51-1.13,2.17-1.59,4.48-1.53,6.91.05,1.81.2,3.61.14,4.59h.01Z"/>
      <path class="cls-1" d="m298.21,142.17c-.78,0-1.57-.02-2.35,0-.78.03-1.29-.31-1.63-.97-.45-.87-.67-1.82-.95-2.74-1.86-6.35-3.83-12.66-5.83-18.97-1.16-3.64-2.17-7.33-3.36-10.95-1.31-3.98-2.28-8.06-3.72-12-.25-.69-.42-1.42-.6-2.14-.18-.68-.01-.84.68-.74.8.11,1.6.05,2.4.05,1.43,0,2.86,0,4.28,0,1.18,0,1.34.11,1.65,1.22,1.12,4.03,2.22,8.08,3.32,12.12.65,2.38,1.42,4.72,2.08,7.09.79,2.83,1.52,5.68,2.36,8.49.31,1.03.72,2.03.95,3.08.01.05.03.1.05.15.13.3.3.63.66.61.36-.03.41-.4.47-.69.34-1.82.72-3.63,1.24-5.4,1.39-4.67,2.66-9.38,4.01-14.06.7-2.4,1.34-4.81,1.92-7.24.34-1.42.74-2.82,1.12-4.23.19-.72.6-1.14,1.42-1.18,1.37-.07,2.75-.03,4.12-.04.93,0,1.86.02,2.79-.01.52-.02.7.24.75.68.04.37-.02.73-.15,1.09-1.89,5.23-3.37,10.6-5.04,15.9-1.49,4.74-3.06,9.44-4.46,14.21-1.12,3.82-2.31,7.61-3.42,11.43-.46,1.59-1.06,3.14-1.43,4.75-.08.34-.29.49-.65.49-.89-.01-1.78,0-2.68,0h0Z"/>
      <path class="cls-1" d="m412.52,86.42v6.27c0,.8.17.99.99,1.03,1.18.05,2.35.02,3.53-.11,1.28-.15,1.46-.02,1.48,1.24.03,1.72.03,3.44.01,5.17-.02,1.92.19,1.63-1.7,1.65-1.14.01-2.28,0-3.43,0-.89.01-.95.1-.99.97-.17,5.18-.12,10.36-.07,15.55.03,2.86,0,5.73.09,8.6.03,1.09.04,2.18.11,3.26.11,1.82.71,2.45,2.75,2.7.72.09,1.46.08,2.19.12,1.06.07,1.25.29,1.11,1.31-.02.18-.05.35-.05.53-.04,2.23-.08,4.46-.11,6.7-.01.72-.05.77-.8.77-2-.01-4,.09-5.97-.37-3.33-.77-5.51-2.8-6.77-5.88-.57-1.41-.7-2.9-.83-4.39-.19-2.07-.12-4.14-.09-6.22.02-1.11.2-2.21.15-3.31-.06-1.51-.04-3.02-.05-4.53-.02-3.09.01-6.19-.03-9.29-.02-1.47-.1-2.95-.08-4.42,0-.42.13-.83.05-1.26-.13-.7-.26-.83-.97-.84-.84-.01-1.68-.03-2.52,0-.55.02-.79-.2-.85-.71-.02-.14-.07-.28-.07-.42.04-2.16-.11-4.31.07-6.47.03-.42.25-.56.67-.57.93-.02,1.84.15,2.78.03.71-.1.79-.1.82-.82.04-.96.02-1.93.02-2.9v-9.65c0-.93.25-1.16,1.19-1.22,1.86-.12,3.71-.09,5.56-.09.21,0,.43,0,.64.02.95.11,1.19.38,1.19,1.32v6.22h-.02,0Z"/>
      <path class="cls-1" d="m214.16,117.9v-23.04c0-.97.15-1.09,1.15-1.14,2.03-.1,4.06-.1,6.1-.07.31,0,.64-.24.92.04.34.35.44.78.44,1.26,0,.81.02,1.62-.28,2.39-.07.19-.12.43.08.59.2.15.42.05.61-.02.27-.11.44-.34.64-.55,2.64-2.8,5.92-4.16,9.78-4.15,2.4,0,4.54.8,6.48,2.17.45.32.86.68,1.31,1,.37.26.43.56.26.96-.53,1.23-1.38,2.25-2.15,3.33-1.02,1.44-2.06,2.87-2.95,4.4-.49.85-.76.89-1.54.33-.83-.6-1.64-1.24-2.64-1.57-2.18-.71-4.1-.21-5.86,1.16-1.99,1.54-2.89,3.67-3.28,6.03-.32,1.89-.48,3.79-.47,5.72.02,5.17.05,10.34-.03,15.5-.04,3.06.11,6.11.04,9.17-.02.74-.03.78-.78.78h-6.69c-.94,0-1.12-.19-1.12-1.12v-23.15h0Z"/>
      <path class="cls-1" d="m474.02,120.33c0,1.99-.01,3.97,0,5.96,0,1.03.08,2.07.07,3.11-.02,2.85-.06,5.69-.08,8.54,0,.96.07,1.93.1,2.9,0,.21,0,.42-.03.63-.06.49-.28.72-.84.72-2.27-.03-4.53-.01-6.8-.01-.67,0-.71-.04-.71-.73,0-2.67.04-5.34-.02-8.01-.04-1.81-.13-3.62-.06-5.43.1-2.88.27-5.76.16-8.64-.33-8.08-.12-16.17-.19-24.25,0-.23-.01-.46.02-.68.07-.51.36-.8.89-.8,2.28,0,4.57,0,6.85,0,.38,0,.59.15.7.5.18.56.23,1.13.24,1.71,0,.53-.04,1.06.1,1.57.12.44.32.5.68.22.15-.12.28-.27.41-.42,1.92-2.43,4.49-3.57,7.54-3.91,2.17-.24,4.23.05,6.2.96,1.22.56,2.27,1.38,3.3,2.23.22.19.24.43.18.68-.08.38-.23.73-.45,1.06-1.16,1.69-2.31,3.38-3.48,5.06-.45.65-.95,1.27-1.43,1.91-.19.25-.44.27-.72.16-.41-.15-.74-.42-1.09-.66-2.04-1.36-4.2-1.6-6.44-.6-3.22,1.46-4.74,4.11-4.99,7.48-.22,2.91-.1,5.83-.11,8.75h-.02Z"/>
      <path class="cls-1" d="m188.13,160.32c-.82,0-1.63-.04-2.45.15-.64.15-1.23-.48-1.13-1.26.24-1.86.04-3.72.04-5.58,0-1.49-.08-2.98-.09-4.48,0-.68.22-1.36-.03-2.04-.08-.22.11-.35.29-.45.3-.17.62-.29.95-.34,1.61-.23,3.22-.47,4.84-.15,1.78.36,3.41,1.04,4.6,2.48,1.27,1.54,1.51,3.35,1.3,5.23-.11,1.06-.21,2.13-.79,3.09-1.17,1.92-2.92,2.92-5.12,3.23-.8.11-1.6.11-2.4.11h0Zm.19-1.7c.65.05,1.32-.14,2-.26,1.73-.3,2.97-1.13,3.38-2.92.02-.1.08-.2.11-.3.34-1.11.73-2.21.42-3.4-.3-1.17-.57-2.31-1.78-2.97-1.71-.94-3.5-.93-5.34-.55-.33.07-.41.3-.4.63.08,2.82.14,5.65-.02,8.47-.05,1,.14,1.26,1.15,1.29h.49,0Z"/>
      <path class="cls-1" d="m202.7,155.66c-.02-1.74.45-3.16,1.42-4.42.59-.76,1.43-1.14,2.32-1.44.26-.09.49.02.7.17.85.61,1.78.71,2.8.47.79-.19,1.6-.37,2.43-.17.29.07.43.15.26.45s-.18.64-.17.97c.05,2.4-.03,4.81-.13,7.21-.04,1.03-.2,2.06-.64,3.02-.43.95-1.19,1.46-2.18,1.69-1.17.27-2.35.27-3.55.2-.25-.02-.5-.02-.75,0-.8.07-1.59-.5-1.77-1.28-.08-.31.12-.26.3-.27.78-.04,1.52.22,2.28.28.87.07,1.72.14,2.59-.15,1.16-.39,1.42-1.59,1.14-2.5-.15-.5-.52-.65-1.01-.43-.32.15-.66.26-.99.39-.8.33-1.54.36-2.36-.02-.95-.44-1.69-1.03-2.15-1.96-.37-.75-.63-1.53-.55-2.24h0Zm7.19.3c-.01-1.3-1.11-3.31-2.15-4.01-.32-.21-.71-.32-1.01-.13-1.01.65-1.91,1.44-2.06,2.68-.16,1.31.32,2.5,1.12,3.54.57.74,1.4.82,2.05.31.45-.36.9-.74,1.38-1.08.49-.35.76-.78.67-1.31h0Z"/>
      <path class="cls-1" d="m331.88,152.85c.04,1.7.19,3.4.11,5.11-.07,1.46-.15,2.91-.94,4.22-.36.6-.82,1.02-1.52,1.24-1.5.45-3.03.57-4.59.56-.7,0-1.44-.6-1.64-1.24-.09-.27-.01-.42.28-.42.3,0,.64-.06.9.04,1.05.39,2.14.3,3.21.34.45.02.79-.32,1.1-.6.63-.56,1.08-1.23.84-2.14-.14-.53-.42-.68-.95-.5-.41.14-.8.27-1.22.38-1.86.49-3.25-.32-4.51-1.51-.22-.21-.36-.49-.39-.79-.1-.94-.25-1.88-.22-2.83.04-1.62.7-2.95,1.97-3.99.65-.53,1.45-.67,2.24-.79.47-.08.87.25,1.22.57.67.62,1.26.67,2.06.19.35-.21.7-.42,1.12-.49.47-.08.78.07.84.56.04.35.08.7.1,1.05s0,.7,0,1.05v-.02Zm-7.61,1.93c-.06.57.16,1.19.3,1.83.17.77.67,1.31,1.26,1.77.54.42,1.14.38,1.74,0,.42-.26.68-.66,1.05-.97.7-.61,1.04-1.36.85-2.3-.2-1.04-.74-1.93-1.33-2.79-.37-.54-1.2-.78-1.76-.58-1.4.49-2.1,1.47-2.1,3.03h0Z"/>
      <path class="cls-1" d="m280.94,155.8c0,1.02-.09,2.04.04,3.05.05.39.02.77-.14,1.14-.27.62-.9.73-1.37.24-.28-.3-.38-.66-.41-1.06-.12-1.79-.03-3.59-.2-5.37-.02-.21-.03-.42-.07-.63-.19-1.16-.4-1.29-1.57-1.01-.48.12-.96.27-1.45.39-.53.13-.83.44-.88.99-.06.75-.18,1.5-.19,2.26-.03,1.14-.15,2.28-.12,3.42.03.86-.32,1.24-1.09,1.35-.61.09-1.21-.34-1.44-1.02-.24-.72-.11-1.47-.13-2.19-.05-2.69-.03-5.38-.02-8.07,0-.75.05-1.51.09-2.26.02-.34.19-.64.38-.92.47-.68,1.19-.73,1.74-.1.3.34.49.73.48,1.2-.02.74.02,1.47.1,2.21.01.12.02.25.05.37.2.76.51.9,1.25.59.11-.05.23-.1.33-.16,1.94-1.19,4.28.47,4.5,2.33.13,1.09.06,2.17.12,3.26h0Z"/>
      <path class="cls-1" d="m299.56,160.44c-1.99-.13-3.83-.74-4.56-2.72-.78-2.14-.57-4.29,1.01-6.15,1.69-1.99,4.74-2.29,6.83-.66.62.49,1.13,1.07,1.37,1.84.61,1.98.66,3.9-.44,5.75-.45.77-1.03,1.32-1.95,1.5-.75.14-1.46.49-2.26.43h0Zm-2.9-5.4c-.03.4.04.82.13,1.23.26,1.33,1.75,2.54,2.99,2.44,1.12-.09,1.68-.92,2.26-1.68.28-.37.45-.82.49-1.32.11-1.43-.56-2.57-1.31-3.7-.08-.12-.24-.2-.38-.28-1.4-.82-3.81.37-4.02,1.88-.07.47-.18.93-.16,1.43h0Z"/>
      <path class="cls-1" d="m320.75,155.33c.16,1.46-.23,2.74-1.29,3.82-.62.63-1.32,1.05-2.24,1.07-.37,0-.74.04-1.12.09-1.45.17-2.72-.28-3.84-1.14-.71-.53-.93-1.35-1.15-2.15-.11-.41-.17-.83-.2-1.25-.2-2.84,1.91-5.87,5.16-5.8,3.03.07,4.84,2.54,4.68,4.78-.02.19,0,.39,0,.58h0Zm-1.96-.25c0-.27.02-.54,0-.8-.09-.9-.36-1.75-1.08-2.34-1.48-1.18-3.68-.59-4.4,1.15-.51,1.24-.5,2.51-.18,3.78.37,1.49,2.44,2.39,3.8,1.63,1.34-.74,2.07-1.85,1.87-3.42h-.01Z"/>
      <path class="cls-1" d="m255.78,155.57c-.54,0-1.07.01-1.6,0-.34,0-.49.14-.47.48.06.74.27,1.34.99,1.8,1.25.81,2.55.92,3.94.64.68-.14,1.3.03,1.91.32.29.14.22.26.04.42-.44.41-.89.73-1.53.88-1.61.38-3.15.19-4.69-.3-.95-.3-1.63-.88-1.95-1.86-.51-1.56-.75-3.14-.19-4.71.55-1.52,1.78-3.14,4.02-3.17.43,0,.86-.04,1.28,0,1.12.13,2.03.6,2.58,1.64.45.84.93,1.66.97,2.65.03.53-.15.8-.67.87-.18.02-.35.09-.53.1-1.37.07-2.73.31-4.11.24h0Zm.72-1.5c.64.05,1.25-.03,1.87-.13.33-.05.65-.17.66-.57.02-.65-.29-1.25-.76-1.6-.54-.41-1.26-.56-1.98-.35-.53.16-1.05.34-1.55.57-.54.26-.86,1.2-.58,1.72.1.18.24.24.43.25.64.03,1.28.14,1.91.1h0Z"/>
      <path class="cls-1" d="m226.31,150.92c.88-.24,1.69-.44,2.49-.68.99-.29,1.99-.24,2.96.02,1.03.28,1.51,1.11,1.68,2.07.16.91.19,1.85.28,2.78.09.88.09,1.75-.03,2.63-.1.74.35,1.39.39,2.11.01.2.18.45-.02.59-.19.13-.41-.04-.6-.13-.45-.21-.9-.43-1.35-.65-.59-.28-1.17-.28-1.75.01-.14.07-.28.15-.43.21-.45.19-.84.56-1.4.38-.85-.28-1.68-.6-2.25-1.34-.2-.26-.22-.54-.25-.84-.18-2.6,1.05-3.66,3.1-4.01.67-.11,1.34-.21,2-.36.54-.12.66-.41.55-.94-.21-1.05-1.37-1.63-2.24-1.22-.85.4-1.68.17-2.52.08-.15-.02-.3-.09-.28-.26.03-.25-.19-.3-.35-.46h.01Zm3.9,4.43c-.37.05-.85.08-1.32.19-.93.21-1.26.75-1.13,1.72.11.82.8,1.39,1.63,1.35,1.12-.04,1.72-.81,2.29-1.6.14-.2.16-.5.19-.76.05-.63-.44-1.04-1.03-.88-.18.05-.35.05-.64-.01h0Z"/>
      <path class="cls-1" d="m283.89,155.5c-.08-1.61.14-3.18-.19-4.73-.05-.24.04-.45.31-.47.45-.03.91-.1,1.34.21.53.39,1.12.39,1.73.18.45-.16.92-.3,1.36-.49,1.61-.72,3.83.68,3.89,2.62.05,1.74.27,3.47.06,5.21-.07.59.19,1.19-.02,1.78-.1.28-.14.62-.5.68-.35.06-.53-.22-.73-.44-.51-.55-.25-1.2-.25-1.81,0-1.81-.09-3.61-.26-5.41-.05-.55-.55-.94-1.11-.95-.68-.02-1.36.04-2.01.24-1.03.31-1.36.76-1.46,1.82-.16,1.63-.08,3.27-.1,4.9,0,.41-.05.8-.15,1.2-.08.32-.19.65-.58.67-.38.02-.74-.09-.96-.45-.25-.42-.35-.88-.35-1.36v-3.38h0Z"/>
      <path class="cls-1" d="m333.42,164.11c.7-.89,1.49-1.59,2.25-2.32.31-.3.61-.6.83-.96.38-.61.59-1.24.18-1.93-.29-.49-.49-1.03-.6-1.58-.42-2.05-1.37-3.91-2.11-5.85-.07-.18-.13-.37-.17-.55-.08-.37.11-.56.46-.64.74-.15.93-.1,1.19.6.61,1.58,1.62,3.01,1.91,4.72.07.4.13.79.19,1.19.04.24.09.47.37.51.31.05.46-.18.54-.41.38-1.11.78-2.22,1.2-3.32.44-1.16.77-2.42,1.73-3.33.19-.18.39-.48.72-.26.29.19.48.46.4.85-.1.47-.17.94-.41,1.36-.46.78-.76,1.63-1.01,2.49-.54,1.85-1.38,3.58-2.11,5.35-.41,1.01-1.08,1.93-1.75,2.82-.64.87-1.68,1.08-2.69,1.25-.34.06-.71.01-1.13.01h0Z"/>
      <path class="cls-1" d="m246.3,155.49c.02-.54,0-1.08.07-1.63.07-.63-.14-1.18-.72-1.54-.26-.16-.51-.33-.67-.59-.2-.31-.26-.67-.03-.94.7-.84,1.12-1.83,1.71-2.73.22-.33.4-.79.96-.71.54.08.84.44,1.02.9.15.42.55.82.1,1.3-.11.11.02.26.21.26.59,0,1.03.35,1.53.58.42.19.5.55.43.98-.08.44-.25.76-.77.79-.21.01-.43.05-.64.08-.99.18-1.14.24-1.06,1.21.11,1.27.04,2.56.4,3.82.13.45.42.71.76.97.57.45,1.08.93,1,1.75-.04.42-.22.65-.68.62-.96-.07-1.83-.43-2.67-.87-.32-.16-.46-.48-.53-.82-.24-1.14-.47-2.28-.4-3.45h-.01Z"/>
      <path class="cls-1" d="m267.38,160.3c-.86.05-1.65-.11-2.41-.34-1.03-.3-1.64-1.09-2.12-1.97-1.85-3.33.2-7.57,3.96-8.09.84-.11,1.65.21,2.48.29.18.02.35.06.53.08.65.05.76.18.68.82-.09.77-.27.93-.9.84-.62-.09-1.23-.18-1.85-.25-1.48-.15-3.13,1.13-3.4,2.71-.34,1.97.53,3.42,2.29,4.3.56.28,1.16-.02,1.72-.14.44-.09.86-.22,1.31-.09.27.08.64.14.59.49-.05.37-.04.84-.55.99-.77.21-1.55.42-2.32.36h0Z"/>
      <path class="cls-1" d="m223.71,160.3c-.59-.09-1.32-.07-2.03-.26-.78-.21-1.11-.52-1.16-1.3-.1-1.4-.17-2.8-.24-4.2-.03-.6,0-1.19-.09-1.78-.05-.35-.21-.57-.51-.74-.38-.2-.74-.42-1.02-.76-.24-.29-.26-.55.17-.59,1.01-.08,1.34-.73,1.46-1.58.03-.21.08-.41.13-.62.08-.42.3-.76.65-.99.27-.18.57-.24.85-.04.26.19.2.55.32.82.11.26.31.53-.02.79-.07.05-.08.19-.11.29-.28,1-.15,1.18.86,1.01.86-.14,1.66-.05,2.43.37.29.16.3.25.02.47-.48.37-1.01.48-1.58.56-.39.05-.77.14-1.16.21-.5.08-.72.41-.65.87.22,1.3.13,2.63.32,3.93.18,1.25,1.54,2.36,2.83,2.31.26-.01.3.05.21.3-.28.78-.5.93-1.66.93h-.02Z"/>
      <path class="cls-1" d="m238.48,151.01c-.09,1.84.09,3.93.12,6.02.02.86.15,1.71,0,2.57-.13.72-.98,1.2-1.66.96-.22-.08-.33-.25-.41-.46-.12-.37-.2-.75-.2-1.14,0-1.3-.05-2.61.02-3.9.13-2.55.05-5.1.08-7.64,0-.37,0-.74.15-1.09.18-.4.43-.69.93-.65.48.04.8.27.88.77.04.28.09.56.09.84.01,1.16,0,2.32,0,3.73h0Z"/>
      <path class="cls-1" d="m201.11,154.46c.07,1.43-.04,3.15-.21,4.86-.07.76-.53,1.19-1.23,1.2-.67.01-1.34-.55-1.35-1.25-.03-1.99-.44-3.95-.32-5.94.04-.74-.38-1.41-.25-2.17.07-.4.14-.65.61-.68.31-.02.62-.16.93-.24,1.08-.26,1.79.27,1.81,1.35.02.86,0,1.72,0,2.88h0Z"/>
      <path class="cls-1" d="m308.64,153.11v5.9c0,.41-.04.8-.3,1.16-.37.51-.88.49-1.17-.06-.15-.28-.23-.59-.25-.91-.19-2.6-.15-5.18-.06-7.79.05-1.35-.04-2.7-.07-4.05,0-.36.02-.7.15-1.03.12-.3.24-.64.62-.64.4-.01.71.22.9.56.17.28.17.6.17.92v5.95h0,0Z"/>
      <path class="cls-1" d="m217.18,155.46c.03,1.19-.05,2.39.09,3.58.06.49.04,1.01-.5,1.22-.62.24-1.26.1-1.86-.16-.15-.07-.19-.25-.2-.41-.11-2.89-.16-5.79.1-8.67.06-.67.29-.82.99-.83.77,0,1.01.18,1.15.82.31,1.48.24,2.97.24,4.46h0Z"/>
      <path class="cls-1" d="m200.47,147.4c-.04.55-.41,1.09-.77,1.63-.14.2-.27.09-.39-.03-.45-.45-.74-.99-.83-1.61-.05-.38.77-1.28,1.17-1.29.41-.02.84.59.83,1.31h0Z"/>
      <path class="cls-1" d="m216.76,147.62v.37c-.04.78-.17.79-.94.72-.54-.05-.82-.26-.95-.73-.15-.53.07-1.01.27-1.47.15-.32.55-.27.87-.24.36.03.6.24.68.57.07.25.07.52.09.78h-.03Z"/>
      <path class="cls-1" d="m112.49,114.4c3.7-.07,6.21,2.3,6.07,5.93-.15,3.92-2.21,5.95-5.88,5.93-3.78-.02-6.05-2.42-6.23-5.98-.14-2.73,2.86-6.24,6.03-5.88h0Z"/>
    </g>
  </g>
</svg>