<?xml version="1.0" encoding="utf-8"?>
<!-- Generator: Adobe Illustrator 27.7.0, SVG Export Plug-In . SVG Version: 6.00 Build 0)  -->
<svg version="1.1" id="Layer_1" xmlns="http://www.w3.org/2000/svg" xmlns:xlink="http://www.w3.org/1999/xlink" x="0px" y="0px"
	 viewBox="0 0 471 243" style="enable-background:new 0 0 471 243;" xml:space="preserve">
<style type="text/css">
	.st0{fill:#A0A0A0;}
</style>
<g id="BLouOA.tif">
	<g>
		<path class="st0" d="M80.1,116.5c-1.3-0.2-2.6-0.2-4-0.3c0.2-0.6,0.2-1.1,0.3-1.4c1.6-1.9,0.9-3-1.1-4.4c-3.8-2.7-6.7-6-7.9-10.7
			c-0.6-2.4-0.8-4.8-1.1-7.2c0.2-0.2,0.3-0.2,0.6-0.3c1.4,1.1,2.9,2.4,4.3,3.3c4.8,3.7,9.5,7.3,14.5,10.7c1.1,0.8,2.9,1.1,4.1,1.4
			c2.6,0.8,5.2,1.4,7.8,2.6c6.2,2.6,12.4,5.2,18.8,7.8c1.1,0.5,2.4,0.6,3.5,1.4c-0.8,0.2-1.6,0.3-2.2,0.5c0,0.2,0,0.3-0.2,0.5
			c1.1,0.3,2.4,0.8,3.5,1.1v0.3c-2.7-0.6-5.6-1.4-8.3-2.1c-4.3-1.1-8.6-2.2-12.9-3c-1.9-0.3-4.1-0.3-6-0.2c-0.5,0-1.3,0.8-1.6,1.4
			c-2.7,5.4-4.3,11.1-4.9,17.2c-0.9,7.5-0.8,14.9,0.3,22.4c0.2,1.3,0.5,2.4,0.8,3.7c-1.6-1.4-4.6-7.9-6.7-13.8
			c-1.8-5.1-2.6-10.2-2.7-15.4C79,126.8,79.8,121.6,80.1,116.5L80.1,116.5z"/>
		<path class="st0" d="M229.8,142.6h-0.9c-2.2-0.2-5.2,0.6-6.7-0.6c-1.8-1.6-2.6-4.4-3.2-7c-0.5-1.6-1.3-1.9-2.9-1.9
			c-6,0-11.9,0-17.9-0.2c-1.4,0-2.1,0.3-2.7,1.8c-0.6,2.1-1.8,4-2.4,5.9c-0.5,1.3-1.3,2.1-2.9,2.1h-5.7c0.2-0.6,0.3-1.1,0.5-1.4
			c5.9-12.6,11.9-25.3,17.8-37.8c0.6-1.3,1.3-1.8,2.7-1.8c6.8,0.2,5.2-0.5,7.8,4.9c5.2,11.4,10.5,22.7,15.7,34.2
			C229.3,141.1,229.5,141.8,229.8,142.6z M207.7,109.5h-0.6c-0.3,0.6-0.8,1.3-1.1,2.1c-2.1,4.6-4.1,9.4-6.4,14
			c-0.6,1.4,0,1.9,1.3,1.9h14.6C212.9,121.3,210.2,115.4,207.7,109.5L207.7,109.5z"/>
		<path class="st0" d="M404.7,142.6h-2.4c-6-0.2-4.6,1.1-7.3-4.9c-1.3-3.1-3.6-4.6-7-4.4c-4.8,0-9.5,0-14.5-0.2
			c-1.8,0-2.7,0.5-3.2,2.1c-0.8,2.1-1.8,4.1-2.9,6.2c-0.3,0.6-1.1,1.3-1.8,1.3c-1.9,0.2-4,0-6.2,0c0.3-0.8,0.3-1.3,0.6-1.9
			c5.9-12.6,11.9-25.1,17.8-37.7c0-0.2,0.2-0.3,0.3-0.5c1.9-1.8,4.1-0.6,6.2-0.8c0.8,0,1.9,0.6,2.2,1.3c5.9,12.4,11.5,25,17.2,37.3
			C404.2,141,404.4,141.6,404.7,142.6L404.7,142.6z M382.3,108.6c-2.9,6.5-5.6,12.7-8.3,18.9h16.7
			C387.9,121.1,385.2,115.1,382.3,108.6z"/>
		<path class="st0" d="M319.2,142.4c-2.4,0-4.6,0.2-6.8-0.2c-0.5,0-1.3-0.9-1.6-1.6c-1-2.1-1.9-4.1-2.7-6.2
			c-0.5-1.1-1.1-1.6-2.4-1.6h-18c-1.6,0-2.4,0.5-2.9,1.9c-0.8,2.1-1.8,4.3-2.7,6.2c-0.2,0.5-0.8,1.1-1.1,1.1c-2.2,0.2-4.4,0-7.1,0
			c1.4-2.9,2.7-5.6,4-8.3c4.9-10.5,9.9-20.8,14.8-31.1c0.3-0.6,1.3-1.3,1.9-1.3c3.9-0.2,6.7,1.5,8.3,5.1
			c5.2,11.4,10.5,22.7,15.7,34.1C318.9,141.3,318.9,141.8,319.2,142.4L319.2,142.4z M304.9,127.5c-2.7-6.5-5.2-12.4-8-18.9
			c-3,6.5-5.9,12.6-8.7,18.9H304.9L304.9,127.5z"/>
		<path class="st0" d="M267.1,111.9c-3.4-3.2-7.3-4.9-11.9-4.6c-6,0.5-11,2.9-13.5,8.7c-2.6,5.7-1.9,11.3,2.4,16.1
			c5.4,6,15.6,6.5,21.6,1.3c1.3-1.1,2.1-1.1,3,0.2c0.5,0.6,1.1,1.1,1.8,1.6c1.4,0.9,1.3,1.9,0,2.9c-9.2,8.3-26.4,6.5-33.7-3.5
			c-8.7-11.9-2.4-28.9,12.2-32.4c7.8-1.9,15.1-0.9,21.6,4.3c1.3,1.1,1.6,1.9,0,3c-1.1,0.6-1.9,1.6-2.9,2.4
			C267.6,111.7,267.5,111.7,267.1,111.9L267.1,111.9z"/>
		<path class="st0" d="M89.5,85.4c0-0.3-0.2-0.5-0.2-0.8c-0.2-2.4,0.9-3.6,3.3-3.5c11.9,0.6,22.2,4.8,30.5,13
			c8.1,8.1,12.6,17.9,12.2,29.4c-0.3,12.9-6.4,23.2-16.7,31.1c-4.8,3.7-10.2,6-16.1,7.1c-2.9,0.5-5.7,0.3-8.6,0.3
			c-0.5,0-1.1-1.1-1.1-1.6s0.6-1.4,1.1-1.6c2.1-0.5,4.3-0.8,6.3-1.3c15.3-3.2,25.1-11.9,29.1-26.9c3.8-14.1-3.2-30.3-15.7-38.4
			c-7.2-4.6-15.1-6.5-23.5-7C90.3,85.4,90,85.4,89.5,85.4L89.5,85.4z"/>
		<path class="st0" d="M166.4,101.6h16.1c1.6,0,1.9,0.5,1.9,1.9c-0.2,5.2,0.5,4.1-4.3,4.3H172c-1.3,0-1.6,0.5-1.6,1.8
			c0,10.3-0.2,20.7-0.2,31c0,1.8-0.5,2.4-2.4,2.4c-3.7,0-5.6-1.9-5.6-5.6c0-9.2,0.2-18.3,0.3-27.5c0-1.6-0.5-2.1-2.1-2.1
			c-3.5,0.2-7,0-10.5,0c-1.3,0-1.8-0.5-1.6-1.8c0.2-4.4,0-4.4,4.6-4.4C157.5,101.6,161.9,101.6,166.4,101.6L166.4,101.6L166.4,101.6
			z"/>
		<path class="st0" d="M319.6,101.6c2.5,0,4.6-0.2,6.7,0c0.8,0.2,1.8,0.8,2.1,1.4c3.5,5.7,7,11.4,10.3,17.2c0.3,0.5,0.6,0.9,1.1,1.6
			c1.3-2.1,2.5-4,3.7-5.7c2.5-4.1,5.2-8.3,7.8-12.4c1-1.6,1.9-2.2,3.8-2.1c1.4,0.2,3,0.2,4.8,0.3c-1.3,1.9-2.4,3.7-3.4,5.2
			c-4.1,6.5-8.3,13-12.4,19.7c-0.5,0.6-0.6,1.6-0.6,2.4v11.4c0,1.6-0.5,2.2-2.1,2.1c-5.9,0-6.2,0-5.7-5.7c0.6-6.4-1.1-11.9-4.8-17.2
			c-3.8-5.4-7-11.1-10.5-16.7C320.2,102.9,320,102.4,319.6,101.6L319.6,101.6z"/>
		<path class="st0" d="M81.9,81.2l0.3-0.2c3.2-0.3,4.8,1.1,4.8,4.1c0,3.8-0.2,7.5,0,11.3c0.2,2.2-1.4,1.8-2.7,1.9
			c-1.4,0-2.6,0.2-2.6-1.9c0.2-4.4,0-8.7,0-13.2C81.7,82.3,81.9,81.7,81.9,81.2L81.9,81.2z"/>
	</g>
</g>
</svg>
