<?xml version="1.0" encoding="utf-8"?>
<!-- Generator: Adobe Illustrator 27.7.0, SVG Export Plug-In . SVG Version: 6.00 Build 0)  -->
<svg version="1.1" id="Layer_1" xmlns="http://www.w3.org/2000/svg" xmlns:xlink="http://www.w3.org/1999/xlink" x="0px" y="0px"
	 viewBox="0 0 446.5 162.8" style="enable-background:new 0 0 446.5 162.8;" xml:space="preserve">
<style type="text/css">
	.st0{fill:#A0A0A0;}
</style>
<path class="st0" d="M64.9,60.1c105.5-28.5,211.1-25.5,316.7,0C276,44.8,170.4,41.6,64.9,60.1z"/>
<path class="st0" d="M356.5,106.6c-1.7,0.2-2,1.4-2.8,2c-5.8,4.6-13.9,2.2-15.7-4.9c-1.5-6.2-0.4-12,3.7-16.9
	c4.5-5.4,11.2-5.6,18.3-0.7c1.2-0.8,0.2-3,2.7-3.3c4.4-0.3,4.9,0,4,4.3c-1.5,6.7-2.9,13.4-4.2,20.2c-2.8,14.5-9.5,17.4-24,14.9
	c-2.4-0.4-2.9-1.5-2.1-3.9c0.7-2.3,1.5-2.5,3.6-1.6c2.8,1.1,5.8,1.7,8.9,0.9C353.8,115.9,355,111.4,356.5,106.6L356.5,106.6
	L356.5,106.6z M357.9,93.6c-0.1-1.8-0.7-4.5-3.7-5.6c-3.2-1.2-5.5,0.3-7.3,2.8c-1.7,2.5-2.5,5.4-2.4,8.4c0.1,2.5,0.8,4.9,3.4,5.8
	c2.7,0.9,4.7-0.3,6.5-2.1C356.9,100.8,357.5,97.7,357.9,93.6L357.9,93.6L357.9,93.6z"/>
<path class="st0" d="M291.9,93.2c-1,4.5-2.1,10.2-3.4,15.9c-0.8,3.4-3.6,1.5-5.3,1.6c-2.5,0.2-1.4-2-1.2-3.1
	c0.9-4.6,1.8-9.3,2.8-13.9c0.5-2.4,0.1-4.4-2.1-5.5c-2.3-1.2-4.5-0.5-6.4,1.1c-2.4,2.1-3.1,5.1-3.8,8c-0.8,3.4-1.4,6.7-2.1,10.1
	c-0.7,3-4,4.6-6.6,3.4c-1.2-0.5-0.8-1.4-0.6-2.1c1.6-8,3.4-16,5.1-23.9c0.3-1.8,5.6-3,6.3-1.3c1.2,3,2.1,0.9,3.3,0.3
	c3.5-1.9,7.1-2.2,10.7,0C291.3,85.5,292.1,88.6,291.9,93.2L291.9,93.2L291.9,93.2z"/>
<path class="st0" d="M305.8,110.4c1.7-8.4,3.4-16.8,5.2-25.1c0.5-2.5,5.1-3.7,6.6-1.5c1,1.6,1.3,1.1,2.4,0.4
	c3.8-2.6,7.8-2.8,11.6-0.2c3.7,2.6,3.7,6.5,2.9,10.5c-0.9,4.5-2.1,8.9-2.8,13.4c-0.6,4.2-3.6,3-5.8,2.8c-3.1-0.3-1-2.7-0.9-3.9
	c0.6-4.2,1.5-8.4,2.4-12.6c0.5-2.4,0.3-4.7-2.1-5.9c-2.7-1.3-5-0.3-6.9,1.8c-1.4,1.5-2.2,3.4-2.7,5.3c-0.8,3.4-1.5,6.7-2.1,10.1
	C312.9,109.4,310.2,111.1,305.8,110.4L305.8,110.4L305.8,110.4z"/>
<path class="st0" d="M211.9,105.2c0.8,3.8-0.9,5.6-4.6,5.8c-0.3,0-0.6,0.1-0.9,0.2c-7.2,1.2-13.1-0.9-15.6-5.3
	c-2.7-5.1-1.4-13.2,2.8-18.1c4.3-4.8,11.1-6.7,16.7-4.6c5,1.9,8.2,10.7,5.5,14.9c-0.8,1.2-2.1,0.8-3.1,0.8c-4.6,0.1-9.1,0.2-13.7,0
	c-3.5-0.1-3.5,1.7-2.4,4c1.6,3.2,4.6,3.8,7.6,3.6C207,106.4,209.5,105.6,211.9,105.2L211.9,105.2L211.9,105.2z M203.5,94.4h3
	c1.3-0.1,3.1,0.6,3.4-1.6c0.3-2-0.2-3.9-2-4.8c-2.5-1.4-5.1-0.9-7.2,0.7c-1.6,1.2-3.5,3-3,4.8c0.5,1.9,3,0.6,4.6,0.9
	C202.7,94.5,203.1,94.4,203.5,94.4L203.5,94.4L203.5,94.4z"/>
<path class="st0" d="M222.1,89.1c-0.5-4.6,1.8-6.2,5.6-6.4c1.7-0.1,3.4-0.3,5.2-0.3c7.8,0.2,10.9,3.9,9.6,11.5
	c-0.8,4.6-2,9.2-2.5,13.9c-0.3,3.2-2.1,3-4.3,3.1c-3.5,0.1-0.7-2.7-1.8-3.8c-2.7,2.2-5.2,4.7-9.2,4.4c-4.6-0.4-7.4-2.6-8-6.4
	c-0.7-3.9,1.3-7.8,5-9.5c3.6-1.6,7.5-1.8,11.3-1.8c1.5,0,3.4,0.6,3.5-1.9c0.3-2.2-0.9-3.4-2.8-4.2C231.1,86.7,228.3,87.1,222.1,89.1
	L222.1,89.1L222.1,89.1z M226.9,106.6c3.8,0.2,8-3.8,8.2-7.1c0.2-2.3-1.6-1.6-2.7-1.6c-5.6-0.2-9.4,2.1-9.4,5.3
	C223.2,105.7,225.1,106.3,226.9,106.6z"/>
<path class="st0" d="M187.4,105.1c0.5,5-1.7,6.2-6,5.8c-4.6-0.3-9.2-0.2-13.8-0.1c-2.4,0.1-3.3-0.3-2.7-3.1
	c2.4-10.6,4.6-21.2,6.8-31.9c0.5-2.4,5.2-4.2,7.1-2.8c1.2,0.9,0.3,2.2,0.1,3.1c-1.7,8.5-3.5,17.1-5.4,25.6c-0.6,2.5-0.1,3.4,2.6,3.3
	C179.8,105,183.6,105.1,187.4,105.1L187.4,105.1L187.4,105.1z"/>
<path class="st0" d="M146.5,90.5c4.2,0,5.8,2.1,4.9,6.3c-0.7,3.2-1.6,6.4-1.9,9.6c-0.3,3-2,3.8-4.3,4.3c-12.6,3-21.8-2.3-23.6-13.7
	c-2.1-12.6,6.8-23.7,19.6-24.8c3.6-0.3,7.1,0.2,10.7,0.9c1.2,0.3,3.1,0.3,2.4,2.6s-2.1,0.6-3.1,0.3c-13.5-3.9-24.6,2.8-26.5,16.3
	c-1.5,10.6,8.8,18.8,18.9,15.3c1.5-0.5,2.5-1.1,2.7-2.8c0.1-1.3,0.5-2.5,0.7-3.8c0.4-2.4,1.9-5.2,1-7c-0.9-1.9-4.1-0.5-6.4-0.7
	c-0.9-0.1-1.8,0-1.7-1.3c0.1-0.9,0.5-1.7,1.6-1.7C143,90.5,144.8,90.5,146.5,90.5L146.5,90.5L146.5,90.5z"/>
<path class="st0" d="M256.5,86.9c1.7-2,3.5-4.3,6.6-4.5c1.2-0.1,3.4-1.1,3,1.5c-0.3,1.8,0.4,4.6-2.2,5.1c-6.8,1.2-8.3,2.3-10,8.9
	c-0.8,3-1.4,6.1-2.1,9.2c-0.8,3.4-2.9,4.6-6.3,3.7c-2.3-0.6-0.9-2.1-0.7-3.1c1.4-7.3,3.1-14.5,4.3-21.8c0.6-3.7,2.9-3.1,5.2-3.1
	C257.9,83,254.7,85.7,256.5,86.9L256.5,86.9L256.5,86.9z"/>
<path class="st0" d="M296.6,110.7c-2.8,0.7-3.4-0.3-2.8-3.1c1.7-7.2,3.4-14.5,4.6-21.8c0.7-4.1,3.6-3.1,5.8-2.8c3,0.4,1,2.8,0.8,4
	c-1.3,6.9-3,13.7-4.2,20.6C300.3,110.4,299.2,111.4,296.6,110.7L296.6,110.7L296.6,110.7z"/>
<path class="st0" d="M89.6,73c3.4,0,6.9-0.1,10.3,0c0.9,0,2.6-0.7,2.7,1c0.1,2-1.6,1.6-2.8,1.6c-1.6,0.1-3.2,0.2-4.7,0
	c-3.4-0.5-4.6,1-5.2,4.4c-1.7,9.5-3.9,18.7-5.8,28.1c-0.3,1.8-0.8,3.2-2.9,2.6c-2.2-0.6-0.6-2.2-0.4-3.1c1.9-9.7,3.9-19.3,6.1-29
	c0.5-2.4,0.1-3.2-2.3-3c-2.2,0.1-4.3,0.1-6.4,0c-0.8,0-1.8,0.3-1.9-1c0-1.3,0.7-1.7,1.9-1.6C81.8,73.1,85.7,73.1,89.6,73L89.6,73
	L89.6,73z"/>
<path class="st0" d="M109.2,111c-3-0.2-7.1,0.8-8.6-0.8c-1.6-1.8,0.7-5.6,1.3-8.5c1.7-8.7,3.6-17.4,5.3-26c0.3-1.8,0.9-3.2,2.9-2.6
	c2.2,0.6,0.5,2.2,0.3,3.2c-1.9,9.4-3.9,18.7-6,28.1c-0.6,2.8-0.4,3.9,2.8,3.7c3.3-0.3,6.6-0.1,9.9-0.1c0.9,0,1.8-0.2,1.9,1.1
	c0.1,1.2-0.5,1.9-1.7,1.9C117.3,111,109.2,111,109.2,111z"/>
<path class="st0" d="M303.5,77.4c-0.8-0.6-3.3,1.1-2.8-1.6c0.4-2.4,0-6.2,4.5-5.2c1.3,0.3,3.3-0.9,2.9,2.1
	C307.9,76.7,307.2,77.5,303.5,77.4L303.5,77.4L303.5,77.4z"/>
</svg>
