<svg id="Layer_1" data-name="Layer 1" xmlns="http://www.w3.org/2000/svg" viewBox="0 0 563.42 414.39"><defs><style>.cls-1{opacity:0;}.cls-2{fill:#1965e0;}.cls-2,.cls-3,.cls-4{stroke:#000;stroke-miterlimit:10;stroke-width:2px;}.cls-3{fill:none;}.cls-4{fill:#fff;}</style></defs><title>coaching</title><g class="cls-1"><path class="cls-2" d="M155.47,518.12H410.19a33.32,33.32,0,0,0,33.22-33.22V319a33.32,33.32,0,0,0-33.22-33.22H261.77q0-29.56,0-59.12a4.7,4.7,0,0,0-2.53-4.58,4.35,4.35,0,0,0-5.2.86c-.37.33-.71.7-1,1.06l-58.53,61.78h-39A33.32,33.32,0,0,0,122.25,319V484.9A33.32,33.32,0,0,0,155.47,518.12Z" transform="translate(-121.16 -105.6)"/></g><path class="cls-3" d="M155.38,519H410.1a33.32,33.32,0,0,0,33.22-33.22V319.86a33.32,33.32,0,0,0-33.22-33.22H261.68q0-29.56,0-59.13a4.69,4.69,0,0,0-2.54-4.58c-1.89-1-3.62-.5-5.19.87a13.14,13.14,0,0,0-1,1.06L194.4,286.64h-39a33.32,33.32,0,0,0-33.22,33.22V485.77A33.32,33.32,0,0,0,155.38,519Z" transform="translate(-121.16 -105.6)"/><path class="cls-4" d="M650.35,106.6H395.63a33.32,33.32,0,0,0-33.22,33.22V305.73A33.32,33.32,0,0,0,395.63,339H544.05q0,29.55,0,59.12a4.67,4.67,0,0,0,2.53,4.58,4.34,4.34,0,0,0,5.19-.86c.37-.33.71-.7,1-1.06L611.33,339h39a33.32,33.32,0,0,0,33.22-33.22V139.82A33.32,33.32,0,0,0,650.35,106.6Z" transform="translate(-121.16 -105.6)"/><path d="M611.17,277.74H579.56a11.9,11.9,0,0,1-2.31-.13,1.44,1.44,0,0,1-1-1.42,1.73,1.73,0,0,1,.79-1.59,3.2,3.2,0,0,1,2.26-.41h63.73a5.53,5.53,0,0,1,2,.29,1.59,1.59,0,0,1,1,1.77c-.1.91-.57,1.39-1.24,1.44s-1.37.06-2.05.06Z" transform="translate(-121.16 -105.6)"/><path d="M487.36,201.1h80.49l4.58,0c1.93,0,3.59.37,3.82,1.48.28,1.33-1.67,1.81-3.65,2a43.08,43.08,0,0,1-4.56.1H405.11c-2.86-.05-6.46,0-6.39-2s3.63-1.61,6.18-1.61Z" transform="translate(-121.16 -105.6)"/><path d="M505.73,241.23H410.31c-2.12,0-4.24,0-6.36,0-2.54,0-5.17-.34-5.31-1.58-.16-1.52,2.79-1.75,5.57-1.81,1.85-.05,3.71,0,5.57,0H603c1.32,0,2.65,0,4,0,3.07.09,7.33-.19,7.19,1.77s-4.37,1.65-7.45,1.65Q556.22,241.24,505.73,241.23Z" transform="translate(-121.16 -105.6)"/><path d="M521.51,167.67q-55.63,0-111.26,0c-2.12,0-4.26,0-6.38,0-3.05-.08-5.56-.65-5.38-1.84.15-1,2.38-1.55,5.2-1.57H638.05c3.73,0,8.23-.05,8,1.84-.18,1.56-4.3,1.62-7.82,1.62q-27.81,0-55.62,0h-61.1Z" transform="translate(-121.16 -105.6)"/><path d="M371.64,480.76H340a12.68,12.68,0,0,1-2.3-.13,1.45,1.45,0,0,1-1-1.43,1.76,1.76,0,0,1,.8-1.59,3.24,3.24,0,0,1,2.26-.4h63.73a5.56,5.56,0,0,1,2,.29,1.59,1.59,0,0,1,1,1.77c-.1.91-.57,1.39-1.24,1.44s-1.37.06-2.05.06Z" transform="translate(-121.16 -105.6)"/><path d="M247.83,404.12h80.49l4.58,0c1.93,0,3.59.37,3.82,1.48.28,1.33-1.67,1.81-3.65,2a43.08,43.08,0,0,1-4.56.1H165.58c-2.86-.05-6.46,0-6.39-2s3.62-1.61,6.18-1.61Z" transform="translate(-121.16 -105.6)"/><path d="M266.2,444.25H170.78c-2.12,0-4.24,0-6.36,0-2.54,0-5.17-.34-5.31-1.58-.17-1.52,2.79-1.75,5.57-1.82,1.85,0,3.71,0,5.57,0H363.46c1.33,0,2.66,0,4,0,3.07.09,7.33-.19,7.19,1.77s-4.37,1.65-7.45,1.65Q316.69,444.26,266.2,444.25Z" transform="translate(-121.16 -105.6)"/><path d="M282,370.69H170.72c-2.12,0-4.26,0-6.38,0-3.06-.07-5.56-.65-5.38-1.83.14-1,2.38-1.55,5.19-1.57l5.47,0h228.9c3.73,0,8.22-.05,8,1.84-.18,1.56-4.31,1.62-7.82,1.62q-27.81,0-55.63,0H282Z" transform="translate(-121.16 -105.6)"/></svg>