<?xml version="1.0" encoding="utf-8"?>
<!-- Generator: Adobe Illustrator 24.0.2, SVG Export Plug-In . SVG Version: 6.00 Build 0)  -->
<svg version="1.1" xmlns="http://www.w3.org/2000/svg" xmlns:xlink="http://www.w3.org/1999/xlink" x="0px" y="0px"
	 viewBox="0 0 730.3 558.9" style="enable-background:new 0 0 730.3 558.9;" xml:space="preserve">
<style type="text/css">
	.st0{display:none;}
	.st1{display:inline;fill:#214ED3;}
	.st2{display:inline;opacity:0.15;}
	.st3{display:inline;fill:#1965E0;}
	.st4{display:inline;}
	.st5{fill:#FFFFFF;}
	.st6{fill:#214ED3;}
	.st7{fill:#1965E0;}
	.st8{opacity:0.15;}
</style>
<g id="Layer_1" class="st0">
	<title>coaching</title>
	<path class="st1" d="M117.4,486.2h254.7c18.3-0.1,33.2-14.9,33.2-33.2V287.1c-0.1-18.3-14.9-33.2-33.2-33.2H223.7
		c0-19.7,0-39.4,0-59.1c0.2-1.9-0.8-3.7-2.5-4.6c-1.9-1-3.6-0.5-5.2,0.9c-0.4,0.3-0.7,0.7-1,1.1l-58.5,61.8h-39
		c-18.3,0.1-33.2,14.9-33.2,33.2V453C84.3,471.3,99.1,486.1,117.4,486.2z"/>
	<g class="st2">
		
			<image style="overflow:visible;" width="1639" height="1536" xlink:href="F704D803.png"  transform="matrix(0.24 0 0 0.24 48.1455 153.5862)">
		</image>
	</g>
	<path class="st3" d="M612.4,73.8H357.7c-18.3,0.1-33.2,14.9-33.2,33.2v165.9c0,18.3,14.9,33.2,33.2,33.3h148.4
		c0,19.7,0,39.4,0,59.1c-0.2,1.9,0.8,3.7,2.5,4.6c1.7,0.9,3.9,0.6,5.2-0.9c0.4-0.3,0.7-0.7,1-1.1l58.6-61.8h39
		c18.3-0.1,33.2-14.9,33.2-33.2V107C645.5,88.7,630.7,73.9,612.4,73.8z"/>
	<g class="st2">
		
			<image style="overflow:visible;" width="1639" height="1537" xlink:href="F704D801.png"  transform="matrix(0.24 0 0 0.24 288.3855 37.6662)">
		</image>
	</g>
	<path class="st3" d="M284,126"/>
	<g class="st4">
		<path class="st5" d="M605.9,134.9H362.7c-1.2,0-2.2-1-2.2-2.2l0,0c0-1.2,1-2.2,2.2-2.2h243.2c1.2,0,2.2,1,2.2,2.2l0,0
			C608.1,133.9,607.1,134.9,605.9,134.9z"/>
		<path class="st5" d="M536.1,172.2H362.7c-1.2,0-2.2-1-2.2-2.2l0,0c0-1.2,1-2.2,2.2-2.2h173.4c1.2,0,2.2,1,2.2,2.2l0,0
			C538.3,171.3,537.3,172.2,536.1,172.2z"/>
		<path class="st5" d="M574,208.9H362.7c-1.2,0-2.2-1-2.2-2.2l0,0c0-1.2,1-2.2,2.2-2.2H574c1.2,0,2.2,1,2.2,2.2l0,0
			C576.2,207.9,575.2,208.9,574,208.9z"/>
		<path class="st5" d="M605.9,244.9h-65.4c-1.2,0-2.2-1-2.2-2.2l0,0c0-1.2,1-2.2,2.2-2.2h65.4c1.2,0,2.2,1,2.2,2.2l0,0
			C608.1,244,607.1,244.9,605.9,244.9z"/>
	</g>
	<g class="st4">
		<path class="st5" d="M366.5,323.2H123.2c-1.2,0-2.2-1-2.2-2.2l0,0c0-1.2,1-2.2,2.2-2.2h243.2c1.2,0,2.2,1,2.2,2.2l0,0
			C368.6,322.2,367.7,323.2,366.5,323.2z"/>
		<path class="st5" d="M296.7,360.5H123.2c-1.2,0-2.2-1-2.2-2.2l0,0c0-1.2,1-2.2,2.2-2.2h173.4c1.2,0,2.2,1,2.2,2.2l0,0
			C298.9,359.5,297.9,360.5,296.7,360.5z"/>
		<path class="st5" d="M334.6,397.2H123.2c-1.2,0-2.2-1-2.2-2.2l0,0c0-1.2,1-2.2,2.2-2.2h211.3c1.2,0,2.2,1,2.2,2.2l0,0
			C336.8,396.2,335.8,397.2,334.6,397.2z"/>
		<path class="st5" d="M366.5,433.2H301c-1.2,0-2.2-1-2.2-2.2l0,0c0-1.2,1-2.2,2.2-2.2h65.4c1.2,0,2.2,1,2.2,2.2l0,0
			C368.6,432.2,367.7,433.2,366.5,433.2z"/>
	</g>
</g>
<g id="Outline_Creation">
	<path class="st6" d="M99.6,503.7h254.7c18.3-0.1,33.2-14.9,33.2-33.2V304.5c-0.1-18.3-14.9-33.2-33.2-33.2H205.9
		c0-19.7,0-39.4,0-59.1c0.2-1.9-0.8-3.7-2.5-4.6c-1.9-1-3.6-0.5-5.2,0.9c-0.4,0.3-0.7,0.7-1,1.1l-58.5,61.8h-39
		c-18.3,0.1-33.2,14.9-33.2,33.2v165.9C66.5,488.8,81.3,503.6,99.6,503.7z"/>
	<path class="st7" d="M594.6,91.3H339.9c-18.3,0.1-33.2,14.9-33.2,33.2v165.9c0,18.3,14.9,33.2,33.2,33.3h148.4
		c0,19.7,0,39.4,0,59.1c-0.2,1.9,0.8,3.7,2.5,4.6c1.7,0.9,3.9,0.6,5.2-0.9c0.4-0.3,0.7-0.7,1-1.1l58.6-61.8h39
		c18.3-0.1,33.2-14.9,33.2-33.2v-166C627.8,106.2,612.9,91.3,594.6,91.3z"/>
	<g class="st8">
		
			<image style="overflow:visible;" width="1639" height="1537" xlink:href="F704D807.png"  transform="matrix(0.24 0 0 0.24 270.6255 55.1862)">
		</image>
	</g>
	<path class="st7" d="M266.3,143.5"/>
	<g>
		<path class="st5" d="M588.1,152.4H344.9c-1.2,0-2.2-1-2.2-2.2v0c0-1.2,1-2.2,2.2-2.2h243.2c1.2,0,2.2,1,2.2,2.2v0
			C590.3,151.4,589.3,152.4,588.1,152.4z"/>
		<path class="st5" d="M518.4,189.7H344.9c-1.2,0-2.2-1-2.2-2.2v0c0-1.2,1-2.2,2.2-2.2h173.4c1.2,0,2.2,1,2.2,2.2v0
			C520.5,188.8,519.6,189.7,518.4,189.7z"/>
		<path class="st5" d="M556.3,226.4H344.9c-1.2,0-2.2-1-2.2-2.2l0,0c0-1.2,1-2.2,2.2-2.2h211.3c1.2,0,2.2,1,2.2,2.2l0,0
			C558.5,225.4,557.5,226.4,556.3,226.4z"/>
		<path class="st5" d="M588.1,262.4h-65.4c-1.2,0-2.2-1-2.2-2.2l0,0c0-1.2,1-2.2,2.2-2.2h65.4c1.2,0,2.2,1,2.2,2.2l0,0
			C590.3,261.5,589.3,262.4,588.1,262.4z"/>
	</g>
	<g>
		<path class="st5" d="M348.7,340.7H105.5c-1.2,0-2.2-1-2.2-2.2l0,0c0-1.2,1-2.2,2.2-2.2h243.2c1.2,0,2.2,1,2.2,2.2l0,0
			C350.9,339.7,349.9,340.7,348.7,340.7z"/>
		<path class="st5" d="M278.9,378H105.5c-1.2,0-2.2-1-2.2-2.2l0,0c0-1.2,1-2.2,2.2-2.2h173.4c1.2,0,2.2,1,2.2,2.2l0,0
			C281.1,377,280.1,378,278.9,378z"/>
		<path class="st5" d="M316.8,414.7H105.5c-1.2,0-2.2-1-2.2-2.2l0,0c0-1.2,1-2.2,2.2-2.2h211.3c1.2,0,2.2,1,2.2,2.2l0,0
			C319,413.7,318,414.7,316.8,414.7z"/>
		<path class="st5" d="M348.7,450.7h-65.4c-1.2,0-2.2-1-2.2-2.2v0c0-1.2,1-2.2,2.2-2.2h65.4c1.2,0,2.2,1,2.2,2.2v0
			C350.9,449.7,349.9,450.7,348.7,450.7z"/>
	</g>
</g>
</svg>
