<svg id="Layer_1" data-name="Layer 1" xmlns="http://www.w3.org/2000/svg" xmlns:xlink="http://www.w3.org/1999/xlink" viewBox="0 0 224.66 258.81"><defs><style>.cls-1{fill:none;}.cls-2{isolation:isolate;}.cls-3{clip-path:url(#clip-path);}.cls-4{fill:#fff;}.cls-5{fill:#231f20;}.cls-6{clip-path:url(#clip-path-2);}.cls-7{fill:#60f;}.cls-8{clip-path:url(#clip-path-3);}</style><clipPath id="clip-path" transform="translate(-547.83 -318.7)"><polygon class="cls-1" points="547.83 513.47 548.19 388.02 657.37 451.05 657.01 576.51 547.83 513.47"/></clipPath><clipPath id="clip-path-2" transform="translate(-547.83 -318.7)"><polygon class="cls-1" points="549.76 381.73 658.23 318.7 769.6 383 661.14 446.04 549.76 381.73"/></clipPath><clipPath id="clip-path-3" transform="translate(-547.83 -318.7)"><polygon class="cls-1" points="663.31 577.51 662.96 452.06 772.14 389.02 772.49 514.48 663.31 577.51"/></clipPath></defs><title>cube</title><g class="cls-2"><g class="cls-3"><polyline class="cls-4" points="108.11 133.17 1.77 71.77 1.43 193.97 107.77 255.36 108.11 133.17"/><path class="cls-5" d="M549.26,512.67l.35-122.2,106.33,61.39-.34,122.2L549.26,512.67m108.11-61.62L548.19,388l-.36,125.45,109.18,63,.36-125.46" transform="translate(-547.83 -318.7)"/></g></g><g class="cls-2"><g class="cls-6"><polyline class="cls-7" points="218.95 64.3 110.41 1.64 4.76 63.03 113.3 125.7 218.95 64.3"/><path class="cls-5" d="M552.59,381.73l105.65-61.39L766.78,383,661.13,444.4,552.59,381.73m217,1.27L658.23,318.7l-108.46,63L661.14,446,769.6,383" transform="translate(-547.83 -318.7)"/></g></g><g class="cls-2"><g class="cls-8"><polyline class="cls-4" points="222.89 72.77 116.55 134.16 116.9 256.35 223.24 194.96 222.89 72.77"/><path class="cls-5" d="M664.73,575.05l-.34-122.19,106.33-61.39.35,122.19L664.73,575.05M772.14,389,663,452.06l.35,125.45,109.18-63L772.14,389" transform="translate(-547.83 -318.7)"/></g></g></svg>