<?xml version="1.0" encoding="utf-8"?>
<!-- Generator: Adobe Illustrator 24.0.2, SVG Export Plug-In . SVG Version: 6.00 Build 0)  -->
<svg version="1.1" id="Layer_1" xmlns="http://www.w3.org/2000/svg" xmlns:xlink="http://www.w3.org/1999/xlink" x="0px" y="0px"
	 viewBox="0 0 378.8 199.9" style="enable-background:new 0 0 378.8 199.9;" xml:space="preserve">
<g>
	<path d="M368.9,95.3c-1.2-21.3-10.4-41.2-25.9-55.9c-15.5-14.6-35.9-22.8-57.2-22.8h-0.4c-0.4,0-0.8,0-1.2,0l-1.5,0.1
		c-0.8,0-1.6,0-2.4,0.1c-0.8,0.1-1.6,0.1-2.4,0.2l-1.4,0.1c-0.4,0-0.8,0.1-1.3,0.1c-1.4,0.2-2.9,0.4-4.5,0.7l-0.4,0.1h0
		c-21.1,4-39.9,16-52.3,33.5l-0.1,0.2h0c-0.3,0.4-21.3,34.5-26.5,45.4c-5.3-10.9-26.3-45-26.5-45.4l-2.1,1.6h0
		c6.8,9.2,24.9,42.1,27.2,46.6c-2.3,4.4-20.4,37.3-27.2,46.6l-0.2,0.3v0c-12.1,16.9-30.2,28.5-50.6,32.4l0.2,1.3l-0.8-1.2
		c-1.4,0.3-2.8,0.5-4.2,0.7c-0.4,0.1-0.8,0.1-1.2,0.1l-1.5,0.1c-0.8,0.1-1.5,0.2-2.3,0.2c-0.8,0.1-1.5,0.1-2.3,0.1l-1.5,0.1
		c-0.4,0-0.7,0-1.1,0l0,1.3l-0.4-1.3h0c-20.6,0-40.4-7.9-55.4-22c-15-14.2-24-33.5-25.1-54.1l-1.3,0.1l1.3-0.5
		c-0.1-1.4-0.1-2.7-0.1-4c0-1.3,0-2.7,0.1-4.1h-1.3l1.3-0.4c1.1-20.6,10.1-39.9,25.1-54.1c15-14.2,34.8-22,55.4-22l0,0l0.3,0
		c0.4,0,0.7,0,1.1,0l1.5,0.1c0.8,0,1.5,0,2.3,0.1c0.8,0.1,1.5,0.1,2.3,0.2l1.5,0.1c0.4,0,0.8,0.1,1.2,0.1c1.4,0.2,2.8,0.4,4.2,0.7
		l0.6,0.1h0c20.5,3.9,38.7,15.5,50.8,32.5l1.1-0.7l0.9-1c-12.4-17.5-31.2-29.5-52.3-33.4l-0.6-0.1c-1.4-0.3-2.8-0.5-4.3-0.7
		c-0.4-0.1-0.8-0.1-1.3-0.1l-1.4-0.1c-0.8-0.1-1.6-0.2-2.4-0.2c-0.8-0.1-1.6-0.1-2.4-0.1l-1.5-0.1c-0.4,0-0.8,0-1.2,0h-0.4
		c-21.3,0-41.8,8.1-57.2,22.8C24.1,54.1,14.8,74.1,13.6,95.3l0,0.5c-0.1,1.4-0.1,2.8-0.1,4.2c0,1.4,0,2.8,0.1,4.3l0,0.3
		c1.2,21.3,10.5,41.2,25.9,55.9c15.5,14.6,35.9,22.8,57.2,22.8h0.4c0.4,0,0.8,0,1.2,0l1.5-0.1c0.8,0,1.6,0,2.4-0.1
		c0.8-0.1,1.6-0.1,2.4-0.2l1.4-0.1c0.4,0,0.8-0.1,1.3-0.1c1.4-0.2,2.9-0.4,4.5-0.7l0.4-0.1v0c21.1-3.9,39.8-15.9,52.3-33.4l-1.1-0.8
		l1.3,0.5c0.3-0.4,21.3-34.5,26.5-45.4c5.3,10.9,26.3,45,26.5,45.4l1.1-0.8l-0.9,1c12.4,17.5,31.2,29.5,52.3,33.4l0.6,0.1
		c1.4,0.3,2.8,0.5,4.3,0.7c0.4,0.1,0.8,0.1,1.3,0.1l1.4,0.1c0.8,0.1,1.6,0.2,2.4,0.2c0.8,0.1,1.6,0.1,2.4,0.1l1.5,0.1
		c0.4,0,0.8,0,1.2,0h0.4l0,0c21.3,0,41.8-8.1,57.2-22.8c15.5-14.6,24.7-34.6,25.9-55.9l-1.3-0.1l1.3-0.4c0.1-1.4,0.1-2.8,0.1-4.2
		c0-1.4,0-2.8-0.1-4.1C368.9,95.8,368.9,95.4,368.9,95.3L368.9,95.3z M366.2,104.5c-1.1,20.6-10.1,39.9-25.1,54.1
		c-15,14.2-34.8,22.1-55.4,22l0,0l-0.3,0c-0.4,0-0.7,0-1.1,0l-1.5-0.1c-0.8,0-1.5,0-2.3-0.1c-0.8-0.1-1.5-0.1-2.3-0.2l-1.5-0.1
		c-0.4,0-0.8-0.1-1.2-0.1c-1.4-0.2-2.8-0.4-4.2-0.7l-0.6-0.1c-20.4-3.8-38.6-15.4-50.6-32.4l-0.2-0.3c-6.8-9.3-24.9-42.1-27.2-46.6
		c2.3-4.4,20.4-37.3,27.2-46.6l0.2-0.3h0c12.1-16.9,30.2-28.5,50.6-32.4l-0.2-1.3l0.8,1.2c1.4-0.3,2.8-0.5,4.2-0.7
		c0.4-0.1,0.8-0.1,1.2-0.1l1.5-0.1c0.8-0.1,1.5-0.2,2.3-0.2c0.8-0.1,1.5-0.1,2.3-0.1l1.5-0.1c0.4,0,0.7,0,1.1,0l0-1.3l0.4,1.3h0
		c20.6,0,40.4,7.9,55.4,22c15,14.2,24,33.5,25.1,54.1l1.3-0.1l-1.3,0.5c0.1,1.4,0.1,2.7,0.1,4c0,1.3,0,2.7-0.1,4.1h1.3L366.2,104.5z
		"/>
	<path d="M260.3,74.8c1.9,0.6,3.5,1.8,4.7,3.4c0.4,0.6,1.2,0.8,1.8,0.5c0.6-0.4,0.8-1.2,0.5-1.8c-1.6-2.2-3.8-3.8-6.4-4.6
		c-2.8-0.2-5.5,0.6-7.7,2.3c-1.9,1.8-2.8,4.3-2.6,6.9c0,1.4,0.1,2.7,0.2,3.9c0.4,6.4,0.5,9.4-7.5,11.3c-0.6,0.1-1,0.6-1,1.2
		c0,0.6,0.4,1.1,0.9,1.3l0.5,0.2c5.8,1.8,7.1,2.3,7.1,6.7c0,5.4,0,8.7,0,8.7v0c-0.3,1.9,0.2,3.7,1.4,5.2c2.2,2.3,5.3,3.6,8.4,3.5
		l0.1,0l0,0c0.2,0,0.3,0,0.4-0.1c2.8-1.2,5-3.4,6.2-6.2c0.3-0.7,0-1.4-0.7-1.7c-0.7-0.3-1.4,0-1.7,0.6c-0.9,2-2.5,3.7-4.4,4.7
		c-2.3,0.1-4.5-0.8-6.2-2.5c-0.7-1-1-2.2-0.9-3.4c0,0,0-3.4,0-8.9c0.5-3.8-2-7.3-5.7-8.1c6.1-2.7,5.9-7.2,5.6-12.7
		c-0.1-1.2-0.1-2.4-0.2-3.8c-0.2-1.8,0.5-3.6,1.8-4.9C256.5,75.3,258.4,74.7,260.3,74.8L260.3,74.8z"/>
	<path d="M331.4,96.7c-8-1.9-7.8-4.8-7.5-11.3c0.1-1.2,0.1-2.5,0.2-3.9v0c0.2-2.6-0.8-5.1-2.6-6.9c-2.2-1.8-5.1-2.6-7.9-2.3
		c-2.5,0.8-4.6,2.4-6.1,4.5c-0.2,0.3-0.2,0.7-0.1,1c0.1,0.3,0.3,0.6,0.6,0.8s0.7,0.2,1,0.1c0.3-0.1,0.6-0.3,0.8-0.6
		c1.1-1.5,2.7-2.7,4.4-3.3c2-0.2,4,0.4,5.6,1.6c1.3,1.3,1.9,3.1,1.8,4.9c0,1.4-0.1,2.6-0.2,3.8c-0.3,5.5-0.6,10,5.6,12.7
		c-3.7,0.8-6.2,4.4-5.7,8.1c0,5.6,0,8.9,0,9.2c0.1,1.1-0.2,2.3-0.9,3.2c-1.6,1.6-3.9,2.5-6.2,2.5c-2-1-3.6-2.6-4.4-4.7
		c-0.1-0.3-0.4-0.6-0.7-0.7c-0.3-0.1-0.7-0.1-1,0c-0.3,0.1-0.6,0.4-0.7,0.7s-0.1,0.7,0,1c1.2,2.8,3.4,5,6.2,6.2
		c0.1,0.1,0.3,0.1,0.4,0.1l0.1,0v0c3.2,0.1,6.3-1.2,8.4-3.5c1.1-1.4,1.6-3.2,1.4-5c0-0.1,0-3.5,0-9c0-4.4,1.4-4.9,7.1-6.7l0.5-0.2v0
		c0.6-0.2,0.9-0.7,0.9-1.3C332.4,97.3,332,96.8,331.4,96.7L331.4,96.7z"/>
	<path d="M299,66.5l-25.8,61.7c-0.1,0.3-0.1,0.7,0,1s0.4,0.6,0.7,0.7c0.3,0.1,0.7,0.1,1,0s0.6-0.4,0.7-0.7l25.8-61.7h0
		c0.1-0.3,0.1-0.7,0-1s-0.4-0.6-0.7-0.7c-0.3-0.1-0.7-0.1-1,0S299.1,66.2,299,66.5z"/>
	<path d="M103.7,83.3l-0.5,0l-0.5,0l-0.5,0l0,0c-1.7,0-3.5,0.3-5.1,0.8l-0.1,0h0c-1,0.3-1.9,0.7-2.8,1.2c-0.2,0.1-1.8,0.8-2.4,1v0
		c-1.5,0.4-3,0.7-4.5,0.7l-0.4,0l-0.4,0l0,1.3L86.1,87h0c-2.2,0.1-4.3-0.2-6.4-0.9c-0.2-0.5-0.6-0.8-1.1-0.8
		c-0.8-0.1-1.4,0.5-1.5,1.2c0,0.1,0,0.3,0,0.4c0.6,2.5,6.4,2.8,9,2.8l0.5,0l0.5,0l0.5,0v0c1.8,0,3.5-0.3,5.2-0.8
		c0.6-0.2,1-0.4,1.4-0.5v28.2h-3v0c-1.4,0-2.5,1.2-2.4,2.5c0,0.3,0.1,0.7,0.3,0.9s0.6,0.4,0.9,0.4c0.3,0,0.7-0.1,0.9-0.4
		c0.2-0.2,0.4-0.6,0.3-0.9h8.5c0.1,0.6,0.7,1.1,1.3,1.2c0.7,0,1.3-0.6,1.3-1.3c0-1.4-1.1-2.5-2.4-2.5h-3V87.4c0-0.1-0.1-0.1-0.1-0.2
		c0.4-0.2,0.9-0.4,1.2-0.5l0.1,0l0,0c1.5-0.4,3-0.7,4.5-0.7l0.3,0l0.5,0l0-1.3l0.5,1.3v0c2.2-0.1,4.3,0.2,6.4,0.9
		c0.1,0.5,0.5,0.9,1,1c0.1,0,0.2,0,0.3,0c0.6,0,1.1-0.4,1.3-1c0-0.1,0-0.3,0-0.4l0-0.4C112.1,83.6,106.2,83.3,103.7,83.3L103.7,83.3
		z M78.9,86.5l-0.4-0.1L78.9,86.5L78.9,86.5z"/>
	<path d="M113.8,66L113.8,66c-5-4.6-11.6-7-18.4-6.9C88.5,59,81.9,61.4,76.9,66c-15.7,13.4-5.3,33.6-5.1,34h0
		c4,5.7,6.8,12.1,8.3,18.9c1,9.1,5,9.7,5.8,9.7l0.1,0l18.4,0c0.5,0,5,0.2,6.1-9.7h0c1.5-6.9,4.3-13.3,8.4-19.1
		C119,99.7,129.5,79.4,113.8,66L113.8,66z M116.7,98.5L116.7,98.5c-4.3,6-7.3,12.9-8.8,20.1c-0.7,6-2.6,7.3-3.4,7.4L86,126
		c-0.7,0-2.6-1.4-3.3-7.4l0,0c-1.5-7.2-4.4-14-8.7-20C73.9,98.4,64.4,80,78.6,68c4.4-4,10.1-6.2,16-6.3c0.3,0,0.6,0,0.8,0
		c6.2-0.1,12.1,2.1,16.7,6.3C126.2,80,117,97.9,116.7,98.5L116.7,98.5z"/>
	<path d="M104.6,133.2c-0.3,0-0.7,0.1-0.9,0.4s-0.4,0.6-0.4,0.9v2.9c0,2-0.7,4-2.1,5.5l-4.1,4.4h0c-0.5,0.5-1.1,0.7-1.7,0.6
		c-0.5,0-1.1-0.2-1.4-0.6l-4.1-4.4c-1.4-1.5-2.1-3.4-2.1-5.5v-3.1c0-0.7-0.6-1.3-1.3-1.3s-1.3,0.6-1.3,1.3v3.1c0,2.7,1,5.3,2.8,7.3
		l4.1,4.4c1,1,2.3,1.5,3.7,1.5c1.3,0,2.5-0.5,3.3-1.5l4.1-4.4v0c1.8-2,2.8-4.6,2.8-7.3v-2.9c0-0.3-0.1-0.7-0.4-0.9
		S104.9,133.2,104.6,133.2L104.6,133.2z"/>
</g>
</svg>
