<svg id="Layer_1" data-name="Layer 1" xmlns="http://www.w3.org/2000/svg" viewBox="0 0 1080 1080"><defs><style>.cls-1,.cls-3{fill:#60f;}.cls-1,.cls-2,.cls-3{stroke:#60f;stroke-miterlimit:10;}.cls-2{fill:none;stroke-width:2px;}.cls-3{font-size:10.99px;font-family:Roboto-Regular, Roboto;}</style></defs><title>Elisha Ullith Logo</title><path class="cls-1" d="M525.21,659.07c-58.38,86.14-135,105.29-175.16,105.29-128.26,0-201-94.77-201-208.67,0-67,31.59-133.05,71.79-172.29,43.07-43.08,96.68-67,149.32-67,93.8,0,158.89,77.54,157.94,156,0,16.27-1,32.54-12.45,35.41-18.18,4.79-153.15,11.49-246,15.32,3.83,101.46,60.3,153.14,129.22,153.14,37.33,0,74.66-13.4,109.11-43.07ZM351,355.64c-38.29,0-70.84,45-76.58,120.6,39.25-.95,75.62-1.91,115.82-2.87,13.4-.95,19.14-2.87,19.14-19.14C410.35,406.37,388.34,355.64,351,355.64Z"/><path class="cls-1" d="M933.53,727.63c-57.43,7.66-118.69,20.1-181.86,34.46V697c-39.24,32.54-79.45,65.09-132.09,65.09-80.4,0-125.39-51.69-125.39-136.88V427.07c0-44-5.74-48.81-31.59-55.51l-20.1-5.75V335.18c48.82-1.91,124.43-8.61,178-16.27-1.92,40.2-2.88,90-2.88,144.54V603.2c0,62.21,31.59,83.27,65.09,83.27,26.8,0,47.86-5.74,68.92-27.76V428c0-44-4.79-51.69-31.59-56.47l-28.71-5.75V335.18c55.51-1.91,136.87-8.61,184.73-16.27V631c0,49.78,5.75,60.31,36.38,63.18l21,1.91Z"/><circle class="cls-2" cx="903.99" cy="669.77" r="12.5"/><text class="cls-3" transform="translate(895.94 673.49)">TM</text></svg>