<svg id="Layer_1" data-name="Layer 1" xmlns="http://www.w3.org/2000/svg" viewBox="0 0 785.49 448.96"><defs><style>.cls-1,.cls-3{fill:#fff;}.cls-1,.cls-2,.cls-3{stroke:#fff;stroke-miterlimit:10;}.cls-2{fill:none;stroke-width:2px;}.cls-3{font-size:10.99px;stroke-width:0.5px;font-family:Roboto-Regular, Roboto;}</style></defs><title>eu_white_logo</title><path class="cls-1" d="M1669.66,642.82c-58.39,86.14-135,105.29-175.17,105.29-128.26,0-201-94.77-201-208.67,0-67,31.58-133.05,71.79-172.29,43.07-43.08,96.67-67,149.32-67,93.8,0,158.89,77.54,157.93,156,0,16.27-1,32.54-12.44,35.41-18.19,4.79-153.15,11.49-246,15.32,3.83,101.46,60.3,153.14,129.22,153.14,37.33,0,74.66-13.4,109.12-43.07ZM1495.45,339.39c-38.29,0-70.83,45-76.57,120.6,39.24-.95,75.61-1.91,115.82-2.87,13.4-.95,19.14-2.87,19.14-19.14C1554.8,390.12,1532.78,339.39,1495.45,339.39Z" transform="translate(-1292.99 -299.64)"/><path class="cls-1" d="M2078,711.38c-57.43,7.66-118.69,20.1-181.86,34.46V680.75c-39.25,32.54-79.45,65.09-132.1,65.09-80.4,0-125.39-51.69-125.39-136.88V410.82c0-44-5.74-48.81-31.58-55.51l-20.1-5.75V318.93c48.81-1.91,124.43-8.61,178-16.27-1.91,40.2-2.87,90-2.87,144.54V587c0,62.21,31.59,83.27,65.09,83.27,26.8,0,47.86-5.74,68.92-27.76V411.78c0-44-4.79-51.69-31.59-56.47l-28.72-5.75V318.93c55.52-1.91,136.88-8.61,184.74-16.27v312c0,49.78,5.74,60.31,36.37,63.18l21.06,1.91Z" transform="translate(-1292.99 -299.64)"/><circle class="cls-2" cx="755.45" cy="353.88" r="12.5"/><text class="cls-3" transform="translate(747.4 357.6)">TM</text></svg>