<svg id="Layer_1" data-name="Layer 1" xmlns="http://www.w3.org/2000/svg" viewBox="0 0 196.67 197.01"><defs><style>.cls-1{fill:#fff;}</style></defs><title>instagram</title><path class="cls-1" d="M498,455.94c-13,0-26,.05-39,0C424.71,455.75,400,431.27,399.8,397q-.27-39.5,0-79c.23-34.28,24.91-58.8,59.17-58.92q39-.13,78,0c32.31.13,57,22,58.44,54.18,1.31,30.1,1.15,60.36-.19,90.46C594,432.18,570.48,454.26,542,455.65c-14.63.71-29.33.12-44,.12Zm-.53-49.34a49.11,49.11,0,1,0-48.68-49.27A49.16,49.16,0,0,0,497.45,406.6Zm65.72-106.74a8.46,8.46,0,0,0-8.48-8,8.23,8.23,0,0,0,.47,16.44A8.43,8.43,0,0,0,563.17,299.86Z" transform="translate(-399.67 -258.99)"/><path class="cls-1" d="M530.54,357.45A32.8,32.8,0,0,1,498,390.4c-17.9,0-32.57-14.76-32.58-32.87a32.54,32.54,0,1,1,65.08-.08Z" transform="translate(-399.67 -258.99)"/></svg>