<svg id="Layer_1" data-name="Layer 1" xmlns="http://www.w3.org/2000/svg" viewBox="0 0 225.35 211.06"><defs><style>.cls-1{fill:#fff;}</style></defs><title>linkedin</title><path class="cls-1" d="M520.38,326.88c10.41-6.66,21-10.7,32.65-11.67,26.81-2.22,48.66,12.22,56.06,38.1a102.52,102.52,0,0,1,3.85,26c.49,26.64.19,53.29.18,79.94,0,6.49-1.06,7.56-7.58,7.58q-19.24.06-38.48,0c-6.61,0-7.75-1.19-7.76-8,0-24,.08-48,0-71.95-.08-14.28-10.75-24-24.47-22.7-11.28,1.08-19.53,10.45-19.58,22.64-.1,23.82,0,47.64,0,71.45,0,7.8-.73,8.53-8.63,8.53-12.66,0-25.32,0-38,0-6,0-7.38-1.46-7.38-7.41q0-68.44,0-136.91c0-6.09,1.54-7.58,7.79-7.6,14-.05,28,0,42,0,8.27,0,8.94.68,9.18,9.12C520.13,324.67,520.23,325.32,520.38,326.88Z" transform="translate(-387.87 -255.81)"/><path class="cls-1" d="M387.88,390.57q0-34,0-68c0-6.37,1.26-7.67,7.54-7.69q22-.07,44,0c5.66,0,7.14,1.47,7.14,7.14q.06,69,0,137.93c0,5.48-1.37,6.82-6.83,6.84q-22.5.1-45,0c-5.7,0-6.84-1.29-6.84-7.29Q387.85,425,387.88,390.57Z" transform="translate(-387.87 -255.81)"/><path class="cls-1" d="M418.8,255.81c3.93,1.13,9.46,1.95,14.28,4.27,8.58,4.12,13.42,11.3,13.25,21.12s-5.43,16.65-14.05,20.65a34.8,34.8,0,0,1-28.57.61C393.09,298.2,387.16,289,388,278.36c.78-9.7,8.41-18.18,18.9-20.7C410.27,256.85,413.77,256.57,418.8,255.81Z" transform="translate(-387.87 -255.81)"/></svg>