<svg id="Layer_1" data-name="Layer 1" xmlns="http://www.w3.org/2000/svg" viewBox="0 0 245.12 177.43"><defs><style>.cls-1{fill:#fff;}</style></defs><title>upwork</title><path class="cls-1" d="M470.59,355.71c-3.29,13.84-6.45,27.24-9.64,40.63-3.86,16.19-1.8,13.9-17.16,14.07-4.5,0-9,.1-13.5,0-5.42-.15-7.29-2.47-6.08-7.7q7.46-32.08,15.05-64.13c2.09-8.81,1.56-10.44-6.68-17.32a58.75,58.75,0,0,1-15.31,28.11c-29.37,29.66-79.35,18.24-92.52-21.42a74.33,74.33,0,0,1-3.58-21.5c-.46-21.82-.18-43.66-.16-65.49,0-6.31,1.39-7.73,7.53-7.77,6.5,0,13,0,19.49,0,5.71,0,7.08,1.37,7.09,7.09,0,22.67-.09,45.33.05,68,.11,15.39,12.11,25.52,26.67,22.83,9.86-1.83,17.25-11,17.34-22.12.16-21.82.06-43.65.07-65.48,0-9.64.68-10.32,10.11-10.33,5.66,0,11.35.3,17-.08,5.49-.38,7.81,2.07,8.73,7.18a146.21,146.21,0,0,0,13.4,40.09c.89,1.78,1.9,3.49,3.29,6,9.79-22.29,26.27-35.33,50-38.08,14.61-1.7,28.1,2.32,40,11C566,277,573.15,310.38,558.37,336.06,541,366.23,510.8,373.17,470.59,355.71Zm34.47-73.06c-8.49.38-16.41,5-20.18,14.88-2.48,6.47-3.67,13.44-5.25,20.23a3.43,3.43,0,0,0,1.19,2.8c6.92,5.32,14.22,9.77,23.2,10.83a24.74,24.74,0,0,0,27.78-23.54C532.51,294.35,520.93,282.57,505.06,282.65Z" transform="translate(-320.91 -233.04)"/></svg>