<?xml version="1.0" encoding="utf-8"?>
<!-- Generator: Adobe Illustrator 27.2.0, SVG Export Plug-In . SVG Version: 6.00 Build 0)  -->
<svg version="1.1" id="Layer_2_00000114764687017245621300000008719403232021872274_"
	 xmlns="http://www.w3.org/2000/svg" xmlns:xlink="http://www.w3.org/1999/xlink" x="0px" y="0px" viewBox="0 0 89.7 34.5"
	 style="enable-background:new 0 0 89.7 34.5;" xml:space="preserve">
<style type="text/css">
	.st0{fill:#FFFFFF;}
</style>
<g>
	<path class="st0" d="M85,26v2.2c0,0,0,0.1,0,0.2v0.2c0,0.1,0,0.1,0,0.2s0,0.1,0,0.2s0,0.3,0,0.5l0,0L83.2,26H82v4.6h0.9v-2.2
		c0-0.1,0-0.3,0-0.4s0-0.3,0-0.4c0-0.2,0-0.3,0-0.5l0,0l1.8,3.5h1.2V26H85z M78.9,28.8h0.9v1c-0.1,0-0.2,0-0.3,0c-0.1,0-0.2,0-0.3,0
		c-0.2,0-0.4,0-0.6-0.1s-0.3-0.2-0.4-0.3c-0.1-0.1-0.2-0.3-0.2-0.5c-0.1-0.2-0.1-0.4-0.1-0.6s0-0.5,0.1-0.6c0.1-0.2,0.2-0.4,0.3-0.5
		c0.1-0.1,0.3-0.2,0.4-0.3c0.2-0.1,0.4-0.1,0.6-0.1s0.4,0,0.6,0.1s0.3,0.1,0.5,0.2l0.3-0.8c-0.2-0.1-0.4-0.1-0.7-0.2
		C79.8,26,79.5,26,79.3,26c-0.4,0-0.7,0-1,0.2s-0.6,0.3-0.8,0.5c-0.2,0.2-0.4,0.5-0.5,0.8s-0.2,0.6-0.2,1s0.1,0.7,0.1,1
		c0.1,0.3,0.2,0.5,0.4,0.8s0.4,0.4,0.7,0.5c0.3,0.1,0.6,0.1,0.9,0.1c0.2,0,0.3,0,0.5,0s0.3,0,0.4,0s0.3,0,0.4-0.1
		c0.1,0,0.2-0.1,0.4-0.1V28h-1.8C78.9,28,78.9,28.8,78.9,28.8z M76.2,26.5V26h-2.1v0.6l0.6,0.3v3L74.1,30v0.6h2.1V30l-0.6-0.3v-3
		L76.2,26.5z M73.4,28.8c-0.1-0.1-0.1-0.2-0.2-0.4c-0.1-0.1-0.2-0.2-0.3-0.3c-0.1-0.1-0.3-0.2-0.4-0.3c-0.1-0.1-0.2-0.1-0.3-0.2
		c-0.1,0-0.2-0.1-0.2-0.2c-0.1,0-0.1-0.1-0.1-0.2s0-0.1,0-0.2s0-0.3,0.1-0.4s0.2-0.1,0.4-0.1c0.1,0,0.2,0,0.2,0c0.1,0,0.2,0,0.2,0
		c0.1,0,0.2,0.1,0.2,0.1c0.1,0,0.2,0.1,0.3,0.1l0.3-0.8c-0.1,0-0.2-0.1-0.3-0.1C73,26,72.9,26,72.8,26s-0.2,0-0.3-0.1
		c-0.1,0-0.2,0-0.3,0c-0.2,0-0.4,0-0.6,0.1s-0.3,0.1-0.5,0.3c-0.1,0.1-0.2,0.2-0.3,0.4c-0.1,0.2-0.1,0.4-0.1,0.5
		c0,0.2,0,0.4,0.1,0.5s0.2,0.3,0.3,0.4c0.1,0.1,0.2,0.2,0.3,0.3c0.1,0.1,0.2,0.1,0.3,0.2c0.1,0.1,0.2,0.1,0.3,0.2
		c0.1,0.1,0.2,0.1,0.2,0.2s0.1,0.1,0.2,0.2c0,0.1,0.1,0.1,0.1,0.2s0,0.1,0,0.2s-0.1,0.1-0.1,0.2c-0.1,0-0.1,0.1-0.2,0.1
		s-0.2,0-0.3,0s-0.2,0-0.3,0c-0.1,0-0.2,0-0.3-0.1s-0.2-0.1-0.3-0.1c-0.1,0-0.2-0.1-0.3-0.1v0.9c0.2,0.1,0.4,0.2,0.6,0.2
		s0.4,0.1,0.6,0.1c0.3,0,0.5,0,0.7-0.1s0.4-0.1,0.5-0.3c0.1-0.1,0.2-0.3,0.3-0.4c0.1-0.2,0.1-0.4,0.1-0.6
		C73.5,29.1,73.4,29,73.4,28.8z M69.8,26.8V26h-2.7v4.6h2.7v-0.8h-1.7v-1.2h1.6v-0.8h-1.6v-1C68.1,26.8,69.8,26.8,69.8,26.8z
		 M65.9,27.3c-0.1-0.3-0.3-0.5-0.4-0.7c-0.2-0.2-0.4-0.3-0.7-0.4s-0.7-0.2-1-0.2h-1.4v4.6h1.2c0.4,0,0.7,0,1-0.1s0.5-0.2,0.7-0.5
		s0.4-0.4,0.5-0.7c0.1-0.3,0.2-0.6,0.2-1C66,27.9,66,27.5,65.9,27.3z M64.7,29.4c-0.2,0.3-0.5,0.4-0.9,0.4h-0.4v-3h0.5
		c0.2,0,0.3,0,0.5,0.1c0.1,0.1,0.3,0.1,0.4,0.3s0.2,0.3,0.2,0.5c0,0.1,0,0.3,0,0.6C65,28.8,64.9,29.2,64.7,29.4z M57.5,28.8h0.9v1
		c-0.1,0-0.2,0-0.3,0s-0.2,0-0.3,0c-0.2,0-0.4,0-0.5-0.1c-0.2-0.1-0.3-0.2-0.4-0.3c-0.1-0.1-0.2-0.3-0.2-0.5s-0.1-0.4-0.1-0.6
		s0-0.5,0.1-0.6c0.1-0.2,0.2-0.4,0.3-0.5s0.3-0.2,0.4-0.3c0.2-0.1,0.4-0.1,0.6-0.1s0.4,0,0.6,0.1s0.3,0.1,0.5,0.2l0.3-0.8
		c-0.2-0.1-0.4-0.1-0.7-0.2C58.5,26,58.2,26,58,26c-0.4,0-0.7,0-1,0.2c-0.3,0.1-0.6,0.3-0.8,0.5s-0.4,0.5-0.5,0.8s-0.2,0.6-0.2,1
		s0,0.7,0.1,1s0.2,0.5,0.4,0.8s0.4,0.4,0.7,0.5s0.6,0.1,0.9,0.1c0.2,0,0.3,0,0.5,0s0.3,0,0.4,0c0.1,0,0.3,0,0.4-0.1
		c0.1,0,0.2-0.1,0.4-0.1V28h-1.8C57.5,28,57.5,28.8,57.5,28.8z M53.5,26v2.4c0,0.1,0,0.1,0,0.2v0.2c0,0.1,0,0.1,0,0.2s0,0.3,0,0.5
		l0,0L51.7,26h-1.2v4.6h0.9V28c0-0.1,0-0.3,0-0.4c0-0.2,0-0.3,0-0.5l0,0l1.8,3.5h1.2V26H53.5L53.5,26z M49.6,26.5V26h-2.1v0.6
		l0.6,0.3v3L47.4,30v0.6h2.1V30L49,29.8v-3L49.6,26.5z M45.6,26v2.4c0,0.1,0,0.1,0,0.2v0.2c0,0.1,0,0.1,0,0.2s0,0.3,0,0.5l0,0
		L43.8,26h-1.2v4.6h0.9V28c0-0.1,0-0.3,0-0.4c0-0.2,0-0.3,0-0.5l0,0l1.8,3.5h1.2V26H45.6L45.6,26z M41.8,30.5c0-0.1-0.1-0.1-0.1-0.2
		c-0.1-0.1-0.1-0.2-0.2-0.3c-0.1-0.1-0.2-0.2-0.2-0.4c-0.2-0.3-0.4-0.6-0.6-1c0.1,0,0.2-0.1,0.3-0.2s0.2-0.2,0.2-0.3
		s0.1-0.2,0.2-0.4c0-0.1,0.1-0.3,0.1-0.4c0-0.5-0.1-0.8-0.4-1c-0.3-0.2-0.7-0.4-1.3-0.4h-1.3v4.6h1v-1.8h0.4l1,1.8L41.8,30.5
		C41.8,30.6,41.8,30.5,41.8,30.5z M40.2,27.9C40.1,28,39.9,28,39.6,28h-0.3v-1.2h0.2c0.3,0,0.5,0,0.6,0.1s0.2,0.2,0.2,0.5
		S40.3,27.8,40.2,27.9z M36.1,25.9h-1.2l-1.5,4.7h1l0.3-1.1h1.6l0.3,1.1h1C37.6,30.6,36.1,25.9,36.1,25.9z M34.9,28.7l0.3-1
		c0,0,0,0,0-0.1s0-0.1,0-0.2s0-0.1,0-0.2s0-0.1,0.1-0.2c0-0.1,0-0.1,0-0.2s0-0.1,0-0.2c0,0.1,0,0.2,0,0.3c0,0.1,0,0.2,0.1,0.3
		c0,0.1,0.1,0.2,0.1,0.3c0,0.1,0,0.1,0.1,0.2l0.3,1C36.1,28.7,34.9,28.7,34.9,28.7z M32.8,26.8V26h-2.7v4.6h2.7v-0.8h-1.7v-1.2h1.6
		v-0.8h-1.6v-1C31.1,26.8,32.8,26.8,32.8,26.8z M27.5,29.8V26h-1v4.6h2.7v-0.8C29.2,29.8,27.5,29.8,27.5,29.8z"/>
	<g>
		<path class="st0" d="M36.9,8.2c0.9,0,1.7,0.3,2.3,1c0.7,0.7,1,1.4,1,2.3v6.6c0,0.9-0.3,1.7-1,2.3s-1.4,1-2.3,1H26.7V3.9h3.5v4.4
			L36.9,8.2L36.9,8.2z M30.2,11.7V18h6.5v-6.3H30.2z"/>
		<path class="st0" d="M51.7,8.2h3.5v10c0,0.9-0.3,1.7-1,2.3s-1.4,1-2.3,1h-6.8c-0.9,0-1.7-0.3-2.3-1c-0.7-0.7-1-1.4-1-2.3v-10h3.5
			V18h6.5L51.7,8.2L51.7,8.2z"/>
		<path class="st0" d="M67.2,8.2c0.9,0,1.7,0.3,2.3,1c0.7,0.7,1,1.4,1,2.3v6.6c0,0.9-0.3,1.7-1,2.3s-1.4,1-2.3,1H57.1V3.9h3.5v4.4
			L67.2,8.2L67.2,8.2z M60.6,11.7V18H67v-6.3H60.6z"/>
		<path class="st0" d="M75.6,8.2h6.8c0.9,0,1.7,0.3,2.3,1c0.7,0.7,1,1.4,1,2.3v6.6c0,0.9-0.3,1.7-1,2.3s-1.4,1-2.3,1h-6.8
			c-0.9,0-1.7-0.3-2.3-1c-0.7-0.7-1-1.4-1-2.3v-6.6c0-0.9,0.3-1.7,1-2.3C73.9,8.5,74.7,8.2,75.6,8.2z M75.8,11.7V18h6.5v-6.3
			C82.2,11.7,75.8,11.7,75.8,11.7z"/>
	</g>
</g>
</svg>
