<?xml version="1.0" encoding="utf-8"?>
<!-- Generator: Adobe Illustrator 27.6.1, SVG Export Plug-In . SVG Version: 6.00 Build 0)  -->
<svg version="1.1" id="Layer_1" xmlns="http://www.w3.org/2000/svg" xmlns:xlink="http://www.w3.org/1999/xlink" x="0px" y="0px"
	 viewBox="0 0 313 243" style="enable-background:new 0 0 313 243;" xml:space="preserve">
<style type="text/css">
	.st0{fill:#FFFFFF;}
</style>
<g>
	<g>
		<path class="st0" d="M111.9,100.5c2,0,4,0.7,5.2,2.5c1.7,1.7,2.5,3.2,2.5,5.2v15.2c0,2-0.7,4-2.5,5.2c-1.7,1.2-3.2,2.5-5.2,2.5
			H88.2V90.3h8.2v10.2H111.9z M96.2,108.5v14.7h15.2v-14.7C111.4,108.5,96.2,108.5,96.2,108.5z"/>
		<path class="st0" d="M146,100.5h8.2v23.2c0,2-0.7,4-2.5,5.2c-1.7,1.2-3.2,2.5-5.2,2.5h-15.7c-2,0-4-0.7-5.2-2.5
			c-1.7-1.7-2.5-3.2-2.5-5.2v-23.2h8.2v22.7h15.2L146,100.5L146,100.5L146,100.5z"/>
		<path class="st0" d="M182.1,100.5c2,0,4,0.7,5.2,2.5c1.7,1.7,2.5,3.2,2.5,5.2v15.2c0,2-0.7,4-2.5,5.2c-1.7,1.2-3.2,2.5-5.2,2.5
			h-23.4V90.3h8.2v10.2H182.1z M166.7,108.5v14.7h14.7v-14.7C181.4,108.5,166.7,108.5,166.7,108.5z"/>
		<path class="st0" d="M201.6,100.5h15.7c2,0,4,0.7,5.2,2.5c1.7,1.7,2.5,3.2,2.5,5.2v15.2c0,2-0.7,4-2.5,5.2
			c-1.7,1.2-3.2,2.5-5.2,2.5h-15.7c-2,0-4-0.7-5.2-2.5c-1.7-1.7-2.5-3.2-2.5-5.2v-15.2c0-2,0.7-4,2.5-5.2
			C197.6,101,199.6,100.5,201.6,100.5z M202.1,108.5v14.7h15.2v-14.7C217.3,108.5,202.1,108.5,202.1,108.5z"/>
	</g>
	<g>
		<path class="st0" d="M87.6,152.6v-11.2H90v9.2h4.1v2H87.6L87.6,152.6z"/>
		<path class="st0" d="M102.4,152.6H96v-11.2h6.4v1.9h-4.1v2.5h3.8v1.9h-3.8v2.9h4.1V152.6L102.4,152.6z"/>
		<path class="st0" d="M111.1,152.6l-0.8-2.7h-3.9l-0.8,2.7h-2.4l3.6-11.2h2.9l3.6,11.2H111.1L111.1,152.6z M109.8,147.9l-0.7-2.4
			c0-0.1-0.1-0.2-0.1-0.4c-0.1-0.2-0.1-0.4-0.2-0.7c-0.1-0.3-0.1-0.5-0.2-0.8c-0.1-0.3-0.1-0.5-0.1-0.6c0,0.1,0,0.2-0.1,0.4
			c0,0.2-0.1,0.3-0.1,0.5c0,0.2-0.1,0.3-0.1,0.5c0,0.2-0.1,0.3-0.1,0.5s-0.1,0.3-0.1,0.4c0,0.1-0.1,0.2-0.1,0.3l-0.7,2.4
			L109.8,147.9L109.8,147.9z"/>
		<path class="st0" d="M117.3,148.3v4.3h-2.4v-11.2h3.1c1.4,0,2.5,0.3,3.2,0.8c0.7,0.6,1,1.4,1,2.5c0,0.4-0.1,0.7-0.2,1
			c-0.1,0.3-0.2,0.6-0.4,0.8c-0.2,0.2-0.4,0.5-0.6,0.6c-0.2,0.2-0.5,0.3-0.7,0.5c0.6,0.9,1.1,1.7,1.5,2.4c0.2,0.3,0.4,0.6,0.6,0.9
			c0.2,0.3,0.3,0.5,0.5,0.8s0.3,0.4,0.4,0.5l0.1,0.2h-2.6l-2.4-4.3H117.3L117.3,148.3z M117.3,146.4h0.6c0.7,0,1.1-0.1,1.4-0.4
			c0.3-0.3,0.4-0.6,0.4-1.2s-0.2-0.9-0.5-1.1c-0.3-0.2-0.8-0.3-1.4-0.3h-0.6C117.3,143.3,117.3,146.4,117.3,146.4z"/>
		<path class="st0" d="M134.2,152.6h-3l-4.4-8.5h-0.1c0,0.4,0.1,0.8,0.1,1.2c0,0.3,0,0.7,0.1,1c0,0.4,0,0.7,0,1v5.3h-2.1v-11.2h3
			l4.4,8.4h0c0-0.4,0-0.8-0.1-1.2c0-0.2,0-0.3,0-0.5c0-0.2,0-0.3,0-0.5s0-0.3,0-0.5c0-0.2,0-0.3,0-0.4v-5.3h2.1V152.6L134.2,152.6z"
			/>
		<path class="st0" d="M141.2,152.6h-5.1v-1.3l1.4-0.6v-7.2l-1.4-0.6v-1.3h5.1v1.3l-1.4,0.6v7.2l1.4,0.6V152.6z"/>
		<path class="st0" d="M152.6,152.6h-3l-4.4-8.5h-0.1c0,0.4,0.1,0.8,0.1,1.2c0,0.3,0,0.7,0.1,1c0,0.4,0,0.7,0,1v5.3h-2.1v-11.2h3
			l4.4,8.4h0c0-0.4,0-0.8-0.1-1.2c0-0.2,0-0.3,0-0.5c0-0.2,0-0.3,0-0.5s0-0.3,0-0.5s0-0.3,0-0.4v-5.3h2.1V152.6L152.6,152.6z"/>
		<path class="st0" d="M159.6,146.3h4.4v5.8c-0.3,0.1-0.6,0.2-0.9,0.3c-0.3,0.1-0.6,0.1-0.9,0.2c-0.3,0.1-0.7,0.1-1,0.1
			c-0.4,0-0.7,0-1.1,0c-0.8,0-1.6-0.1-2.2-0.4c-0.6-0.3-1.2-0.6-1.6-1.1c-0.4-0.5-0.8-1.1-1-1.8c-0.2-0.7-0.3-1.5-0.3-2.5
			c0-0.9,0.1-1.7,0.4-2.4c0.3-0.7,0.6-1.3,1.1-1.8s1.1-0.9,1.8-1.1c0.7-0.3,1.6-0.4,2.5-0.4c0.6,0,1.2,0.1,1.7,0.2
			c0.6,0.1,1.1,0.3,1.6,0.5l-0.8,1.9c-0.3-0.2-0.7-0.3-1.2-0.4c-0.4-0.1-0.9-0.2-1.4-0.2c-0.5,0-1,0.1-1.4,0.3
			c-0.4,0.2-0.8,0.4-1.1,0.8c-0.3,0.3-0.5,0.7-0.7,1.2c-0.2,0.5-0.2,1-0.2,1.6c0,0.6,0.1,1.1,0.2,1.5c0.1,0.5,0.3,0.8,0.5,1.2
			c0.2,0.3,0.5,0.6,0.9,0.8s0.8,0.3,1.3,0.3c0.3,0,0.6,0,0.9,0s0.4-0.1,0.6-0.1v-2.3h-2.1L159.6,146.3L159.6,146.3z"/>
		<path class="st0" d="M179.4,146.9c0,0.9-0.1,1.8-0.4,2.5c-0.3,0.7-0.6,1.3-1.1,1.8c-0.5,0.5-1.1,0.8-1.8,1.1
			c-0.7,0.2-1.5,0.4-2.4,0.4h-2.9v-11.2h3.3c0.8,0,1.6,0.1,2.2,0.4c0.7,0.2,1.2,0.6,1.7,1c0.5,0.5,0.8,1,1.1,1.7
			C179.3,145.2,179.4,146,179.4,146.9L179.4,146.9z M177,146.9c0-0.6-0.1-1.2-0.2-1.6c-0.1-0.4-0.3-0.8-0.5-1.1
			c-0.2-0.3-0.5-0.5-0.9-0.7c-0.3-0.1-0.7-0.2-1.2-0.2h-1.1v7.3h0.9c1,0,1.7-0.3,2.2-0.9C176.7,149.1,177,148.2,177,146.9z"/>
		<path class="st0" d="M188.1,152.6h-6.4v-11.2h6.4v1.9h-4.1v2.5h3.8v1.9h-3.8v2.9h4.1V152.6L188.1,152.6z"/>
		<path class="st0" d="M196.6,149.5c0,0.5-0.1,0.9-0.3,1.3s-0.4,0.7-0.7,1c-0.3,0.3-0.7,0.5-1.2,0.7c-0.5,0.2-1,0.2-1.6,0.2
			c-0.5,0-1.1-0.1-1.6-0.2c-0.5-0.1-1-0.3-1.4-0.5v-2.2c0.2,0.1,0.5,0.2,0.7,0.3c0.3,0.1,0.5,0.2,0.8,0.3c0.3,0.1,0.5,0.2,0.8,0.2
			c0.3,0.1,0.5,0.1,0.8,0.1s0.5,0,0.7-0.1c0.2-0.1,0.3-0.1,0.4-0.2c0.1-0.1,0.2-0.2,0.3-0.4c0.1-0.1,0.1-0.3,0.1-0.5
			c0-0.2,0-0.4-0.1-0.6c-0.1-0.2-0.2-0.3-0.4-0.4c-0.2-0.1-0.4-0.3-0.6-0.4c-0.2-0.1-0.5-0.3-0.8-0.4c-0.2-0.1-0.5-0.3-0.8-0.4
			c-0.3-0.2-0.6-0.4-0.8-0.6c-0.3-0.3-0.5-0.6-0.6-0.9c-0.2-0.4-0.3-0.8-0.3-1.3s0.1-0.9,0.3-1.3c0.2-0.4,0.4-0.7,0.7-1
			c0.3-0.3,0.7-0.5,1.1-0.6c0.4-0.1,0.9-0.2,1.5-0.2c0.3,0,0.5,0,0.8,0.1c0.3,0,0.5,0.1,0.8,0.2c0.3,0.1,0.5,0.1,0.8,0.2
			c0.3,0.1,0.5,0.2,0.8,0.3l-0.8,1.8c-0.2-0.1-0.4-0.2-0.6-0.3c-0.2-0.1-0.4-0.2-0.6-0.2s-0.4-0.1-0.6-0.1c-0.2,0-0.4,0-0.5,0
			c-0.4,0-0.7,0.1-0.9,0.3c-0.2,0.2-0.3,0.5-0.3,0.8c0,0.2,0,0.4,0.1,0.5c0.1,0.1,0.2,0.3,0.3,0.4c0.1,0.1,0.3,0.3,0.5,0.4
			c0.2,0.1,0.5,0.3,0.8,0.4c0.4,0.2,0.7,0.4,1.1,0.6c0.3,0.2,0.6,0.4,0.8,0.7c0.2,0.3,0.4,0.5,0.5,0.9S196.6,149,196.6,149.5
			L196.6,149.5z"/>
		<path class="st0" d="M202.9,152.6h-5.1v-1.3l1.4-0.6v-7.2l-1.4-0.6v-1.3h5.1v1.3l-1.4,0.6v7.2l1.4,0.6V152.6z"/>
		<path class="st0" d="M208.9,146.3h4.4v5.8c-0.3,0.1-0.6,0.2-0.9,0.3c-0.3,0.1-0.6,0.1-0.9,0.2c-0.3,0.1-0.7,0.1-1,0.1
			c-0.4,0-0.7,0-1.1,0c-0.8,0-1.6-0.1-2.2-0.4c-0.6-0.3-1.2-0.6-1.6-1.1c-0.4-0.5-0.8-1.1-1-1.8c-0.2-0.7-0.3-1.5-0.3-2.5
			c0-0.9,0.1-1.7,0.4-2.4c0.3-0.7,0.6-1.3,1.1-1.8s1.1-0.9,1.8-1.1c0.7-0.3,1.6-0.4,2.5-0.4c0.6,0,1.2,0.1,1.7,0.2
			c0.6,0.1,1.1,0.3,1.6,0.5l-0.8,1.9c-0.3-0.2-0.7-0.3-1.2-0.4c-0.4-0.1-0.9-0.2-1.4-0.2c-0.5,0-1,0.1-1.4,0.3s-0.8,0.4-1.1,0.8
			c-0.3,0.3-0.5,0.7-0.7,1.2c-0.2,0.5-0.2,1-0.2,1.6c0,0.6,0.1,1.1,0.2,1.5c0.1,0.5,0.3,0.8,0.5,1.2c0.2,0.3,0.5,0.6,0.9,0.8
			c0.4,0.2,0.8,0.3,1.3,0.3c0.3,0,0.6,0,0.9,0c0.2,0,0.4-0.1,0.6-0.1v-2.3h-2.1L208.9,146.3L208.9,146.3z"/>
		<path class="st0" d="M225.4,152.6h-3l-4.4-8.5h-0.1c0,0.4,0.1,0.8,0.1,1.2c0,0.3,0,0.7,0.1,1c0,0.4,0,0.7,0,1v5.3h-2.1v-11.2h3
			l4.4,8.4h0c0-0.4,0-0.8-0.1-1.2c0-0.2,0-0.3,0-0.5c0-0.2,0-0.3,0-0.5c0-0.2,0-0.3,0-0.5c0-0.2,0-0.3,0-0.4v-5.3h2.1L225.4,152.6
			L225.4,152.6z"/>
	</g>
</g>
</svg>
