<?xml version="1.0" encoding="UTF-8"?>
<svg id="Layer_1" data-name="Layer 1" xmlns="http://www.w3.org/2000/svg" viewBox="0 0 628 243">
  <defs>
    <style>
      .cls-1 {
        fill: #fff;
      }
    </style>
  </defs>
  <g id="kaqCvh.tif">
    <g>
      <path class="cls-1" d="m114.11,80.91c-.4.26-.79,0-1.19.26,1.19.26,2.25.4,3.44.66,5.16,1.06,10.2,3.05,14.57,5.96,6.36,4.24,11.39,10.06,14.57,16.95.26.4.66.79.4,1.19-.26.26-.79.26-1.19.26s-.79.26-1.06.26c-.4,0-.66-.26-.79-.66-.79-1.46-1.59-3.05-2.38-4.24-3.05-4.63-7.02-8.61-11.79-11.65-3.05-1.85-6.22-3.44-9.53-4.37-2.65-.79-5.16-1.06-7.95-1.19-4.24-.26-8.34.26-12.45,1.19-3.58,1.06-7.02,2.38-10.2,4.63-2.65,1.19-4.77,3.05-6.75,5.03-2.25,2.38-4.24,4.77-5.83,7.55-.66,1.06-1.19,1.99-1.59,3.05-.26.4-.4.66-1.06.66-.66-.26-1.19-.26-1.59-.26s-.4-.26-.26-.66c1.59-3.84,3.84-7.42,6.62-10.59,2.25-2.38,4.63-4.63,7.15-6.62,3.84-2.65,7.95-4.63,12.45-5.83,1.59-.4,3.18-.79,5.03-1.19.26,0,.4-.26.4-.4h10.99Z"/>
      <path class="cls-1" d="m560.1,108.99c-.66,0-1.06.26-1.59.26-.79,0-1.19-.26-1.19-1.06-.26-1.46-.26-2.78-.26-4.24-.26.26-.26.4-.4.4-.26.66-.66,1.46-.79,1.99-.26.4-.4.66-1.06.66-1.06,0-1.19-.26-1.59-1.06-.26-.66-.4-1.19-.66-1.85-.26.26-.26.4-.26.66,0,1.19-.26,2.25-.26,3.44,0,.66-.26.79-.79.79-.4,0-1.06-.26-1.59-.26-.4,0-.26-.26-.26-.4,0-1.19,0-2.25.26-3.44.26-1.85.26-3.58.26-5.43,0-1.19,0-1.46,1.46-1.19,1.85,0,1.46-.4,2.25,1.59.4,1.06.79,1.99,1.06,2.78,0,.26,0,.4.4.4.4-.79.79-1.85,1.06-2.65.26-.66.4-1.19.66-1.85.26-.4.4-.4.66-.4h1.59c.4,0,.66.26.66.66,0,1.85.26,3.44.26,5.16,0,.26,0,.4.26.66.26-.66,0-1.19.26-1.59l-.4,5.96h0Z"/>
      <path class="cls-1" d="m67.5,107.79c.26-.26.4-.26.4-.26,3.05.66,6.22.79,9.4,1.59,3.58.79,7.15,1.85,10.86,3.05,2.78,1.06,5.56,2.25,8.34,3.84,1.19.79,2.38,1.59,3.58,2.25q.66.4.79-.26c1.06-3.97,1.99-7.81,2.65-11.79.26-1.59.66-3.18.79-4.77,0,0,0-.26.26-.4.26.79.4,1.59.4,2.38.4,2.38.4,4.77.4,7.15,0,3.58-.4,7.02-1.19,10.46-.26.66,0,1.19.4,1.59,1.99,2.38,3.18,5.03,3.97,7.95,0,.26.26.4.26.66h.26c.26-1.06.4-2.25.79-3.18.79-2.38,1.99-4.37,3.58-6.22.26-.4.4-.66.26-1.19-.66-2.78-1.06-5.43-1.19-8.21-.26-3.18,0-6.62.4-9.8,0-.66.26-1.19.4-1.85q0-.26.26-.26c.26,0,.26.26.26.4,0,1.19.26,2.25.4,3.44.66,4.37,1.59,8.61,2.78,12.98q.26,1.06,1.06.4c3.44-2.38,7.02-4.24,10.99-5.56,3.97-1.46,7.95-2.65,12.18-3.44,2.65-.66,5.16-.79,7.95-1.19.4,0,.79-.26,1.46-.4-.66.66-1.19.79-1.59.79-5.56,1.59-11.26,3.58-16.55,6.22-3.97,1.99-7.55,4.37-10.86,7.42-.66.66-1.46,1.19-1.99,1.99-.26.26-.26.4,0,.79.79,1.59,1.46,3.18,2.25,4.77,1.85,3.18,3.84,6.22,6.36,8.61,2.65,2.38,5.56,4.24,9,5.16.79.26,1.59.26,2.38.4.4,0,.66,0,.79-.4,1.59-2.78,3.44-5.56,4.37-8.74,1.06-3.05,1.85-5.96,1.99-9.14.26-2.78.26-5.43-.26-8.21-.26-1.99-.79-3.97-1.19-5.96-.26-.66-.26-.79.66-1.06.66-.26,1.06-.26,1.59-.4.4-.26.66,0,.66.4.79,3.44,1.59,6.75,1.59,10.46.26,4.63-.4,9-1.85,13.37-1.59,5.03-3.97,9.53-7.42,13.64-2.25,2.65-4.37,5.03-7.15,7.02-5.03,3.58-10.59,5.96-16.82,7.15-3.44.66-6.75.66-10.2.66-3.58-.26-7.15-1.06-10.59-1.99-2.25-.66-4.37-1.85-6.36-3.05-3.18-1.85-6.22-3.84-8.61-6.36-2.78-2.78-5.03-5.96-7.02-9.4-1.85-3.05-3.05-6.22-3.84-9.53-.66-2.65-1.06-5.43-1.19-8.21-.26-4.24.4-8.34,1.46-12.58.26-.4.4-.66.79-.4.4.26,1.06.4,1.46.4.66.26.79.26.66,1.06-.4,1.46-.66,2.78-.79,3.97-.66,3.18-.66,6.62-.26,9.8.4,4.63,1.85,8.74,3.97,12.98.79,1.85,1.99,3.44,3.05,5.03.26.4.66.26.79.26,2.65-.26,4.77-1.19,7.02-2.65,2.78-1.85,5.16-4.24,7.15-6.75,1.85-2.65,3.44-5.43,4.77-8.34.26-.4.26-.79.4-1.19,0-.26,0-.4-.26-.4-2.65-3.05-5.83-5.56-9.14-7.55-3.44-1.99-6.75-3.58-10.59-5.16-3.05-1.19-6.22-2.25-9.4-3.18-1.19-.66-1.72-.93-2.38-1.06h0Zm41.18,29.4v.4c-.26,1.46-.4,2.78-.79,4.24-.79,3.18-2.38,5.96-3.84,8.74-.26.4-.66.4-1.06.4-1.06,0-1.85,0-2.65.26-1.85.26-3.58.4-5.43.4-.26,0-.4,0-.4-.26s0-.26.26-.4c1.06-.79,1.85-1.99,2.65-3.05,3.44-4.37,5.56-9.4,5.03-15.23-.26-1.06-.4-1.99-.79-3.05-.26,0-.26.26-.26.26-1.06,1.85-1.85,3.84-3.05,5.56-2.25,3.58-5.16,6.75-8.34,9.53-1.85,1.59-3.84,2.78-5.83,3.97-.4.26-.4.4,0,.66,2.65,2.38,5.56,4.24,8.74,5.56,4.77,2.25,10.06,3.44,15.23,3.44,2.25,0,4.63,0,6.75-.4,3.44-.66,6.62-1.59,9.53-3.05,3.44-1.59,6.36-3.58,9.14-5.96q.4-.4,0-.79c-.26-.26-.66-.4-.79-.66-5.83-3.44-10.46-7.95-14.04-13.64-1.06-1.59-1.99-3.18-2.78-5.03,0-.26,0-.4-.26-.4s-.26.26-.26.4c-.4,1.19-.66,2.38-.79,3.84-.26,3.18.66,6.36,1.99,9.14,1.46,2.78,3.18,5.43,5.56,7.55,0,0,.4.26.26.4,0,.26-.26,0-.4,0-2.65-.26-5.16-.26-7.81-.66-.4,0-.79-.26-1.06-.66-1.99-3.44-3.58-7.02-4.37-10.99.13.4.13-.13-.13-.53h0Z"/>
      <path class="cls-1" d="m464.36,117.59c.79-1.06,1.46-1.99,2.38-2.78,2.25-1.46,4.37-2.25,7.02-1.85.79,0,1.59.26,2.38.4,2.65.79,4.63,1.99,5.83,4.63q0,.26.26.26c.26,0,.26-.26.26-.4,2.38-3.97,6.22-5.56,10.86-4.77,1.99.26,3.84,1.06,5.16,2.25.79.79,1.46,1.85,1.85,3.05.66,1.85,1.06,3.58,1.06,5.43v20.26c0,.4-.26.66-.66.66-1.06,0-1.85.26-2.78.26-1.46.26-2.78-.26-4.24-.26q-1.19-.26-1.19-1.19v-16.95c0-1.06-.26-1.99-.4-3.05-.66-2.38-2.25-3.05-4.37-2.78-2.65.4-4.24,2.25-4.63,5.03-.26.79-.26,1.85-.26,2.65v15.63q0,.79-.79.79c-.79,0-1.85.26-2.65.26-1.46.26-2.78-.26-4.24-.26q-1.06-.26-1.06-1.19v-15.36c0-1.46,0-3.05-.4-4.37-.66-2.65-1.99-3.44-4.63-3.05-2.65.4-3.97,1.99-4.37,4.77-.26,1.06-.26,2.25-.26,3.18v14.96q0,1.06-.79,1.06c-2.38.4-4.77.4-7.42,0-.26,0-.4-.26-.4-.4v-29.4c0-1.19,0-1.06,1.19-1.19,1.85-.26,3.44-.26,5.16,0,.66,0,1.06.4,1.19,1.06.26.79.4,1.85.4,2.65.26-.4.26-.26.53,0h0Z"/>
      <path class="cls-1" d="m305.33,101.17c1.46,0,2.78,0,4.37.26.4,0,.79.26.79.79,1.19,3.58,2.25,7.15,3.44,10.86,1.19,3.97,2.65,7.95,3.84,12.05,1.99,6.36,3.97,12.58,5.96,18.94q.26.79-.66.79c-.79,0-1.59,0-2.38.26-1.46.26-2.65,0-3.97,0-.4,0-.79-.26-1.46-.26s-.79-.26-1.06-.79c-.66-2.38-1.46-4.77-1.99-7.15-.26-.4-.4-.66-.79-.66h-12.45c-1.46-.26-1.19,0-1.46,1.06-.66,2.38-1.46,4.63-1.99,7.02,0,.26-.26.4-.66.66-1.06,0-1.99.26-3.05.4s-2.25,0-3.18-.26c-.4,0-.79,0-1.46-.26-.66,0-.79-.26-.66-.79.4-1.06.66-2.25,1.06-3.18,1.06-2.78,1.85-5.83,2.78-8.61,1.46-3.97,2.65-8.21,3.84-12.18,1.46-4.24,2.65-8.61,3.97-12.84.66-1.59,1.06-3.18,1.59-4.77.26-.4.4-.66.79-.66,1.72-.93,3.18-.93,4.77-.66Zm-.26,9.53c-.4.4-.4.79-.4,1.19-1.59,5.16-3.05,10.59-4.63,15.76-.26.66-.26.79.4.79h8.74c.4,0,.66-.26.4-.66-1.46-5.16-3.05-10.46-4.37-15.76.13-.26.13-.66-.13-1.32h0Z"/>
      <path class="cls-1" d="m414.31,121.96v20.66c0,.66-.26.79-.79,1.06-2.25.66-4.37,1.06-6.62,1.19-3.97.4-7.95.4-12.05-.79-3.44-1.06-5.83-3.44-7.55-6.62-1.06-1.85-1.59-3.97-1.85-5.96-.4-3.58.26-7.15,1.85-10.46,1.85-3.84,4.77-6.22,8.74-7.42,2.78-.79,5.43-1.06,8.21-.66.26,0,.66,0,.79.26.4.26.66,0,.66-.4v-11.39c0-.66.26-.79.66-.79,2.38-.26,4.77-.26,7.42,0,.4,0,.66.26.66.66v19.6c-.13.26-.13.66-.13,1.06h0Zm-8.34,6.75v-7.95c0-.66-.26-.79-.79-1.06-1.06-.26-2.25-.26-3.18-.26-2.65,0-5.56,1.99-6.36,4.37-.66,1.59-.79,3.05-1.06,4.63-.26,2.25.26,4.37,1.46,6.36.79,1.19,1.85,1.99,3.18,2.38,1.99.66,4.24.66,6.22.26.66,0,.79-.4.79-.79-.53-2.52-.26-5.16-.26-7.95h0Z"/>
      <path class="cls-1" d="m520.91,139.97c.26-.79.4-1.59.66-2.25.79-2.78,1.59-5.83,2.38-8.61.79-3.05,1.59-5.96,2.38-9,.66-1.99,1.19-3.97,1.59-6.22.26-.4.4-.66.79-.66,2.38-.26,5.03-.4,7.55,0,.4,0,.66.26.4.79-1.19,3.97-2.38,8.21-3.84,12.18-1.85,5.96-3.58,11.79-5.43,17.61-1.06,3.05-1.85,5.96-2.78,9-.66,1.85-1.59,3.18-3.05,4.37-1.19,1.06-2.65,1.46-4.24,1.85-2.38.4-5.03.26-7.42-.4-.79-.26-1.06-.26-.79-1.19,0-1.59.4-3.05.79-4.63.26-.79.26-.66,1.06-.66,1.19.26,2.65.4,3.84.26,1.59-.26,2.38-1.19,3.18-2.65.79-1.59,1.19-3.58,1.59-5.16.26-.4-.26-.4-.4-.4h-3.84q-1.06,0-1.19-.79c-2.25-7.15-4.24-14.17-6.36-21.45-.79-2.65-1.59-5.16-2.25-7.81q-.26-.79.66-1.06c2.38-.4,5.03-.26,7.55,0,.66,0,1.06.26,1.06,1.06,1.99,8.21,3.97,16.55,5.83,24.76-.13.4.13.66.26,1.06-.13,0,0,0,0,0h0Z"/>
      <path class="cls-1" d="m174.36,122.36c0,2.78.26,5.43,1.06,7.95,1.06,2.78,2.65,5.03,5.56,6.22,1.99.79,3.97,1.19,6.22,1.06,1.46,0,2.78-.26,3.97-.4,1.06-.26,1.85-.4,2.65-.79.4-.26.66,0,.79.26.79,1.99,1.46,3.97,1.85,5.96,0,.4-.26.66-.4.66-1.99.79-3.97,1.19-5.96,1.46-1.99.26-4.24.4-6.36.26-5.03-.4-9.4-1.99-12.98-5.83-3.05-3.05-4.37-6.62-5.16-10.86-.4-2.25-.66-4.24-.66-6.36.26-4.63,1.19-8.74,3.58-12.84,2.25-3.44,5.03-5.83,8.74-7.42,3.18-1.19,6.62-1.59,10.2-1.46,2.78.26,5.43.79,7.95,1.59.4.26.66.4.4.79-.26,1.85-.79,3.44-1.46,5.16v.26q-.4,1.19-1.59.79c-2.38-.79-5.03-1.06-7.42-.79-1.85.26-3.58.66-5.03,1.46-1.99,1.06-3.18,2.78-4.24,4.77-1.32,2.91-1.72,5.43-1.72,8.08h0Z"/>
      <path class="cls-1" d="m439.34,131.5h-9.14q-.79,0-.66.79c.4,3.05,2.25,5.03,5.43,5.56,2.65.66,5.16.4,7.95-.26,1.06-.26,1.85-.4,2.78-.79.4-.26.66,0,.79.4.79,1.85,1.19,3.44,1.46,5.43,0,.66-.26.79-.66,1.06-1.99.79-4.24,1.19-6.22,1.46-3.05.26-5.96.26-9-.4-3.97-1.06-7.02-3.05-9-6.75-1.19-2.38-1.85-4.77-1.85-7.42-.26-3.18.4-6.36,1.59-9.4,1.59-3.58,4.24-5.96,7.95-7.15,1.59-.4,3.18-.79,4.63-.79,4.37,0,8.34,1.19,11.26,4.77,1.46,1.85,2.25,3.84,2.65,5.96.4,2.38.66,4.77.26,7.42,0,.4-.26.66-.79.66-3.18-.53-6.36-.53-9.4-.53h0Zm-3.84-5.96h4.77q1.19,0,1.06-1.19c-.26-1.46-.79-2.78-1.85-3.84-1.19-1.06-2.65-1.46-4.24-1.19-2.25.26-3.97,1.19-4.77,3.18-.4.79-.66,1.46-.66,2.25-.26.66,0,.66.66.79,1.46,0,3.31,0,5.03,0h0Z"/>
      <path class="cls-1" d="m273.55,131.5h-9.4q-.4,0-.4.4c.26,1.99.79,3.58,2.65,4.77,1.85,1.06,3.58,1.59,5.56,1.59,2.78,0,5.43-.4,7.95-1.19.4-.26.66,0,.66.26.79,1.85,1.46,3.58,1.46,5.56,0,.4-.26.66-.4.66-2.65.79-5.43,1.46-8.21,1.59-2.38.26-4.63,0-7.02-.66-5.96-1.46-9.53-5.16-10.86-11.39-.26-1.19-.4-2.38-.4-3.58,0-4.63,1.06-9,4.24-12.58,2.25-2.38,5.03-3.58,7.95-3.97,2.38-.4,4.77-.26,7.15.4,3.18,1.06,5.83,3.05,7.42,5.96,1.59,3.05,2.25,5.96,1.85,9.14,0,.66-.26,1.46-.26,1.99,0,.79-.26.79-.79.79-2.91.26-6.22.26-9.14.26h0Zm-3.97-5.96h5.43c.4,0,.66,0,.66-.4-.26-1.46-.66-2.78-1.59-3.97-1.19-1.46-2.65-1.85-4.37-1.59-1.85,0-3.44.79-4.37,2.25-.79,1.06-1.06,2.25-1.46,3.44-.26.4,0,.66.66.66,1.59-.4,3.18-.4,5.03-.4h0Z"/>
      <path class="cls-1" d="m379.88,134.15v8.21c0,.66-.26.79-.79,1.06-2.78.79-5.83,1.46-8.74,1.59-1.59,0-3.18.4-4.77,0-2.25-.26-4.37-.4-6.36-1.59-3.05-1.85-4.77-4.37-4.77-7.81,0-1.85,0-3.58,1.06-5.16,1.46-2.78,3.84-4.24,6.62-5.03,3.05-.79,6.22-1.06,9.14-.79.4,0,.66-.26.66-.66,0-2.65-1.85-4.37-4.37-4.63-2.78-.26-5.56.26-8.34,1.06-.66.26-.79.26-1.06-.4-.79-1.59-1.46-3.18-1.46-5.16,0-.4.26-.66.66-.79,1.85-.4,3.58-1.06,5.43-1.19,3.97-.4,7.95-.4,11.79,1.19,2.65,1.19,4.37,3.18,5.16,5.96.66,1.99.79,3.97.79,6.22-.66,2.78-.66,5.3-.66,7.95h0Zm-8.34,0h0v-3.44c0-.4-.26-.66-.66-.66-1.59-.26-3.18-.26-4.77,0-2.38.4-4.24,1.99-3.84,4.77.26,1.59,1.59,3.05,3.44,3.18,1.85.26,3.58.26,5.43,0,.4,0,.66-.26.66-.66-.26-.93-.26-2.25-.26-3.18h0Z"/>
      <path class="cls-1" d="m226.14,133.88v8.34c0,.66-.26.79-.66,1.06-3.44,1.06-6.75,1.46-10.2,1.59-2.65.26-5.43,0-7.95-.79-3.58-1.19-6.36-3.97-6.75-8.21-.26-1.46,0-2.78.4-4.24.4-1.59,1.46-2.78,2.38-3.84,1.99-1.85,4.24-2.78,6.75-3.05,2.38-.4,4.63-.4,7.02-.26.66,0,.79,0,.66-.79,0-1.46-.66-2.65-1.85-3.44-.4-.4-1.06-.66-1.59-.79-2.65-.66-5.03-.26-7.55.26-.66.26-1.46.26-1.99.66-.4.26-.66,0-.79-.4-.79-1.59-1.46-3.18-1.46-5.16,0-.4.26-.79.66-1.06,3.58-1.06,7.15-1.59,10.86-1.46,3.18.26,5.96,1.06,8.61,3.05,1.46,1.19,2.25,2.78,2.78,4.37.66,1.85.79,3.84.79,5.56-.13,3.31-.13,6.09-.13,8.61h0Zm-8.47.26h0v-3.18c0-.66-.26-.66-.66-.79-1.85-.4-3.44-.26-5.16.26-1.19.26-1.99.79-2.78,1.59-1.85,2.25-.66,5.43,2.25,6.22,1.85.4,3.84.4,5.83,0,.4,0,.66-.26.66-.79-.13-1.06-.13-2.38-.13-3.31h0Z"/>
      <path class="cls-1" d="m341.87,145.14c-3.58,0-6.62-.4-9.14-1.99-2.25-1.19-3.58-3.18-4.77-5.43-1.19-2.25-1.85-4.37-1.85-7.02-.26-2.65,0-5.16.79-7.55,1.46-4.77,4.37-7.95,9.14-9.53,1.46-.4,2.78-.66,4.37-.66,3.18-.26,6.22.26,9.14,1.46.4.26.4.4.4.66-.26,1.85-.66,3.84-1.19,5.43-.26.4-.4.66-.79.4-2.38-1.06-5.03-1.19-7.42-.79-2.78.66-4.63,2.65-5.16,5.43-.66,2.38-.66,5.03,0,7.42.66,3.18,3.18,5.16,6.36,5.43,1.06,0,2.25.26,3.18,0,1.06-.26,2.25-.4,3.18-.79q.66-.26,1.06.4c.79,1.59,1.19,3.44,1.46,5.16,0,.4-.26.79-.66.79-3.05.53-5.69,1.32-8.08,1.19h0Z"/>
      <path class="cls-1" d="m233.55,128.98v-14.57q0-1.06,1.06-1.06c1.85-.26,3.44-.26,5.16,0,.66.26,1.06.4,1.19,1.19.26.79.4,1.85.4,2.65,0,.26,0,.4.26.4s.4-.26.4-.4c1.19-1.59,2.65-2.78,4.24-3.58,1.85-.79,3.58-.79,5.43-.66.4,0,.66.26.66.66.26,1.99.26,4.24-.26,6.22,0,.4-.26.66-.79.66-1.46,0-2.78,0-4.24.26-2.25.4-3.44,1.85-4.24,3.84-.66,1.46-.79,3.05-.79,4.63v14.43q0,.79-.79.79c-2.38.26-4.77.26-7.15,0-.66,0-.79-.26-.79-.79.26-4.9.26-9.93.26-14.7h0Z"/>
      <path class="cls-1" d="m124.57,111.5c-3.05,0-5.56-2.65-5.56-5.83,0-2.78,2.78-5.43,5.56-5.43,3.05,0,5.56,2.65,5.56,5.56-.26,3.18-2.78,5.69-5.56,5.69Z"/>
      <path class="cls-1" d="m92.92,111.5c-2.78,0-5.43-2.65-5.43-5.56s2.65-5.43,5.56-5.43,5.56,2.65,5.56,5.43c-.13,3.05-2.65,5.56-5.69,5.56Z"/>
      <path class="cls-1" d="m546.07,104.88v3.44c0,.4-.26.66-.66.79-.66.26-1.19,0-1.85-.26-.26,0-.26-.26-.26-.4v-6.75c0-.66,0-.79-.79-.79h-1.46c-.4,0-.4-.26-.4-.4v-1.46q0-.79.79-.79h6.36c.4,0,.66.26.79.66v1.46c0,.4-.26.66-.66.66h-1.46c-.4,0-.66,0-.66.66.26,1.06.26,1.99.26,3.18h0Z"/>
    </g>
  </g>
</svg>