<?xml version="1.0" encoding="UTF-8"?>
<svg id="Layer_1" data-name="Layer 1" xmlns="http://www.w3.org/2000/svg" viewBox="0 0 493.5 243">
  <defs>
    <style>
      .cls-1 {
        fill: #fff;
      }
    </style>
  </defs>
  <g id="_50jLTs.tif" data-name=" 50jLTs.tif">
    <g>
      <path class="cls-1" d="m426.5,126.52c-.4.6-1,.6-1.59.2-.4-.2-.8-.2-1.2-.2-1.39-.4-2.39,0-3.39.99-1,.99-1.79,1.99-2.59,2.98-.2.4-.4.79-.4,1.39v13.5c0,1.39-.2,1.59-1.59,1.59h-1.99c-.4,0-.8-.4-.8-.79v-22.24c0-1.19.2-1.39,1.39-1.39.6,0,1.2,0,1.79.2.4.2.8.4.8.99v2.18c0,.2,0,.4.2.4s.2-.2.4-.2c.8-.99,1.59-1.99,2.79-2.78,1.79-1.19,3.59-1.19,5.58-.4.4.2.6.6,1,.79-.4-.2-.4,2.98-.4,2.78Z"/>
      <path class="cls-1" d="m117.62,137.24c.2-.4.8-.4,1-.6,2.59-.79,4.58-2.18,6.38-3.97,4.38-4.17,6.97-9.33,8.17-15.29.2-1.39.4-2.58.4-3.97,0-.2,0-.6-.2-.79h.2c2.19,3.57,3.59,7.35,4.18,11.32.8,5.16.2,10.13-1.2,15.09-1.59,5.16-4.18,9.53-7.77,13.5-3.79,4.17-8.37,7.15-13.55,9.13-3.59,1.39-7.17,2.18-10.96,2.38-5.78.4-11.16-.6-16.34-2.98-4.78-1.99-8.77-4.96-12.36-8.94-4.18-4.57-6.97-9.93-8.37-16.09-.4-2.78-.6-5.56-.6-8.34.2-4.77,1.2-9.33,3.19-13.7,1.39-2.98,3.19-5.96,5.38-8.34,3.19-3.77,7.17-6.75,11.56-8.94,1.39-.79,2.99-1.39,4.58-1.79.6-.2.6-.4.4-.79-2.19-3.57-3.19-7.55-2.99-11.72,0-.99.2-1.99.4-2.98,0-.2,0-.6.4-.6.2,0,.4.2.4.4,1.99,2.78,4.18,5.36,6.97,7.35,2.39,1.79,4.98,2.98,7.97,3.57.6,0,1,.4,1.39.6,2.19,2.18,4.38,4.37,7.17,5.96,1.99,1.19,3.99,2.18,6.38,2.58,1.2.2,2.59.2,3.79-.2.4-.2.6,0,.4.4-1,3.18-2.59,6.16-5.58,8.14,0,0-.2.2-.4.2-.2.2-.4.2-.6.2-.2-.2,0-.4,0-.6.2-.99.4-1.79.2-2.78,0-.2,0-.4-.2-.4s-.2.2-.4.2c-1,.99-2.19,1.59-3.39,1.99q-.2,0-.4.2c-.2,0-.4.2-.6,0-.2-.2,0-.4.2-.6.6-.6.8-1.19,1-1.99,0-.2.2-.4,0-.6s-.4.2-.4.2c-1,.99-2.19,1.39-3.59,1.79-.2,0-.4.2-.4,0s.2-.2.2-.4c.8-.6,1-1.39.8-2.38,0-.2,0-.4-.4-.4-2.19.2-4.18.6-6.18,1.59-.2,0-.4.2-.4.4s.4.2.4.2c2.19.6,4.38,1.59,6.38,2.98,1.39.99,2.79.79,4.18.2.2,0,.2-.2.4-.2h.2c0,.6-.4,1.19-.8,1.59-.6.6-.4.79.4,1.19,1.2.4,2.39,0,3.59-.4.4-.2,1-.4,1.39-.6.2,0,.4-.2.4,0,.2.2,0,.4-.2.4-1.99,1.39-3.99,2.78-6.38,3.38-.4,0-.8.2-1,.2q-.4,0-.4-.4c.4-1.19,0-1.79-1-2.38-2.59-1.99-5.58-2.78-8.77-2.98-4.38-.2-7.77,1.59-11.16,3.97-3.19,2.38-5.78,5.16-7.77,8.74-1.79,3.38-2.99,6.95-3.19,10.52-.4,4.57.4,8.94,2.19,13.11,2.99,6.35,7.57,10.72,13.75,13.5,2.99,1.39,5.98,1.99,9.17,2.18,3.39.2,6.58-.2,9.76-1.19,3.39-.99,6.38-2.58,8.97-4.96,4.38-3.57,7.37-8.14,8.77-13.5.2-.4.2-.99.4-1.39,0-.4,0-.79-.6-.79-.8,0-1.59-.2-2.39-.2h-9.37c-1.2-.4-1.99-.6-3.19-.2h0Z"/>
      <path class="cls-1" d="m343,141.02c1.39,0,2.99,0,4.58.4,1.99.4,3.79,1.19,4.98,2.78,1.79,2.38,1.59,5.96-.4,8.34-1.39,1.79-3.59,2.78-5.78,3.38-3.79.99-7.57.79-11.36-.2-1.2-.4-2.19-.79-2.99-1.59-2.39-2.18-2.39-5.56-.4-7.94.4-.4.8-.99,1.2-1.39.2-.2.2-.4,0-.6-1.99-1.59-2.19-4.37-.8-6.55.2-.6.6-.99,1-1.39s.4-.6,0-.99c-2.19-2.58-1.79-7.94.8-10.72,1.39-1.39,3.19-2.18,5.18-2.58,2.19-.4,4.58,0,6.78.2h6.38c.8,0,1.39.4,1.59,1.19.2.99.2,2.18,0,3.18-.2.79-.6.99-1.39.99h-1q-.6,0-.4.6c.8,1.99.4,3.97-.4,5.76-.8,2.18-2.59,3.57-4.78,4.17-2.39.79-4.78.99-7.17.2-.2,0-.6-.4-.8,0-.2.4-.4.79-.2,1.39.2.6.8.79,1.39.99,1.39.4,2.59.4,3.99.4h0Zm-1.2,10.52c1.39,0,2.79-.2,3.79-.99.8-.6,1.2-1.39,1-2.38-.2-.99-1-1.19-1.79-1.39h-.2c-1.79-.2-3.39,0-5.18-.2-.2,0-.4,0-.6.2-.4.4-.8.79-1.2,1.39-.8,1.19-.4,2.38,1,2.98,1,.2,2.19.2,3.19.4h0Zm-.2-24.62c-1.99,0-3.39,1.59-3.39,3.57,0,1.79,1.59,3.18,3.39,3.18,1.99,0,3.59-1.39,3.59-3.57s-1.39-3.18-3.59-3.18h0Z"/>
      <path class="cls-1" d="m239.97,137.44v8.14c0,.99-.2,1.39-1.39,1.59-1.2.2-2.39.2-3.39,0-.8-.2-1.2-.4-1.2-1.39q0-.6-.6-.2c-1.59,1.19-3.19,1.99-4.98,2.18-1.99.2-3.99,0-5.78-.79-2.59-1.19-3.99-3.38-4.18-6.16-.2-2.38.4-4.37,2.19-5.96,1.2-.99,2.59-1.79,4.18-2.18,1.99-.6,3.79-.6,5.78-.79h1.79c.4,0,.6-.2.6-.6,0-.79-.2-1.59-.4-2.18-.4-.99-1.2-1.59-2.19-1.79-2.39-.4-4.58,0-6.78.99-.6.2-1.2.6-1.59.79-1,.4-1.59.2-1.99-.99-.4-.99-.4-1.79-.2-2.78.2-.79.4-1.19,1.2-1.59,1.79-1.19,3.79-1.79,5.98-1.99,2.19-.4,4.38-.2,6.58,0,3.79.6,6.38,3.18,6.58,7.15-.2,3.18-.4,6.16-.2,8.54Zm-7.17.99v-.99c0-.4-.2-.6-.6-.79-1.2,0-2.39,0-3.59.2-.6.2-1.39.4-1.99.79-1,.6-1.39,1.79-1.2,2.98.4,1.19,1.2,1.99,2.39,1.99s2.39-.4,3.39-.99c1.2-.79,1.99-1.79,1.59-3.18h0Z"/>
      <path class="cls-1" d="m304.54,134.66v-10.72c0-1.19.2-1.39,1.39-1.79,1.2-.2,2.39-.2,3.39,0s1.39.6,1.39,1.79c0,.4-.2.79.2.99s.6-.2.8-.4c1.99-1.79,4.18-2.78,6.97-2.78,2.99,0,5.58,1.19,7.17,3.97.8,1.39,1.2,2.98,1.2,4.57.2,5.16.2,10.33.2,15.49,0,.99-.4,1.59-1.39,1.59-1.39.2-2.79.2-4.38,0-1.2-.2-1.39-.6-1.39-1.79v-12.91c0-.99-.2-1.99-.6-2.78-.8-1.59-2.39-2.18-3.79-1.59-1.39.6-2.39,1.59-3.39,2.78-.2.2-.2.6-.2.99v14.1c0,.99-.4,1.19-1.2,1.39-1.59.4-3.19.4-4.58,0-1-.2-1.39-.6-1.39-1.79-.2-3.77-.2-7.55-.4-11.12h0Z"/>
      <path class="cls-1" d="m206.5,136.65h-6.38q-.8,0-.8.79c.4,3.38,2.59,4.57,5.58,4.77,2.39,0,4.58-.4,6.78-1.19,1.59-.6,2.39-.2,2.39,1.59v1.59c0,1.19-.6,1.99-1.59,2.38-1.39.4-2.59.79-3.99.99-3.19.4-6.38.6-9.57-.6-3.19-.99-5.18-3.38-6.18-6.35-1.2-3.77-1.2-7.74.2-11.52,1.39-4.17,4.38-6.55,8.57-7.35,2.59-.4,4.98-.4,7.37.6,3.19,1.19,4.98,3.77,5.78,6.95.4,1.59.4,3.18.4,4.96,0,1.59-.8,2.38-2.39,2.38h-6.18Zm-2.79-4.77h3.79c.4,0,.8,0,.6-.6,0-1.59-.6-2.98-1.99-3.97-1.39-.79-2.79-.79-4.18-.2-1.59.79-2.39,2.38-2.59,3.97-.2.6,0,.6.6.6,1.2.2,2.39.2,3.79.2h0Z"/>
      <path class="cls-1" d="m263.69,134.86v-10.72c0-1.19.4-1.59,1.59-1.79,1.2-.2,2.19-.2,3.39,0,.8.2,1.2.6,1.2,1.59v.79c0,.2,0,.4.2.4s.2-.2.4-.2c1.99-1.79,4.18-3.18,7.17-3.18,4.58,0,7.57,2.58,8.37,7.15.2.99.2,2.18.2,3.18v13.7c0,.99-.2,1.39-1.39,1.59-1.39.2-2.99.2-4.38,0-1-.2-1.39-.6-1.39-1.59v-12.51c0-.99-.2-1.79-.4-2.78-.8-2.38-2.99-2.98-4.98-1.59-.8.6-1.59,1.39-2.19,2.18-.4.4-.4.79-.4,1.19v13.5c0,.99-.4,1.39-1.39,1.59-1.39.2-2.99.2-4.38,0-1-.2-1.39-.6-1.39-1.59-.2-3.77-.2-7.35-.2-10.92h0Z"/>
      <path class="cls-1" d="m171.82,130.1v-14.3c0-1.39.4-1.79,1.79-1.99s2.79-.2,3.99,0,1.59.6,1.59,1.79v24.82c0,.6.2.79.8.79h8.97c1,0,1.59.4,1.59,1.39.2,1.19.2,2.38,0,3.57-.2.99-.6,1.19-1.59,1.19-4.38.2-8.77,0-13.15,0h-1.99c-1,0-1.79-.6-1.99-1.59-.2-.6-.2-.99-.2-1.59.2-4.77.2-9.53.2-14.1h0Z"/>
      <path class="cls-1" d="m158.47,135.85h-7.17q-.8,0-.8.79c0,1.79.4,3.38,1.39,4.77,1.39,1.79,3.39,2.38,5.58,2.58,2.39.2,4.78-.4,6.97-1.39.2,0,.2-.2.4-.2.8-.4,1.39,0,1.39.79v.99c0,.79-.4,1.39-1.2,1.79-1.59.6-2.99.99-4.78,1.19-1.99.4-3.79.4-5.78,0-4.58-.79-7.37-3.57-8.37-7.94-.6-3.18-.6-6.35.2-9.33,1.2-4.37,4.58-7.15,9.37-7.55,2.19-.2,4.38,0,6.38.99,2.79,1.59,4.18,3.97,4.78,6.95.2,1.19.4,2.38.2,3.57,0,1.19-.6,1.99-1.99,1.99-1.79,0-4.18,0-6.58,0h0Zm-1.99-3.38h5.58c.4,0,.8,0,.8-.6,0-1.99-.6-3.77-1.99-4.96-1.99-1.79-6.38-2.18-8.77.99-1,1.19-1.2,2.58-1.59,3.97,0,.4.2.6.6.6,1.99,0,3.79.2,5.38,0h0Z"/>
      <path class="cls-1" d="m396.61,137.84v8.14c0,.79-.2.99-1,1.19h-2.19c-.4,0-.6-.4-.6-.79v-1.19c0-.2,0-.4-.2-.6-.2,0-.4.2-.4.2-1.59,1.39-3.39,2.38-5.58,2.58-2.79.2-5.18-.2-7.37-2.18-2.79-2.58-2.79-8.34,1.59-10.72,1.79-.99,3.99-1.39,5.98-1.59,1.59-.2,2.99,0,4.58-.2.6,0,.8-.2.8-.79,0-.99,0-1.99-.2-2.98-.4-1.79-1.59-2.78-3.39-2.98-2.79-.6-5.38.2-7.77,1.59-.2,0-.2.2-.4.2-1.2.6-1.59.2-1.79-.99-.2-1.19.2-1.99,1.2-2.58,1.79-.99,3.99-1.59,5.98-1.79,1.59-.2,3.19,0,4.78.2,3.39.6,5.38,2.58,5.78,6.16.2.6.2,1.39.2,1.99-.2,2.38-.2,4.77,0,7.15h0Zm-4.38.6v-1.79c0-.4-.2-.79-.6-.79h-2.99c-1.59,0-3.19.2-4.58.99-1.39.79-1.99,1.99-1.99,3.38,0,1.59,1,2.78,2.59,3.18,1.79.6,3.59.4,5.38-.79,1.39-.79,2.59-1.99,2.19-4.17h0Z"/>
      <path class="cls-1" d="m245.36,134.86v-10.92c0-.99.4-1.39,1.39-1.59,1.2-.2,2.39-.2,3.59,0,1.2.2,1.39.6,1.39,1.59,0,.4-.2.79.2.99.4,0,.6-.4.8-.6,1.2-1.19,2.39-2.18,4.18-2.58,1-.2,1.99,0,2.99.4.4.2.8.6.8.99.2,1.59.2,2.98,0,4.57-.2.99-.8,1.39-1.59.99-1.79-.6-3.19-.4-4.38.99-.4.4-.8.99-1.39,1.59s-.6.99-.6,1.79v12.91c0,.99-.2,1.19-1.2,1.39-1.59.2-3.19.2-4.58,0-1-.2-1.39-.6-1.39-1.59-.2-3.77-.2-7.35-.2-10.92h0Z"/>
      <path class="cls-1" d="m358.95,130.1v-14.89c0-.79,0-.99.8-1.19s1.79-.2,2.59,0c1,.2,1.2.4,1.2,1.19v26.61c0,.79.4,1.19,1.2,1.19h10.16c.8,0,1.2.4,1.39,1.19,0,.6.2,1.39,0,1.99-.2.4-.4.79-1,.79h-14.55c-1.2,0-1.79-.6-1.79-1.99v-8.94c0-1.79,0-3.77,0-5.96h0Z"/>
      <path class="cls-1" d="m298.96,134.86v10.92c0,.99-.2,1.39-1.2,1.59-1.39.2-2.99.2-4.38,0-1.2-.2-1.39-.6-1.39-1.79v-21.65c0-.99.4-1.39,1.2-1.59,1.59-.4,3.39-.4,4.98,0,.8.2,1,.6,1,1.39-.2,3.77-.2,7.35-.2,11.12h0Z"/>
      <path class="cls-1" d="m406.97,134.86v10.92c0,.99-.2,1.19-1,1.19s-1.79.2-2.59,0c-.6-.2-.8-.4-.8-.99v-22.24c0-.6.2-.99.8-.99,1-.2,1.99-.2,2.99,0,.6.2.8.6.8.99v10.52c-.2.2-.2.4-.2.6h0Z"/>
      <path class="cls-1" d="m295.57,119.37c-.8,0-1.59,0-2.19-.2-.8-.2-1.59-.99-1.79-1.79-.2-.99-.2-2.18,0-3.38.2-.99.8-1.59,1.79-1.79,1.2-.4,2.59-.4,3.79,0,1.2.2,1.99.99,2.19,2.18.2.79.2,1.39,0,2.18-.2,1.79-1.2,2.58-2.99,2.78h-.8Z"/>
      <path class="cls-1" d="m404.78,118.38c-2.19,0-2.99-.6-2.59-3.18.2-1.39.6-1.79,1.79-1.99,3.19-.4,3.79.99,3.39,3.38-.2.79-.6,1.39-1.59,1.59-.2.2-.6.2-1,.2h0Z"/>
    </g>
  </g>
</svg>