<?xml version="1.0" encoding="UTF-8"?><svg id="Layer_1" xmlns="http://www.w3.org/2000/svg" viewBox="0 0 1577.28 225.7"><defs><style>.cls-1{fill:#fff;}.cls-2{fill:none;}</style></defs><path class="cls-1" d="m53.32,39.79c-5.64-4.16-11.35-4.98-14.14-5.35-11.03-1.42-19.44,3.18-22.3,4.79-4.66,2.62-7.42,5.53-8.09,6.26-.97,1.05-3.06,3.46-4.9,7.05-1.34,2.63-2.09,4.98-2.51,6.63-.17.66-.65,2.61-1.03,7.68-.07.9-.31,4.31-.34,9.63-.03,4.58.13,8.06.26,10.9.15,3.29.35,6.09.52,8.22.54,2.07,1.09,4.13,1.63,6.2.61,1.53,1.57,3.62,3.08,5.88,1.47,2.21,5,6.88,11.24,10.26,4.47,2.42,8.32,3.21,11.34,3.59,10.02,1.28,19.58-.1,28.76-4.18,1.29-.57,2.79-1.67,3.23-2.88.62-1.68.34-3.7.44-5.58-1.28.49-2.94,1.1-4.9,1.76-1.28.43-4.33,1.42-8.6,2.52-4.56,1.17-6.84,1.76-8.83,1.95-4.83.46-8.56-.27-10-.6-1.67-.38-4.44-1.02-7.66-2.84-1.02-.58-3.71-2.2-6.4-5.15-2.85-3.13-4.22-6.13-4.6-7-1.09-2.51-1.49-4.57-1.86-6.49-.5-2.61-.67-5.03-.84-7.39-.08-1.09-.1-1.66-.13-2.49-.24-7.05.12-7.47,7.03-7.5,14.17-.08,28.34-.1,42.5-.18,7-.04,7.76-.7,8-7.61.38-10.89-1.4-21.06-10.9-28.07Zm2.82,21.18c.15.98.29,2.08.31,3.48.02,1.79.03,2.69-.42,3.29-.69.91-1.92.9-4.7.99-5.16.17-2.25.25-6.57.31-1.97.03-3.45.02-7.41,0-4.97-.03-4.74-.03-5.38-.03-5.99,0-11.97.02-17.96,0-5.43-.02-6.37-1.3-4.94-6.73,4.01-15.23,17.15-23.35,32.21-20.03,1.52.34,6.36,2.08,10.17,6.73.73.89,2.81,3.48,3.82,7.17.35,1.26.53,2.52.88,4.82Z"/><path class="cls-1" d="m418.56,190.77c132.47,0,264.95,0,397.42,0,21.06,0,21.6.19,21.74,7.35.07,3.5.09,7,0,10.5-.19,6.57-1.36,6.94-21.65,6.97-4.48,0-8.96,0-13.45,0-259.97,0-519.93,0-779.9,0-20.25,0-21.87-.53-22.02-7.45-.08-3.5-.11-7,.01-10.5.22-6.3,2.01-6.89,20.44-6.89,132.47,0,264.95,0,397.42,0Z"/><path class="cls-1" d="m253.82,18.43c-.89,2.54-1.69,3.94-1.86,5.42-1.88,15.71-3.76,31.42-5.44,47.15-1.5,14.08-2.73,28.19-4.1,42.28-.13,1.32.01,3-.73,3.87-1.3,1.51-3.1,3.36-4.85,3.55-3.01.33-3-2.26-2.76-4.6,1.52-15.25,2.93-30.51,4.52-45.76,1.87-17.89,3.87-35.77,5.86-53.65.42-3.81,1.1-7.58,1.59-11.38.33-2.59,1.22-4.49,4.32-4.32,3.08.16,6.44-.69,7.96,3.38,4.01,10.75,8.04,21.48,12.24,32.16,6.39,16.24,12.92,32.41,19.39,48.61.91,2.28,1.83,4.56,3.3,8.19,1.78-2.34,3.35-3.71,4.06-5.43,8.87-21.32,17.65-42.69,26.38-64.07,2.45-6,5.01-11.99,6.87-18.18,1.47-4.87,4.85-4.65,8.62-4.69,3.9-.04,4.07,2.7,4.36,5.39,1.61,14.74,3.27,29.47,4.76,44.21,2.19,21.55,4.3,43.1,6.33,64.66.48,5.08-1.85,7.19-5.79,5.22-1.33-.66-2.38-3.01-2.55-4.69-1.34-13.26-2.28-26.56-3.64-39.82-1.82-17.73-3.9-35.44-5.92-53.14-.12-1.08-.7-2.1-2.26-3.47-2.03,4.39-4.21,8.71-6.05,13.18-8.53,20.75-16.96,41.54-25.44,62.31-1.07,2.62-1.75,5.54-3.42,7.71-1.32,1.72-3.74,2.97-5.91,3.56-2.63.72-4.6-.55-5.73-3.43-5.64-14.38-11.48-28.69-17.23-43.03-5.19-12.96-10.34-25.94-15.52-38.91-.18-.45-.5-.85-1.37-2.29Z"/><path class="cls-1" d="m1330.6,19.76c-4.36,10.56-8.74,21.11-13.09,31.67-7.09,17.2-14.06,34.46-21.43,51.54-.71,1.64-3.89,2.99-5.95,3.03-1.77.03-4.59-1.58-5.24-3.17-9.34-22.91-18.37-45.96-27.54-68.94-1.94-4.87-4.17-9.62-6.8-15.65-1.05,2.26-1.77,3.15-1.88,4.12-2.03,17.53-4.09,35.06-5.93,52.61-1.42,13.58-2.63,27.19-3.76,40.8-.29,3.43-1.5,5.34-5.14,5.14-3.93-.22-3.33-3.12-3.08-5.52,2.42-23.19,4.89-46.37,7.4-69.55,1.42-13.08,2.92-26.15,4.4-39.22.27-2.41-.18-5.46,3.52-5.49,3.41-.02,7.13-1.46,9.05,3.64,6.64,17.73,13.7,35.31,20.59,52.95,4.11,10.52,8.18,21.05,12.41,31.52.41,1.02,1.81,2.22,2.79,2.25.87.03,2.2-1.28,2.62-2.29,11.32-27.85,22.6-55.72,33.73-83.65,1.74-4.38,4.88-4.85,8.8-4.6,4.2.27,4.43,3.26,4.73,6.36,3.5,35.97,7.01,71.94,10.52,107.91.25,2.52.89,5.21-2.89,5.66-3.37.4-4.96-1.34-5.31-4.48-.3-2.65-.52-5.3-.8-7.96-2.89-27.82-5.77-55.64-8.73-83.46-.19-1.83-1-3.6-1.53-5.4-.48.05-.97.11-1.45.16Z"/><path class="cls-1" d="m951.56,60.93c0-18,.1-36.01-.07-54.01-.04-4.47,1.33-6.17,5.99-6.11,12.99.17,26-.34,38.99-.13,20.35.32,35.4,9.24,43.61,28.33,1.57,3.64,2.86,7.55,3.39,11.46,2.69,19.97,2.29,39.66-8.09,57.75-7.31,12.74-18.59,21.05-33.09,22.31-15.53,1.35-31.26.42-46.9.49-4.02.02-3.81-2.82-3.81-5.58.01-18.17,0-36.34,0-54.51,0,0-.01,0-.02,0Zm9.19-.1c-.11,0-.21,0-.32,0,0,7.67-.02,15.34,0,23,.03,7.83.23,15.67.12,23.5-.05,3.69,1.23,5.68,5.06,5.82,9.49.33,19.02,1.52,28.44.89,20.97-1.4,33.15-12.64,38.44-32,3.87-14.19,4.02-28.51.64-43.02-3.74-16.05-15.09-28.07-31.53-29.67-12.01-1.17-24.23-.29-36.35-.24-3.71.02-4.57,2.38-4.55,5.71.09,15.34.04,30.67.04,46.01Z"/><path class="cls-1" d="m562.37,0c5.31.36,7.1,2.59,8.52,6.77,7.32,21.56,15.06,42.97,22.61,64.45,5.18,14.74,10.37,29.47,15.3,44.29.49,1.47-.5,4.87-1.34,5.06-2.48.58-5.73,1.53-7-2.46-2.84-8.87-5.99-17.64-8.66-26.55-1.38-4.6-3.52-6.98-8.74-6.88-14.16.27-28.32.25-42.48,0-4.42-.08-6.87,1.69-8.25,5.57-3.18,8.93-6.4,17.84-9.5,26.8-1.16,3.35-4.63,5.35-7.63,3.55-.99-.6-1.46-3.47-.96-4.87,3.13-8.76,6.63-17.39,9.95-26.08,6.58-17.22,13.13-34.46,19.68-51.7,4.2-11.03,8.21-22.13,12.74-33.02.87-2.08,3.78-3.31,5.75-4.93Zm-24.12,75.22c2.43.57,4.12,1.3,5.82,1.32,12.15.1,24.29.12,36.44,0,5.2-.05,5.66-1.2,3.9-6.12-4.7-13.13-9.16-26.34-13.81-39.48-2.11-5.97-4.44-11.86-6.67-17.79-.63,0-1.25,0-1.88,0-7.81,20.36-15.61,40.73-23.79,62.06Z"/><path class="cls-1" d="m841.46,0c4.73.5,6.67,2.44,7.96,6.19,7.6,22.16,15.39,44.26,23.12,66.38,5.1,14.59,10.25,29.15,15.18,43.79.41,1.22-.55,4.13-1.23,4.25-2.59.46-5.88,1.5-7.2-2.28-1.81-5.18-3.49-10.4-5.21-15.61-1.36-4.1-2.67-8.22-4.06-12.31-1.3-3.85-3.56-5.82-8.1-5.73-14.32.28-28.65.25-42.97.01-4.49-.07-6.75,1.9-8.09,5.79-3.13,9.11-6.41,18.17-9.46,27.31-1.38,4.12-4.62,3.43-7.34,2.72-.77-.2-1.53-3.67-.99-5.16,5.2-14.19,10.67-28.28,16.07-42.4,5.52-14.43,11.06-28.85,16.57-43.29,3.2-8.38,6.1-16.89,9.7-25.09.89-2.02,3.97-3.08,6.05-4.58Zm-24.55,75.03c1.64.58,2.83,1.37,4.02,1.38,13.16.1,26.32.16,39.48.05,3.8-.03,4.06-1.98,2.83-5.37-4.77-13.12-9.15-26.37-13.77-39.54-2.15-6.13-4.51-12.19-6.78-18.28-.66-.04-1.33-.08-1.99-.12-7.83,20.36-15.66,40.73-23.79,61.89Z"/><path class="cls-1" d="m1110.48,60.8c0-17.83.12-35.66-.08-53.48-.05-4.6,1.13-6.51,6.13-6.43,17.15.27,34.31.1,51.47.12,2.61,0,5.64-.54,5.48,3.74-.14,3.72-2.25,4.77-5.58,4.74-13.66-.12-27.32-.23-40.97-.22-6.91,0-7.23.41-7.28,7.43-.07,10.16-.12,20.33-.16,30.49-.03,7.87,0,7.91,7.64,7.93,10.16.03,20.32-.03,30.48.04,2.69.02,6.19-.71,6,3.82-.17,4.07-2.99,4.6-6.33,4.55-10.49-.14-20.99-.05-31.48-.3-4.59-.11-6.61,1.31-6.49,6.27.31,12.49.32,24.99.12,37.48-.08,4.75,2,6.06,6.3,6,14.16-.2,28.31-.18,42.47-.31,2.85-.03,5.39-.07,5.52,3.87.13,4.12-2.4,4.46-5.54,4.46-17.32-.04-34.65-.12-51.97.06-4.33.04-5.83-1.4-5.79-5.77.18-18.16.08-36.32.08-54.48,0,0-.01,0-.02,0Z"/><path class="cls-1" d="m740.3,18.23c-11.69-8.56-24.27-11.71-38.39-9.24-15.58,2.72-24.71,12.47-29.16,26.75-5.28,16.93-4.8,34.12-.13,51.23,5.08,18.65,24.75,30.9,43.87,26.33,7.77-1.86,15.04-5.81,22.56-8.77,1.27-.5,2.62-.79,4.11-1.24,1.2,4.6.33,8.02-3.14,10.22-17.89,11.37-49.54,13.05-65.68-4.76-7.53-8.31-11.81-18.23-13.24-29.06-2.03-15.41-2.01-30.78,2.42-46.04,5.22-17.98,21.49-31.85,40.21-32.94,11.89-.69,23.61-.4,34.44,5.74,6.43,3.65,6.93,5.23,2.13,11.79Z"/><path class="cls-1" d="m1574.21,18.23c-12.1-8.55-24.98-11.99-39.44-9.1-14.82,2.95-23.75,12.34-28.08,26.06-5.5,17.43-5.48,35.27.11,52.64,6.41,19.9,23.07,28.67,43.44,25.63,8.17-1.22,15.7-4.17,22.55-8.88.94-.65,2.72-1.08,3.54-.61.74.42,1.01,2.23.94,3.4-.37,5.79-5.29,7.47-9.4,9.25-14.92,6.44-30.19,7.68-45.63,1.68-12.55-4.88-20.26-14.51-24.25-26.83-6.38-19.71-5.99-39.66-.11-59.51,4.98-16.81,21.37-30.07,38.91-31.19,12.21-.79,24.3-.65,35.4,5.84,5.86,3.42,6.41,5.23,2.01,11.64Z"/><path class="cls-1" d="m124.49,60.85c0-17.99.06-35.98-.05-53.96-.02-3.81.91-6.13,5.22-5.96,3.02.12,4.7,1.32,4.61,4.52-.16,5.33-.36,10.65-.38,15.98-.09,27.98-.16,55.96-.18,83.94,0,6.78.79,7.51,7.42,7.52,11.49.02,22.98.06,34.47-.02,3.04-.02,5.37.49,5.33,4.19-.03,3.43-2.24,3.94-5.07,3.93-15.32-.05-30.64-.07-45.96.01-4.04.02-5.5-1.58-5.46-5.7.17-18.15.07-36.31.07-54.46-.01,0-.03,0-.04,0Z"/><path class="cls-1" d="m1422.49,61.43c0-18.31.07-36.62-.05-54.93-.03-3.96,1.19-6.34,5.38-5.36,1.45.34,2.66,2.13,3.71,3.46.41.52.12,1.61.12,2.44-.04,36.12-.11,72.24-.08,108.35,0,3.5-.5,5.71-4.81,5.62-4.26-.09-4.28-2.64-4.27-5.67.03-17.98.01-35.95,0-53.93Z"/><path class="cls-1" d="m1018.03,224.38c-.64-1.62-1.84-3.25-1.85-4.87-.03-15.5.14-30.99.25-46.49,0-.67-.16-1.42.09-1.98.62-1.44,1.43-2.79,2.16-4.18,1.21.76,2.77,1.25,3.58,2.31,2.5,3.3,4.76,6.79,7.05,10.26,7.03,10.68,14.01,21.4,21.09,32.04.61.91,1.9,1.37,2.87,2.04.45-1.17,1.29-2.33,1.3-3.5.13-12.16.04-24.33.24-36.5.03-2.12,1.08-4.23,1.66-6.34.64.07,1.28.13,1.93.2.31,1.65.9,3.29.9,4.94-.03,15-.06,30-.36,44.99-.05,2.38-1.42,4.72-2.18,7.09-1.93-1.57-4.36-2.79-5.7-4.76-9.6-14.13-18.97-28.41-29.4-44.13-.6,3.19-1.24,5.06-1.25,6.94-.1,12-.02,24-.09,36-.01,1.87-.44,3.74-.67,5.61-.54.11-1.08.22-1.62.33Z"/><path class="cls-1" d="m984.6,195.21c.1,7.86-1.49,15.27-6.47,21.49-6.36,7.95-15.06,10.46-24.59,8.21-9.42-2.22-15.18-8.49-17.31-18.38-2.08-9.62-1.98-18.99,2.41-27.68,5.25-10.39,15.78-14.73,27.32-12.35,9.6,1.97,16.8,10.32,18.21,21.24.32,2.47.3,4.97.44,7.46Zm-45.98.53c1.17,5.06,2,10.12,3.55,14.95,2.47,7.71,8.88,10.74,16.21,11.03,7,.28,13.59-1.73,17.49-8.48,4.98-8.62,4.24-17.92,3.02-27.22-1.21-9.27-7.26-15.14-16.92-16.1-7.53-.74-17.21,2.71-19.96,11.63-1.4,4.54-2.22,9.25-3.38,14.18Z"/><path class="cls-1" d="m1451.76,167.24c.29,1.69.83,3.39.83,5.08.02,15.66.02,31.33-.18,46.99-.02,1.72-1.26,3.43-1.94,5.15-1.54-1.07-3.57-1.81-4.55-3.26-8.87-13.03-17.54-26.19-26.32-39.28-1.25-1.87-2.78-3.55-4.19-5.32-.6.11-1.2.22-1.81.33v47.23c-.75.05-1.5.11-2.26.16-.4-1.74-1.15-3.49-1.16-5.23-.05-15.16,0-30.33.12-45.49.02-2.2.5-4.41.95-8.13,2.55,2.2,4.3,3.17,5.29,4.64,9.07,13.51,17.98,27.14,27.03,40.66.96,1.44,2.56,2.45,3.86,3.66.46-.24.92-.48,1.38-.73,0-7.93-.22-15.87.06-23.79.27-7.55-1.13-15.31,1.08-22.68.59,0,1.18,0,1.78,0Z"/><path class="cls-1" d="m1332.9,223.93c1.32-4.01,2.5-8.07,3.99-12.02,4.61-12.26,9.16-24.54,14.12-36.66,1.26-3.08,3.94-5.59,5.97-8.36,1.82,2.78,4.22,5.34,5.35,8.38,4.89,13.21,9.44,26.55,14.03,39.87,1.01,2.93,2.78,5.95-.15,10.5-1.81-4.77-3.46-8.3-4.48-12.01-1.19-4.32-3.39-6.58-8.13-6.22-3.47.26-6.99-.12-10.49-.08-13.01.16-9.28-.88-14.58,11.15-.97,2.19-2.19,4.27-3.3,6.4-.77-.31-1.55-.63-2.32-.94Zm22.93-20.79c1.66,0,3.32.03,4.98,0,5.6-.1,6.4-.89,4.89-6.08-1.93-6.66-4.19-13.23-6.52-19.77-.34-.95-1.87-2.13-2.76-2.06-.93.08-2.13,1.38-2.55,2.42-1.92,4.74-3.83,9.51-5.33,14.4-3.23,10.56-7.46,11.05,7.28,11.1Z"/><path class="cls-1" d="m1157.85,167.24c.26,2.05.74,4.1.75,6.15.07,10.5-.07,21,.04,31.49.11,10.56,5.97,16.16,16.57,16.13,10.66-.03,16.36-5.53,16.47-16.17.11-10.5-.04-20.99.03-31.49.01-2.04.49-4.09.76-6.13.6-.11,1.2-.21,1.8-.32.58,1.77,1.66,3.54,1.67,5.32.1,10.33.07,20.66-.15,30.99-.38,18.45-14.05,27.11-31.14,19.81-4.73-2.02-8.54-5.65-8.84-10.62-.83-13.94-.86-27.93-1.08-41.9-.02-1.11.96-2.24,1.48-3.36l1.63.1Z"/><path class="cls-1" d="m1574.21,171.79c-2.11-.19-4.22-.49-6.33-.54-3.41-.08-6.88-.42-10.2.12-4.7.77-7.65,4.66-7.49,8.78.12,3.25,2.67,7,5.21,9.39,2.8,2.64,6.83,3.97,10.32,5.87,9.79,5.34,12.77,11.17,9.95,19.48-2.27,6.7-11.82,11.73-20.25,10.35-2.92-.48-5.82-1.5-8.5-2.76-.92-.43-1.13-2.36-1.66-3.6,1.14-.02,2.28-.15,3.41-.04,5.17.51,10.37,1.73,15.48,1.44,4.55-.26,7.08-4.22,8.2-8.41,1.19-4.45-1.15-7.82-4.75-10.09-4.75-3-9.84-5.47-14.58-8.49-6.63-4.23-8.66-9.05-7.05-15.52,1.3-5.24,7.93-10.83,13.98-11.35,5.25-.45,10.57-.54,14.26,5.37Z"/><path class="cls-1" d="m1121.44,172.01c-2.61-.4-5.24-1.19-7.83-1.1-3.86.14-8.17-.03-11.43,1.63-7.02,3.56-6.69,12.68.29,17.12,3.62,2.31,7.53,4.18,11.35,6.17,7.39,3.85,10.84,8.99,10.03,15.1-.92,6.91-6.62,13.36-14.24,13.99-5.07.43-10.37-1.28-15.46-2.46-.83-.19-1.14-2.61-1.68-4,1.13.12,2.4-.05,3.38.4,5.18,2.34,10.76,3.79,15.87,1.23,3.18-1.59,6.13-5,7.61-8.31,1.71-3.81-.67-7.57-4.12-9.78-4.87-3.12-10.15-5.6-15.01-8.73-6.47-4.17-8.58-8.94-7.22-15.04,1.18-5.33,8.1-11.13,14.16-11.88,6.59-.82,10.64.33,14.58,4.14-.08.5-.17,1-.25,1.5Z"/><path class="cls-1" d="m909.65,218.44c-.94,1.19-1.63,2.84-2.86,3.5-16.53,8.91-34.52.54-36.31-17.39-.89-8.95-1.45-17.86,2.97-26.32,5.06-9.67,18.42-14.95,28.67-11.01,1.7.66,3.62,1.09,5,2.18,1.17.93,1.71,2.66,3.14,5.07-5.63-1.71-9.46-3.2-13.44-4.03-8.99-1.87-17.72,3.72-20.72,12.33-3.16,9.06-3.1,17.88.19,26.83,4.48,12.17,16.32,13.62,27.99,9.4,1.43-.52,2.75-1.34,4.13-2.02.41.49.82.98,1.24,1.46Z"/><path class="cls-1" d="m1520.32,169.36c-2.7.59-4.51,1.33-6.32,1.33-10.55-.05-10.58-.11-10.61,10.53-.04,12.33,0,24.66-.08,37-.01,1.91-.39,3.83-.62,6.04-4.38-.5-4.06-3.27-4.06-5.89,0-13.33,0-26.66-.04-39.99-.02-7.48-.38-7.79-8.05-7.66-1.83.03-3.71.3-5.48-.01-.82-.15-1.73-1.32-2.04-2.23-.14-.42,1.07-1.88,1.66-1.88,11.29.07,22.57.28,33.86.5.2,0,.4.48,1.77,2.26Z"/><path class="cls-1" d="m1233.54,166.85c.68,1.94,1.94,3.87,1.96,5.81.13,13.8-.03,27.61,0,41.41,0,5.96.72,6.59,6.61,6.65,3.82.04,7.66-.14,11.47.1,1.17.08,2.27,1.24,3.41,1.9-1.02.78-2.01,2.21-3.05,2.24-6.14.19-12.3.06-18.45.03-3.06-.01-4.59-1.57-4.59-4.62-.02-16.46-.06-32.93-.02-49.39,0-1.23.61-2.46.93-3.69.59-.15,1.18-.3,1.77-.44Z"/><path class="cls-1" d="m1294.11,224.03c-.19-2.09-.54-4.18-.55-6.27-.06-13.65-.19-27.3.04-40.95.08-4.65-1.74-6.39-6.14-6.17-2.66.13-5.34.23-7.98.02-.89-.07-1.7-1.16-2.55-1.78.85-.78,1.69-2.23,2.55-2.24,11.28-.15,22.55-.1,33.83-.1.28.56.57,1.13.85,1.69-1.32.85-2.59,2.35-3.97,2.45-12.68,1-12.71.93-12.77,13.65-.06,11.32,0,22.64-.13,33.96-.02,2.07-.74,4.14-1.14,6.2-.68-.16-1.37-.32-2.05-.48Z"/><line class="cls-2" x1=".75" y1="102.6" x2=".62" y2="117.57"/></svg>