<?xml version="1.0" encoding="UTF-8"?>
<svg id="Layer_1" data-name="Layer 1" xmlns="http://www.w3.org/2000/svg" viewBox="0 0 471 243">
  <defs>
    <style>
      .cls-1 {
        fill: #fff;
      }
    </style>
  </defs>
  <g id="BLouOA.tif">
    <g>
      <path class="cls-1" d="m80.12,116.52c-1.26-.17-2.55-.17-3.98-.32.17-.63.17-1.12.32-1.43,1.6-1.91.95-3.01-1.12-4.44-3.81-2.69-6.67-6.04-7.95-10.65-.63-2.38-.8-4.78-1.12-7.15.17-.17.32-.17.63-.32,1.43,1.12,2.86,2.38,4.29,3.35,4.78,3.66,9.53,7.3,14.46,10.65,1.12.8,2.86,1.12,4.12,1.43,2.55.8,5.24,1.43,7.79,2.55,6.19,2.55,12.39,5.24,18.75,7.79,1.12.48,2.38.63,3.49,1.43-.8.17-1.6.32-2.23.48,0,.17,0,.32-.17.48,1.12.32,2.38.8,3.49,1.12v.32c-2.69-.63-5.56-1.43-8.27-2.06-4.29-1.12-8.59-2.23-12.88-3.01-1.91-.32-4.12-.32-6.04-.17-.48,0-1.26.8-1.6,1.43-2.69,5.41-4.29,11.13-4.92,17.17-.95,7.47-.8,14.94.32,22.41.17,1.26.48,2.38.8,3.66-1.6-1.43-4.61-7.95-6.67-13.82-1.75-5.09-2.55-10.16-2.69-15.4.06-5.18.86-10.42,1.18-15.49Z"/>
      <path class="cls-1" d="m229.79,142.57h-.95c-2.23-.17-5.24.63-6.67-.63-1.75-1.6-2.55-4.44-3.18-6.99-.48-1.6-1.26-1.91-2.86-1.91-6.04,0-11.91,0-17.95-.17-1.43,0-2.06.32-2.69,1.75-.63,2.06-1.75,3.98-2.38,5.87-.48,1.26-1.26,2.06-2.86,2.06h-5.72c.17-.63.32-1.12.48-1.43,5.87-12.56,11.91-25.27,17.8-37.81.63-1.26,1.26-1.75,2.69-1.75,6.84.17,5.24-.48,7.79,4.92,5.24,11.45,10.48,22.73,15.74,34.15.29.51.44,1.14.76,1.94Zm-22.07-33.06h-.63c-.32.63-.8,1.26-1.12,2.06-2.06,4.61-4.12,9.38-6.35,13.97-.63,1.43,0,1.91,1.26,1.91h14.62c-2.55-6.19-5.26-12.06-7.79-17.95Z"/>
      <path class="cls-1" d="m404.73,142.57h-2.38c-6.04-.17-4.61,1.12-7.3-4.92q-1.91-4.61-6.99-4.44c-4.78,0-9.53,0-14.46-.17-1.75,0-2.69.48-3.18,2.06-.8,2.06-1.75,4.12-2.86,6.19-.32.63-1.12,1.26-1.75,1.26-1.91.17-3.98,0-6.19,0,.32-.8.32-1.26.63-1.91,5.87-12.56,11.91-25.1,17.8-37.67,0-.17.17-.32.32-.48,1.91-1.75,4.12-.63,6.19-.8.8,0,1.91.63,2.23,1.26,5.87,12.39,11.45,24.96,17.17,37.35.27.67.44,1.33.76,2.27Zm-22.41-34c-2.86,6.52-5.56,12.71-8.27,18.92h16.69c-2.84-6.35-5.56-12.39-8.42-18.92Z"/>
      <path class="cls-1" d="m319.24,142.4c-2.38,0-4.61.17-6.84-.17-.48,0-1.26-.95-1.6-1.6-.95-2.06-1.91-4.12-2.69-6.19-.48-1.12-1.12-1.6-2.38-1.6h-17.95c-1.6,0-2.38.48-2.86,1.91-.8,2.06-1.75,4.29-2.69,6.19-.17.48-.8,1.12-1.12,1.12-2.23.17-4.44,0-7.15,0,1.43-2.86,2.69-5.56,3.98-8.27,4.92-10.48,9.85-20.81,14.77-31.14.32-.63,1.26-1.26,1.91-1.26q5.87-.32,8.27,5.09c5.24,11.45,10.48,22.73,15.74,34.15.29.67.29,1.14.61,1.77Zm-14.29-14.92c-2.69-6.52-5.24-12.39-7.95-18.92-3.01,6.52-5.87,12.56-8.73,18.92h16.69Z"/>
      <path class="cls-1" d="m267.14,111.91c-3.35-3.18-7.3-4.92-11.91-4.61-6.04.48-10.96,2.86-13.51,8.73-2.55,5.72-1.91,11.28,2.38,16.06,5.41,6.04,15.57,6.52,21.61,1.26,1.26-1.12,2.06-1.12,3.01.17.48.63,1.12,1.12,1.75,1.6,1.43.95,1.26,1.91,0,2.86-9.22,8.27-26.37,6.52-33.69-3.49-8.73-11.91-2.38-28.91,12.23-32.4,7.79-1.91,15.09-.95,21.61,4.29,1.26,1.12,1.6,1.91,0,3.01-1.12.63-1.91,1.6-2.86,2.38-.15-.02-.29-.02-.61.15Z"/>
      <path class="cls-1" d="m89.5,85.38c0-.32-.17-.48-.17-.8q-.32-3.66,3.35-3.49c11.91.63,22.24,4.78,30.51,13.03,8.1,8.1,12.56,17.95,12.23,29.4-.32,12.88-6.35,23.19-16.69,31.14-4.78,3.66-10.16,6.04-16.06,7.15-2.86.48-5.72.32-8.59.32-.48,0-1.12-1.12-1.12-1.6s.63-1.43,1.12-1.6c2.06-.48,4.29-.8,6.35-1.26,15.26-3.18,25.1-11.91,29.08-26.85,3.81-14.14-3.18-30.34-15.74-38.44-7.15-4.61-15.09-6.52-23.52-6.99.02,0-.29,0-.76,0Z"/>
      <path class="cls-1" d="m166.39,101.58h16.06c1.6,0,1.91.48,1.91,1.91-.17,5.24.48,4.12-4.29,4.29h-8.1c-1.26,0-1.6.48-1.6,1.75,0,10.33-.17,20.66-.17,30.97,0,1.75-.48,2.38-2.38,2.38q-5.56,0-5.56-5.56c0-9.22.17-18.26.32-27.48,0-1.6-.48-2.06-2.06-2.06-3.49.17-6.99,0-10.48,0-1.26,0-1.75-.48-1.6-1.75.17-4.44,0-4.44,4.61-4.44,4.44-.02,8.9-.02,13.34-.02h0Z"/>
      <path class="cls-1" d="m319.57,101.58c2.55,0,4.61-.17,6.67,0,.8.17,1.75.8,2.06,1.43,3.49,5.72,6.99,11.45,10.33,17.17.32.48.63.95,1.12,1.6,1.26-2.06,2.55-3.98,3.66-5.72,2.55-4.12,5.24-8.27,7.79-12.39.95-1.6,1.91-2.23,3.81-2.06,1.43.17,3.01.17,4.78.32-1.26,1.91-2.38,3.66-3.35,5.24-4.12,6.52-8.27,13.03-12.39,19.7-.48.63-.63,1.6-.63,2.38v11.45c0,1.6-.48,2.23-2.06,2.06-5.87,0-6.19,0-5.72-5.72.63-6.35-1.12-11.91-4.78-17.17-3.81-5.41-6.99-11.13-10.48-16.69-.17-.32-.34-.78-.8-1.58Z"/>
      <path class="cls-1" d="m81.86,81.23l.32-.17q4.78-.48,4.78,4.12c0,3.81-.17,7.47,0,11.28.17,2.23-1.43,1.75-2.69,1.91-1.43,0-2.55.17-2.55-1.91.17-4.44,0-8.73,0-13.19,0-.93.15-1.56.15-2.04Z"/>
    </g>
  </g>
</svg>