<?xml version="1.0" encoding="UTF-8"?><svg id="Layer_1" xmlns="http://www.w3.org/2000/svg" viewBox="0 0 368.5 96.66"><defs><style>.cls-1{fill:#fff;}</style></defs><path class="cls-1" d="m0,23.62c122.81-33.23,245.65-29.7,368.5-.06C245.65,5.83,122.82,2.11,0,23.62Z"/><path class="cls-1" d="m339.27,77.7c-2.05.16-2.33,1.56-3.23,2.26-6.84,5.35-16.18,2.62-18.32-5.71-1.84-7.15-.49-13.97,4.3-19.73,5.26-6.33,12.96-6.51,21.26-.76,1.39-.89.25-3.52,3.07-3.75,5.06-.42,5.71.02,4.66,4.97-1.67,7.81-3.43,15.61-4.92,23.45-3.23,16.92-11.15,20.24-27.91,17.27-2.82-.5-3.36-1.74-2.51-4.51.82-2.65,1.75-2.93,4.2-1.95,3.24,1.29,6.72,1.99,10.26,1,6.12-1.71,7.44-6.92,9.15-12.53Zm1.68-15.12c-.09-2.13-.76-5.18-4.26-6.48-3.72-1.39-6.43.4-8.47,3.35-2.03,2.94-2.91,6.32-2.8,9.85.09,2.91.9,5.67,4.01,6.83,3.07,1.14,5.47-.42,7.57-2.41,2.83-2.68,3.49-6.28,3.95-11.14Z"/><path class="cls-1" d="m264.08,62.12c-1.11,5.19-2.45,11.88-3.99,18.51-.91,3.9-4.17,1.7-6.25,1.85-2.91.2-1.6-2.26-1.35-3.64.97-5.4,2.05-10.78,3.19-16.15.58-2.75.05-5.06-2.5-6.41-2.68-1.42-5.18-.62-7.36,1.28-2.8,2.45-3.63,5.91-4.44,9.31-.92,3.88-1.6,7.82-2.43,11.72-.75,3.51-4.58,5.44-7.71,4.02-1.36-.62-.85-1.58-.66-2.48,1.93-9.28,3.85-18.56,5.86-27.82.45-2.08,6.53-3.5,7.34-1.55,1.43,3.46,2.47,1.08,3.77.38,4.11-2.2,8.3-2.47,12.35-.04,3.53,2.12,4.4,5.63,4.19,11.03Z"/><path class="cls-1" d="m280.3,82.12c2.04-9.76,4.04-19.51,6.13-29.25.61-2.87,5.88-4.28,7.67-1.71,1.24,1.78,1.52,1.34,2.78.51,4.43-2.95,9.15-3.25,13.54-.24,4.34,2.96,4.27,7.64,3.43,12.2-.97,5.23-2.49,10.36-3.25,15.62-.7,4.86-4.2,3.54-6.77,3.25-3.61-.4-1.21-3.12-.98-4.63.74-4.93,1.84-9.8,2.82-14.69.56-2.81.39-5.52-2.44-6.94-3.1-1.55-5.82-.32-8.04,2.07-1.62,1.74-2.59,3.86-3.11,6.16-.88,3.89-1.68,7.8-2.53,11.7q-1.57,7.14-9.23,5.96Z"/><path class="cls-1" d="m171.1,76.09c.9,4.37-1.02,6.46-5.32,6.69-.33.02-.66.1-.98.16-8.41,1.37-15.33-1-18.1-6.2-3.14-5.88-1.65-15.4,3.27-20.98,4.98-5.64,12.89-7.83,19.44-5.38,5.75,2.15,9.57,12.48,6.45,17.38-.92,1.45-2.35.94-3.61.95-5.32.05-10.64.18-15.94,0-4.11-.14-4.06,2-2.79,4.67,1.75,3.7,5.27,4.43,8.85,4.24,2.91-.16,5.78-.98,8.73-1.52Zm-9.79-12.54s0-.02,0-.03c1.16,0,2.33.06,3.49-.02,1.53-.11,3.57.68,3.96-1.8.36-2.3-.22-4.5-2.31-5.63-2.87-1.56-5.86-1.1-8.45.82-1.88,1.39-4.07,3.46-3.51,5.61.57,2.17,3.49.66,5.33,1.03.48.1.99.01,1.49.01Z"/><path class="cls-1" d="m182.88,57.3c-.64-5.32,2.08-7.16,6.49-7.43,1.99-.12,3.98-.39,5.97-.33,9.11.24,12.67,4.49,11.21,13.42-.89,5.4-2.3,10.73-2.9,16.16-.4,3.66-2.37,3.53-5.04,3.56-4.13.05-.77-3.06-2.12-4.39-3.1,2.63-6.1,5.52-10.72,5.09-5.27-.49-8.55-3-9.3-7.42-.78-4.6,1.48-9.08,5.84-11.05,4.17-1.88,8.67-2.11,13.18-2.12,1.71,0,3.85.66,4.14-2.19.26-2.59-1.07-4.04-3.33-4.88-2.92-1.08-6.21-.71-13.42,1.56Zm5.59,20.35c4.42.15,9.34-4.36,9.58-8.35.16-2.68-1.8-1.79-3.07-1.83-6.48-.19-11,2.38-10.87,6.16.11,2.97,2.29,3.7,4.36,4.02Z"/><path class="cls-1" d="m142.62,75.96c.63,5.79-2.01,7.16-6.97,6.77-5.29-.42-10.65-.2-15.98-.05-2.78.08-3.82-.39-3.09-3.59,2.8-12.32,5.27-24.72,7.91-37.08.6-2.79,6.01-4.89,8.24-3.2,1.39,1.06.33,2.49.09,3.64-2.03,9.94-4.08,19.87-6.35,29.76-.67,2.91-.09,3.92,2.95,3.8,4.32-.17,8.64-.04,13.2-.04Z"/><path class="cls-1" d="m94.89,58.99q7.31-.07,5.67,7.29c-.82,3.73-1.93,7.45-2.24,11.24-.28,3.47-2.28,4.39-5.03,5.04-14.62,3.46-25.27-2.74-27.42-16-2.37-14.59,7.95-27.57,22.86-28.72,4.18-.32,8.32.16,12.38,1.08,1.45.33,3.64.44,2.75,3.03-.89,2.59-2.49.73-3.63.4-15.68-4.62-28.64,3.35-30.77,18.98-1.68,12.33,10.2,21.93,21.96,17.82,1.74-.61,2.93-1.33,3.12-3.33.14-1.48.57-2.93.84-4.4.52-2.76,2.19-6.1,1.21-8.14-1.05-2.19-4.85-.61-7.44-.83-1.01-.09-2.09,0-2.02-1.45.05-1.1.56-1.95,1.78-1.99,1.99-.05,3.99-.01,5.98-.01Z"/><path class="cls-1" d="m222.87,54.82c2-2.26,4.07-5.01,7.71-5.17,1.35-.06,3.91-1.33,3.47,1.68-.31,2.1.51,5.39-2.62,5.93-7.88,1.38-9.67,2.74-11.6,10.38-.89,3.53-1.63,7.1-2.42,10.66-.87,3.9-3.43,5.37-7.26,4.34-2.69-.72-.98-2.49-.78-3.55,1.59-8.47,3.62-16.86,5-25.36.7-4.3,3.43-3.61,6.14-3.56,4.1.08.24,3.28,2.38,4.65Z"/><path class="cls-1" d="m269.6,82.52c-3.26.75-4.05-.34-3.27-3.59,2.01-8.41,3.95-16.86,5.41-25.37.83-4.84,4.2-3.63,6.77-3.29,3.51.46,1.2,3.16.91,4.67-1.53,8.01-3.5,15.93-4.91,23.96-.57,3.24-1.88,4.36-4.91,3.63Z"/><path class="cls-1" d="m28.72,38.64c4,0,8-.06,11.99.04,1.12.03,3.01-.78,3.09,1.25.09,2.3-1.92,1.78-3.33,1.83-1.83.06-3.7.25-5.49,0-4.05-.59-5.35,1.24-6.06,5.07-2.02,10.96-4.57,21.81-6.77,32.74-.42,2.08-.91,3.67-3.37,3.01-2.6-.7-.66-2.59-.46-3.6,2.2-11.26,4.52-22.5,7.06-33.69.63-2.77.06-3.65-2.7-3.5-2.49.14-5,.06-7.49.03-.91-.01-2.14.36-2.18-1.21-.04-1.5.81-1.95,2.22-1.94,4.5.05,8.99.02,13.49.02v-.02Z"/><path class="cls-1" d="m51.46,82.79c-3.46-.19-8.34.91-10.01-.92-1.92-2.09.78-6.48,1.47-9.86,2.05-10.1,4.24-20.17,6.25-30.27.41-2.08.97-3.7,3.4-3,2.54.73.63,2.61.42,3.65-2.18,10.92-4.5,21.81-6.99,32.67-.72,3.16-.5,4.62,3.31,4.26,3.79-.36,7.65-.11,11.48-.14,1,0,2.11-.16,2.21,1.28.1,1.39-.56,2.18-2.04,2.18-3.16,0-6.32,0-9.49,0v.17Z"/><path class="cls-1" d="m277.64,43.72c-.94-.71-3.82,1.35-3.21-1.79.55-2.85.05-7.17,5.34-6.04,1.45.31,3.83-1.1,3.44,2.36-.52,4.61-1.2,5.53-5.56,5.46Z"/></svg>